{
	"patcher" : 	{
		"fileversion" : 1,
		"rect" : [ 132.0, 70.0, 927.0, 605.0 ],
		"bglocked" : 0,
		"defrect" : [ 132.0, 70.0, 927.0, 605.0 ],
		"openrect" : [ 0.0, 0.0, 0.0, 0.0 ],
		"openinpresentation" : 0,
		"default_fontsize" : 12.0,
		"default_fontface" : 0,
		"default_fontname" : "Arial",
		"gridonopen" : 0,
		"gridsize" : [ 15.0, 15.0 ],
		"gridsnaponopen" : 0,
		"toolbarvisible" : 1,
		"boxanimatetime" : 200,
		"imprint" : 0,
		"metadata" : [  ],
		"boxes" : [ 			{
				"box" : 				{
					"maxclass" : "newobj",
					"text" : "if $i1 > $i2 then tb",
					"outlettype" : [ "" ],
					"fontname" : "Arial",
					"patching_rect" : [ 61.0, 67.0, 102.0, 20.0 ],
					"id" : "obj-5",
					"numinlets" : 2,
					"fontsize" : 11.595187,
					"numoutlets" : 1
				}

			}
, 			{
				"box" : 				{
					"maxclass" : "newobj",
					"text" : "s bangany",
					"fontname" : "Arial",
					"patching_rect" : [ 781.0, 127.0, 66.0, 20.0 ],
					"id" : "obj-1",
					"numinlets" : 1,
					"fontsize" : 12.0,
					"numoutlets" : 0
				}

			}
, 			{
				"box" : 				{
					"maxclass" : "comment",
					"text" : "Nonactivity thru short term activity banks",
					"fontname" : "Arial",
					"patching_rect" : [ 49.0, 292.0, 225.0, 20.0 ],
					"id" : "obj-343",
					"numinlets" : 1,
					"fontsize" : 12.0,
					"numoutlets" : 0
				}

			}
, 			{
				"box" : 				{
					"maxclass" : "comment",
					"text" : "medium term activity thru long term activity banks",
					"fontname" : "Arial",
					"patching_rect" : [ 48.0, 438.0, 275.0, 20.0 ],
					"id" : "obj-342",
					"numinlets" : 1,
					"fontsize" : 12.0,
					"numoutlets" : 0
				}

			}
, 			{
				"box" : 				{
					"maxclass" : "button",
					"outlettype" : [ "bang" ],
					"patching_rect" : [ 121.0, 202.0, 19.0, 19.0 ],
					"id" : "obj-338",
					"numinlets" : 1,
					"numoutlets" : 1
				}

			}
, 			{
				"box" : 				{
					"maxclass" : "button",
					"outlettype" : [ "bang" ],
					"patching_rect" : [ 309.0, 207.0, 19.0, 19.0 ],
					"id" : "obj-339",
					"numinlets" : 1,
					"numoutlets" : 1
				}

			}
, 			{
				"box" : 				{
					"maxclass" : "button",
					"outlettype" : [ "bang" ],
					"patching_rect" : [ 494.0, 212.0, 19.0, 19.0 ],
					"id" : "obj-340",
					"numinlets" : 1,
					"numoutlets" : 1
				}

			}
, 			{
				"box" : 				{
					"maxclass" : "button",
					"outlettype" : [ "bang" ],
					"patching_rect" : [ 697.0, 212.0, 19.0, 19.0 ],
					"id" : "obj-341",
					"numinlets" : 1,
					"numoutlets" : 1
				}

			}
, 			{
				"box" : 				{
					"maxclass" : "button",
					"outlettype" : [ "bang" ],
					"patching_rect" : [ 117.0, 92.0, 19.0, 19.0 ],
					"id" : "obj-337",
					"numinlets" : 1,
					"numoutlets" : 1
				}

			}
, 			{
				"box" : 				{
					"maxclass" : "button",
					"outlettype" : [ "bang" ],
					"patching_rect" : [ 309.0, 92.0, 19.0, 19.0 ],
					"id" : "obj-336",
					"numinlets" : 1,
					"numoutlets" : 1
				}

			}
, 			{
				"box" : 				{
					"maxclass" : "button",
					"outlettype" : [ "bang" ],
					"patching_rect" : [ 494.0, 95.0, 19.0, 19.0 ],
					"id" : "obj-335",
					"numinlets" : 1,
					"numoutlets" : 1
				}

			}
, 			{
				"box" : 				{
					"maxclass" : "button",
					"outlettype" : [ "bang" ],
					"patching_rect" : [ 697.0, 97.0, 19.0, 19.0 ],
					"id" : "obj-334",
					"numinlets" : 1,
					"numoutlets" : 1
				}

			}
, 			{
				"box" : 				{
					"maxclass" : "newobj",
					"text" : "r val8bang",
					"outlettype" : [ "" ],
					"fontname" : "Arial",
					"patching_rect" : [ 567.0, 257.0, 67.0, 20.0 ],
					"id" : "obj-330",
					"numinlets" : 0,
					"fontsize" : 12.0,
					"numoutlets" : 1
				}

			}
, 			{
				"box" : 				{
					"maxclass" : "newobj",
					"text" : "r val7bang",
					"outlettype" : [ "" ],
					"fontname" : "Arial",
					"patching_rect" : [ 489.0, 257.0, 67.0, 20.0 ],
					"id" : "obj-331",
					"numinlets" : 0,
					"fontsize" : 12.0,
					"numoutlets" : 1
				}

			}
, 			{
				"box" : 				{
					"maxclass" : "newobj",
					"text" : "r val6bang",
					"outlettype" : [ "" ],
					"fontname" : "Arial",
					"patching_rect" : [ 413.0, 257.0, 67.0, 20.0 ],
					"id" : "obj-332",
					"numinlets" : 0,
					"fontsize" : 12.0,
					"numoutlets" : 1
				}

			}
, 			{
				"box" : 				{
					"maxclass" : "newobj",
					"text" : "r val5bang",
					"outlettype" : [ "" ],
					"fontname" : "Arial",
					"patching_rect" : [ 340.0, 257.0, 67.0, 20.0 ],
					"id" : "obj-333",
					"numinlets" : 0,
					"fontsize" : 12.0,
					"numoutlets" : 1
				}

			}
, 			{
				"box" : 				{
					"maxclass" : "newobj",
					"text" : "r val4bang",
					"outlettype" : [ "" ],
					"fontname" : "Arial",
					"patching_rect" : [ 269.0, 257.0, 67.0, 20.0 ],
					"id" : "obj-322",
					"numinlets" : 0,
					"fontsize" : 12.0,
					"numoutlets" : 1
				}

			}
, 			{
				"box" : 				{
					"maxclass" : "newobj",
					"text" : "r val3bang",
					"outlettype" : [ "" ],
					"fontname" : "Arial",
					"patching_rect" : [ 195.0, 257.0, 67.0, 20.0 ],
					"id" : "obj-323",
					"numinlets" : 0,
					"fontsize" : 12.0,
					"numoutlets" : 1
				}

			}
, 			{
				"box" : 				{
					"maxclass" : "newobj",
					"text" : "r val2bang",
					"outlettype" : [ "" ],
					"fontname" : "Arial",
					"patching_rect" : [ 118.0, 257.0, 67.0, 20.0 ],
					"id" : "obj-324",
					"numinlets" : 0,
					"fontsize" : 12.0,
					"numoutlets" : 1
				}

			}
, 			{
				"box" : 				{
					"maxclass" : "newobj",
					"text" : "r val1bang",
					"outlettype" : [ "" ],
					"fontname" : "Arial",
					"patching_rect" : [ 43.0, 257.0, 67.0, 20.0 ],
					"id" : "obj-325",
					"numinlets" : 0,
					"fontsize" : 12.0,
					"numoutlets" : 1
				}

			}
, 			{
				"box" : 				{
					"maxclass" : "newobj",
					"text" : "s val8bang",
					"fontname" : "Arial",
					"patching_rect" : [ 625.0, 213.0, 69.0, 20.0 ],
					"id" : "obj-310",
					"numinlets" : 1,
					"fontsize" : 12.0,
					"numoutlets" : 0
				}

			}
, 			{
				"box" : 				{
					"maxclass" : "flonum",
					"outlettype" : [ "float", "bang" ],
					"fontname" : "Arial",
					"patching_rect" : [ 714.0, 164.0, 50.0, 20.0 ],
					"id" : "obj-311",
					"numinlets" : 1,
					"fontsize" : 12.0,
					"numoutlets" : 2
				}

			}
, 			{
				"box" : 				{
					"maxclass" : "newobj",
					"text" : "r trigval",
					"outlettype" : [ "" ],
					"fontname" : "Arial",
					"patching_rect" : [ 714.0, 143.0, 50.0, 20.0 ],
					"id" : "obj-312",
					"numinlets" : 0,
					"fontsize" : 12.0,
					"numoutlets" : 1
				}

			}
, 			{
				"box" : 				{
					"maxclass" : "flonum",
					"outlettype" : [ "float", "bang" ],
					"fontname" : "Arial",
					"patching_rect" : [ 625.0, 164.0, 86.0, 20.0 ],
					"id" : "obj-313",
					"numinlets" : 1,
					"fontsize" : 12.0,
					"numoutlets" : 2
				}

			}
, 			{
				"box" : 				{
					"maxclass" : "newobj",
					"text" : "r val8",
					"outlettype" : [ "" ],
					"fontname" : "Arial",
					"patching_rect" : [ 625.0, 140.0, 40.0, 20.0 ],
					"id" : "obj-314",
					"numinlets" : 0,
					"fontsize" : 12.0,
					"numoutlets" : 1
				}

			}
, 			{
				"box" : 				{
					"maxclass" : "newobj",
					"text" : "if $i1 > $i2 then tb",
					"outlettype" : [ "" ],
					"fontname" : "Arial",
					"patching_rect" : [ 625.0, 187.0, 102.0, 20.0 ],
					"id" : "obj-315",
					"numinlets" : 2,
					"fontsize" : 11.595187,
					"numoutlets" : 1
				}

			}
, 			{
				"box" : 				{
					"maxclass" : "newobj",
					"text" : "s val4bang",
					"fontname" : "Arial",
					"patching_rect" : [ 624.0, 99.0, 69.0, 20.0 ],
					"id" : "obj-316",
					"numinlets" : 1,
					"fontsize" : 12.0,
					"numoutlets" : 0
				}

			}
, 			{
				"box" : 				{
					"maxclass" : "flonum",
					"outlettype" : [ "float", "bang" ],
					"fontname" : "Arial",
					"patching_rect" : [ 714.0, 49.0, 50.0, 20.0 ],
					"id" : "obj-317",
					"numinlets" : 1,
					"fontsize" : 12.0,
					"numoutlets" : 2
				}

			}
, 			{
				"box" : 				{
					"maxclass" : "newobj",
					"text" : "r trigval",
					"outlettype" : [ "" ],
					"fontname" : "Arial",
					"patching_rect" : [ 714.0, 28.0, 50.0, 20.0 ],
					"id" : "obj-318",
					"numinlets" : 0,
					"fontsize" : 12.0,
					"numoutlets" : 1
				}

			}
, 			{
				"box" : 				{
					"maxclass" : "flonum",
					"outlettype" : [ "float", "bang" ],
					"fontname" : "Arial",
					"patching_rect" : [ 625.0, 49.0, 86.0, 20.0 ],
					"id" : "obj-319",
					"numinlets" : 1,
					"fontsize" : 12.0,
					"numoutlets" : 2
				}

			}
, 			{
				"box" : 				{
					"maxclass" : "newobj",
					"text" : "r val4",
					"outlettype" : [ "" ],
					"fontname" : "Arial",
					"patching_rect" : [ 624.0, 26.0, 40.0, 20.0 ],
					"id" : "obj-320",
					"numinlets" : 0,
					"fontsize" : 12.0,
					"numoutlets" : 1
				}

			}
, 			{
				"box" : 				{
					"maxclass" : "newobj",
					"text" : "if $i1 > $i2 then tb",
					"outlettype" : [ "" ],
					"fontname" : "Arial",
					"patching_rect" : [ 625.0, 72.0, 102.0, 20.0 ],
					"id" : "obj-321",
					"numinlets" : 2,
					"fontsize" : 11.595187,
					"numoutlets" : 1
				}

			}
, 			{
				"box" : 				{
					"maxclass" : "newobj",
					"text" : "s val7bang",
					"fontname" : "Arial",
					"patching_rect" : [ 418.0, 212.0, 69.0, 20.0 ],
					"id" : "obj-304",
					"numinlets" : 1,
					"fontsize" : 12.0,
					"numoutlets" : 0
				}

			}
, 			{
				"box" : 				{
					"maxclass" : "flonum",
					"outlettype" : [ "float", "bang" ],
					"fontname" : "Arial",
					"patching_rect" : [ 508.0, 163.0, 50.0, 20.0 ],
					"id" : "obj-305",
					"numinlets" : 1,
					"fontsize" : 12.0,
					"numoutlets" : 2
				}

			}
, 			{
				"box" : 				{
					"maxclass" : "newobj",
					"text" : "r trigval",
					"outlettype" : [ "" ],
					"fontname" : "Arial",
					"patching_rect" : [ 508.0, 142.0, 50.0, 20.0 ],
					"id" : "obj-306",
					"numinlets" : 0,
					"fontsize" : 12.0,
					"numoutlets" : 1
				}

			}
, 			{
				"box" : 				{
					"maxclass" : "flonum",
					"outlettype" : [ "float", "bang" ],
					"fontname" : "Arial",
					"patching_rect" : [ 419.0, 163.0, 86.0, 20.0 ],
					"id" : "obj-307",
					"numinlets" : 1,
					"fontsize" : 12.0,
					"numoutlets" : 2
				}

			}
, 			{
				"box" : 				{
					"maxclass" : "newobj",
					"text" : "r val7",
					"outlettype" : [ "" ],
					"fontname" : "Arial",
					"patching_rect" : [ 419.0, 139.0, 40.0, 20.0 ],
					"id" : "obj-308",
					"numinlets" : 0,
					"fontsize" : 12.0,
					"numoutlets" : 1
				}

			}
, 			{
				"box" : 				{
					"maxclass" : "newobj",
					"text" : "if $i1 > $i2 then tb",
					"outlettype" : [ "" ],
					"fontname" : "Arial",
					"patching_rect" : [ 419.0, 186.0, 102.0, 20.0 ],
					"id" : "obj-309",
					"numinlets" : 2,
					"fontsize" : 11.595187,
					"numoutlets" : 1
				}

			}
, 			{
				"box" : 				{
					"maxclass" : "newobj",
					"text" : "s val3bang",
					"fontname" : "Arial",
					"patching_rect" : [ 421.0, 98.0, 69.0, 20.0 ],
					"id" : "obj-298",
					"numinlets" : 1,
					"fontsize" : 12.0,
					"numoutlets" : 0
				}

			}
, 			{
				"box" : 				{
					"maxclass" : "flonum",
					"outlettype" : [ "float", "bang" ],
					"fontname" : "Arial",
					"patching_rect" : [ 508.0, 48.0, 50.0, 20.0 ],
					"id" : "obj-299",
					"numinlets" : 1,
					"fontsize" : 12.0,
					"numoutlets" : 2
				}

			}
, 			{
				"box" : 				{
					"maxclass" : "newobj",
					"text" : "r trigval",
					"outlettype" : [ "" ],
					"fontname" : "Arial",
					"patching_rect" : [ 508.0, 27.0, 50.0, 20.0 ],
					"id" : "obj-300",
					"numinlets" : 0,
					"fontsize" : 12.0,
					"numoutlets" : 1
				}

			}
, 			{
				"box" : 				{
					"maxclass" : "flonum",
					"outlettype" : [ "float", "bang" ],
					"fontname" : "Arial",
					"patching_rect" : [ 419.0, 48.0, 86.0, 20.0 ],
					"id" : "obj-301",
					"numinlets" : 1,
					"fontsize" : 12.0,
					"numoutlets" : 2
				}

			}
, 			{
				"box" : 				{
					"maxclass" : "newobj",
					"text" : "r val3",
					"outlettype" : [ "" ],
					"fontname" : "Arial",
					"patching_rect" : [ 419.0, 24.0, 40.0, 20.0 ],
					"id" : "obj-302",
					"numinlets" : 0,
					"fontsize" : 12.0,
					"numoutlets" : 1
				}

			}
, 			{
				"box" : 				{
					"maxclass" : "newobj",
					"text" : "if $i1 > $i2 then tb",
					"outlettype" : [ "" ],
					"fontname" : "Arial",
					"patching_rect" : [ 419.0, 71.0, 102.0, 20.0 ],
					"id" : "obj-303",
					"numinlets" : 2,
					"fontsize" : 11.595187,
					"numoutlets" : 1
				}

			}
, 			{
				"box" : 				{
					"maxclass" : "newobj",
					"text" : "s val6bang",
					"fontname" : "Arial",
					"patching_rect" : [ 234.0, 208.0, 69.0, 20.0 ],
					"id" : "obj-292",
					"numinlets" : 1,
					"fontsize" : 12.0,
					"numoutlets" : 0
				}

			}
, 			{
				"box" : 				{
					"maxclass" : "flonum",
					"outlettype" : [ "float", "bang" ],
					"fontname" : "Arial",
					"patching_rect" : [ 323.0, 159.0, 50.0, 20.0 ],
					"id" : "obj-293",
					"numinlets" : 1,
					"fontsize" : 12.0,
					"numoutlets" : 2
				}

			}
, 			{
				"box" : 				{
					"maxclass" : "newobj",
					"text" : "r trigval",
					"outlettype" : [ "" ],
					"fontname" : "Arial",
					"patching_rect" : [ 323.0, 138.0, 50.0, 20.0 ],
					"id" : "obj-294",
					"numinlets" : 0,
					"fontsize" : 12.0,
					"numoutlets" : 1
				}

			}
, 			{
				"box" : 				{
					"maxclass" : "flonum",
					"outlettype" : [ "float", "bang" ],
					"fontname" : "Arial",
					"patching_rect" : [ 234.0, 159.0, 86.0, 20.0 ],
					"id" : "obj-295",
					"numinlets" : 1,
					"fontsize" : 12.0,
					"numoutlets" : 2
				}

			}
, 			{
				"box" : 				{
					"maxclass" : "newobj",
					"text" : "r val6",
					"outlettype" : [ "" ],
					"fontname" : "Arial",
					"patching_rect" : [ 234.0, 135.0, 40.0, 20.0 ],
					"id" : "obj-296",
					"numinlets" : 0,
					"fontsize" : 12.0,
					"numoutlets" : 1
				}

			}
, 			{
				"box" : 				{
					"maxclass" : "newobj",
					"text" : "if $i1 > $i2 then tb",
					"outlettype" : [ "" ],
					"fontname" : "Arial",
					"patching_rect" : [ 234.0, 182.0, 102.0, 20.0 ],
					"id" : "obj-297",
					"numinlets" : 2,
					"fontsize" : 11.595187,
					"numoutlets" : 1
				}

			}
, 			{
				"box" : 				{
					"maxclass" : "newobj",
					"text" : "s val2bang",
					"fontname" : "Arial",
					"patching_rect" : [ 234.0, 93.0, 69.0, 20.0 ],
					"id" : "obj-286",
					"numinlets" : 1,
					"fontsize" : 12.0,
					"numoutlets" : 0
				}

			}
, 			{
				"box" : 				{
					"maxclass" : "flonum",
					"outlettype" : [ "float", "bang" ],
					"fontname" : "Arial",
					"patching_rect" : [ 323.0, 44.0, 50.0, 20.0 ],
					"id" : "obj-287",
					"numinlets" : 1,
					"fontsize" : 12.0,
					"numoutlets" : 2
				}

			}
, 			{
				"box" : 				{
					"maxclass" : "newobj",
					"text" : "r trigval",
					"outlettype" : [ "" ],
					"fontname" : "Arial",
					"patching_rect" : [ 323.0, 23.0, 50.0, 20.0 ],
					"id" : "obj-288",
					"numinlets" : 0,
					"fontsize" : 12.0,
					"numoutlets" : 1
				}

			}
, 			{
				"box" : 				{
					"maxclass" : "flonum",
					"outlettype" : [ "float", "bang" ],
					"fontname" : "Arial",
					"patching_rect" : [ 234.0, 44.0, 86.0, 20.0 ],
					"id" : "obj-289",
					"numinlets" : 1,
					"fontsize" : 12.0,
					"numoutlets" : 2
				}

			}
, 			{
				"box" : 				{
					"maxclass" : "newobj",
					"text" : "r val2",
					"outlettype" : [ "" ],
					"fontname" : "Arial",
					"patching_rect" : [ 234.0, 20.0, 40.0, 20.0 ],
					"id" : "obj-290",
					"numinlets" : 0,
					"fontsize" : 12.0,
					"numoutlets" : 1
				}

			}
, 			{
				"box" : 				{
					"maxclass" : "newobj",
					"text" : "if $i1 > $i2 then tb",
					"outlettype" : [ "" ],
					"fontname" : "Arial",
					"patching_rect" : [ 234.0, 67.0, 102.0, 20.0 ],
					"id" : "obj-291",
					"numinlets" : 2,
					"fontsize" : 11.595187,
					"numoutlets" : 1
				}

			}
, 			{
				"box" : 				{
					"maxclass" : "newobj",
					"text" : "s val5bang",
					"fontname" : "Arial",
					"patching_rect" : [ 49.0, 201.0, 69.0, 20.0 ],
					"id" : "obj-280",
					"numinlets" : 1,
					"fontsize" : 12.0,
					"numoutlets" : 0
				}

			}
, 			{
				"box" : 				{
					"maxclass" : "flonum",
					"outlettype" : [ "float", "bang" ],
					"fontname" : "Arial",
					"patching_rect" : [ 138.0, 152.0, 50.0, 20.0 ],
					"id" : "obj-281",
					"numinlets" : 1,
					"fontsize" : 12.0,
					"numoutlets" : 2
				}

			}
, 			{
				"box" : 				{
					"maxclass" : "newobj",
					"text" : "r trigval",
					"outlettype" : [ "" ],
					"fontname" : "Arial",
					"patching_rect" : [ 138.0, 131.0, 50.0, 20.0 ],
					"id" : "obj-282",
					"numinlets" : 0,
					"fontsize" : 12.0,
					"numoutlets" : 1
				}

			}
, 			{
				"box" : 				{
					"maxclass" : "flonum",
					"outlettype" : [ "float", "bang" ],
					"fontname" : "Arial",
					"patching_rect" : [ 49.0, 152.0, 86.0, 20.0 ],
					"id" : "obj-283",
					"numinlets" : 1,
					"fontsize" : 12.0,
					"numoutlets" : 2
				}

			}
, 			{
				"box" : 				{
					"maxclass" : "newobj",
					"text" : "r val5",
					"outlettype" : [ "" ],
					"fontname" : "Arial",
					"patching_rect" : [ 48.0, 128.0, 40.0, 20.0 ],
					"id" : "obj-284",
					"numinlets" : 0,
					"fontsize" : 12.0,
					"numoutlets" : 1
				}

			}
, 			{
				"box" : 				{
					"maxclass" : "newobj",
					"text" : "if $i1 > $i2 then tb",
					"outlettype" : [ "" ],
					"fontname" : "Arial",
					"patching_rect" : [ 49.0, 175.0, 102.0, 20.0 ],
					"id" : "obj-285",
					"numinlets" : 2,
					"fontsize" : 11.595187,
					"numoutlets" : 1
				}

			}
, 			{
				"box" : 				{
					"maxclass" : "newobj",
					"text" : "s val1bang",
					"fontname" : "Arial",
					"patching_rect" : [ 46.0, 104.0, 69.0, 20.0 ],
					"id" : "obj-279",
					"numinlets" : 1,
					"fontsize" : 12.0,
					"numoutlets" : 0
				}

			}
, 			{
				"box" : 				{
					"maxclass" : "flonum",
					"outlettype" : [ "float", "bang" ],
					"fontname" : "Arial",
					"patching_rect" : [ 137.0, 42.0, 50.0, 20.0 ],
					"id" : "obj-274",
					"numinlets" : 1,
					"fontsize" : 12.0,
					"numoutlets" : 2
				}

			}
, 			{
				"box" : 				{
					"maxclass" : "newobj",
					"text" : "r trigval",
					"outlettype" : [ "" ],
					"fontname" : "Arial",
					"patching_rect" : [ 136.0, 20.0, 50.0, 20.0 ],
					"id" : "obj-275",
					"numinlets" : 0,
					"fontsize" : 12.0,
					"numoutlets" : 1
				}

			}
, 			{
				"box" : 				{
					"maxclass" : "flonum",
					"outlettype" : [ "float", "bang" ],
					"fontname" : "Arial",
					"patching_rect" : [ 47.0, 41.0, 86.0, 20.0 ],
					"id" : "obj-276",
					"numinlets" : 1,
					"fontsize" : 12.0,
					"numoutlets" : 2
				}

			}
, 			{
				"box" : 				{
					"maxclass" : "newobj",
					"text" : "r val1",
					"outlettype" : [ "" ],
					"fontname" : "Arial",
					"patching_rect" : [ 47.0, 17.0, 40.0, 20.0 ],
					"id" : "obj-277",
					"numinlets" : 0,
					"fontsize" : 12.0,
					"numoutlets" : 1
				}

			}
, 			{
				"box" : 				{
					"maxclass" : "newobj",
					"text" : "s c16bang",
					"fontname" : "Arial",
					"patching_rect" : [ 828.0, 555.0, 66.0, 20.0 ],
					"id" : "obj-20",
					"numinlets" : 1,
					"fontsize" : 12.0,
					"numoutlets" : 0
				}

			}
, 			{
				"box" : 				{
					"maxclass" : "comment",
					"text" : "on",
					"fontname" : "Arial",
					"patching_rect" : [ 841.0, 527.0, 22.0, 20.0 ],
					"id" : "obj-98",
					"numinlets" : 1,
					"fontsize" : 12.0,
					"numoutlets" : 0
				}

			}
, 			{
				"box" : 				{
					"maxclass" : "comment",
					"text" : "off",
					"fontname" : "Arial",
					"patching_rect" : [ 789.0, 527.0, 22.0, 20.0 ],
					"id" : "obj-99",
					"numinlets" : 1,
					"fontsize" : 12.0,
					"numoutlets" : 0
				}

			}
, 			{
				"box" : 				{
					"maxclass" : "button",
					"outlettype" : [ "bang" ],
					"patching_rect" : [ 813.0, 527.0, 20.0, 20.0 ],
					"id" : "obj-100",
					"numinlets" : 1,
					"numoutlets" : 1
				}

			}
, 			{
				"box" : 				{
					"maxclass" : "button",
					"outlettype" : [ "bang" ],
					"patching_rect" : [ 865.0, 527.0, 20.0, 20.0 ],
					"id" : "obj-101",
					"numinlets" : 1,
					"numoutlets" : 1
				}

			}
, 			{
				"box" : 				{
					"maxclass" : "toggle",
					"outlettype" : [ "int" ],
					"patching_rect" : [ 865.0, 469.0, 20.0, 20.0 ],
					"id" : "obj-102",
					"numinlets" : 1,
					"numoutlets" : 1
				}

			}
, 			{
				"box" : 				{
					"maxclass" : "newobj",
					"text" : "r cond16",
					"outlettype" : [ "" ],
					"fontname" : "Arial",
					"patching_rect" : [ 802.0, 469.0, 57.0, 20.0 ],
					"id" : "obj-103",
					"numinlets" : 0,
					"fontsize" : 12.0,
					"numoutlets" : 1
				}

			}
, 			{
				"box" : 				{
					"maxclass" : "gswitch2",
					"outlettype" : [ "", "" ],
					"patching_rect" : [ 787.0, 499.0, 97.0, 23.0 ],
					"id" : "obj-104",
					"numinlets" : 2,
					"numoutlets" : 2
				}

			}
, 			{
				"box" : 				{
					"maxclass" : "newobj",
					"text" : "s c14bang",
					"fontname" : "Arial",
					"patching_rect" : [ 719.0, 555.0, 66.0, 20.0 ],
					"id" : "obj-105",
					"numinlets" : 1,
					"fontsize" : 12.0,
					"numoutlets" : 0
				}

			}
, 			{
				"box" : 				{
					"maxclass" : "comment",
					"text" : "on",
					"fontname" : "Arial",
					"patching_rect" : [ 735.0, 527.0, 22.0, 20.0 ],
					"id" : "obj-106",
					"numinlets" : 1,
					"fontsize" : 12.0,
					"numoutlets" : 0
				}

			}
, 			{
				"box" : 				{
					"maxclass" : "comment",
					"text" : "off",
					"fontname" : "Arial",
					"patching_rect" : [ 683.0, 527.0, 22.0, 20.0 ],
					"id" : "obj-107",
					"numinlets" : 1,
					"fontsize" : 12.0,
					"numoutlets" : 0
				}

			}
, 			{
				"box" : 				{
					"maxclass" : "button",
					"outlettype" : [ "bang" ],
					"patching_rect" : [ 707.0, 527.0, 20.0, 20.0 ],
					"id" : "obj-108",
					"numinlets" : 1,
					"numoutlets" : 1
				}

			}
, 			{
				"box" : 				{
					"maxclass" : "button",
					"outlettype" : [ "bang" ],
					"patching_rect" : [ 759.0, 527.0, 20.0, 20.0 ],
					"id" : "obj-109",
					"numinlets" : 1,
					"numoutlets" : 1
				}

			}
, 			{
				"box" : 				{
					"maxclass" : "toggle",
					"outlettype" : [ "int" ],
					"patching_rect" : [ 759.0, 469.0, 20.0, 20.0 ],
					"id" : "obj-110",
					"numinlets" : 1,
					"numoutlets" : 1
				}

			}
, 			{
				"box" : 				{
					"maxclass" : "newobj",
					"text" : "r cond14",
					"outlettype" : [ "" ],
					"fontname" : "Arial",
					"patching_rect" : [ 697.0, 469.0, 57.0, 20.0 ],
					"id" : "obj-112",
					"numinlets" : 0,
					"fontsize" : 12.0,
					"numoutlets" : 1
				}

			}
, 			{
				"box" : 				{
					"maxclass" : "gswitch2",
					"outlettype" : [ "", "" ],
					"patching_rect" : [ 681.0, 499.0, 97.0, 23.0 ],
					"id" : "obj-113",
					"numinlets" : 2,
					"numoutlets" : 2
				}

			}
, 			{
				"box" : 				{
					"maxclass" : "newobj",
					"text" : "s c12bang",
					"fontname" : "Arial",
					"patching_rect" : [ 613.0, 556.0, 66.0, 20.0 ],
					"id" : "obj-114",
					"numinlets" : 1,
					"fontsize" : 12.0,
					"numoutlets" : 0
				}

			}
, 			{
				"box" : 				{
					"maxclass" : "comment",
					"text" : "on",
					"fontname" : "Arial",
					"patching_rect" : [ 628.0, 527.0, 22.0, 20.0 ],
					"id" : "obj-115",
					"numinlets" : 1,
					"fontsize" : 12.0,
					"numoutlets" : 0
				}

			}
, 			{
				"box" : 				{
					"maxclass" : "comment",
					"text" : "off",
					"fontname" : "Arial",
					"patching_rect" : [ 576.0, 527.0, 22.0, 20.0 ],
					"id" : "obj-116",
					"numinlets" : 1,
					"fontsize" : 12.0,
					"numoutlets" : 0
				}

			}
, 			{
				"box" : 				{
					"maxclass" : "button",
					"outlettype" : [ "bang" ],
					"patching_rect" : [ 600.0, 527.0, 20.0, 20.0 ],
					"id" : "obj-117",
					"numinlets" : 1,
					"numoutlets" : 1
				}

			}
, 			{
				"box" : 				{
					"maxclass" : "button",
					"outlettype" : [ "bang" ],
					"patching_rect" : [ 652.0, 527.0, 20.0, 20.0 ],
					"id" : "obj-118",
					"numinlets" : 1,
					"numoutlets" : 1
				}

			}
, 			{
				"box" : 				{
					"maxclass" : "toggle",
					"outlettype" : [ "int" ],
					"patching_rect" : [ 652.0, 469.0, 20.0, 20.0 ],
					"id" : "obj-121",
					"numinlets" : 1,
					"numoutlets" : 1
				}

			}
, 			{
				"box" : 				{
					"maxclass" : "newobj",
					"text" : "r cond12",
					"outlettype" : [ "" ],
					"fontname" : "Arial",
					"patching_rect" : [ 590.0, 468.0, 57.0, 20.0 ],
					"id" : "obj-122",
					"numinlets" : 0,
					"fontsize" : 12.0,
					"numoutlets" : 1
				}

			}
, 			{
				"box" : 				{
					"maxclass" : "gswitch2",
					"outlettype" : [ "", "" ],
					"patching_rect" : [ 574.0, 499.0, 97.0, 23.0 ],
					"id" : "obj-126",
					"numinlets" : 2,
					"numoutlets" : 2
				}

			}
, 			{
				"box" : 				{
					"maxclass" : "newobj",
					"text" : "s c10bang",
					"fontname" : "Arial",
					"patching_rect" : [ 508.0, 555.0, 66.0, 20.0 ],
					"id" : "obj-129",
					"numinlets" : 1,
					"fontsize" : 12.0,
					"numoutlets" : 0
				}

			}
, 			{
				"box" : 				{
					"maxclass" : "comment",
					"text" : "on",
					"fontname" : "Arial",
					"patching_rect" : [ 522.0, 527.0, 22.0, 20.0 ],
					"id" : "obj-130",
					"numinlets" : 1,
					"fontsize" : 12.0,
					"numoutlets" : 0
				}

			}
, 			{
				"box" : 				{
					"maxclass" : "comment",
					"text" : "off",
					"fontname" : "Arial",
					"patching_rect" : [ 470.0, 527.0, 22.0, 20.0 ],
					"id" : "obj-131",
					"numinlets" : 1,
					"fontsize" : 12.0,
					"numoutlets" : 0
				}

			}
, 			{
				"box" : 				{
					"maxclass" : "button",
					"outlettype" : [ "bang" ],
					"patching_rect" : [ 494.0, 527.0, 20.0, 20.0 ],
					"id" : "obj-132",
					"numinlets" : 1,
					"numoutlets" : 1
				}

			}
, 			{
				"box" : 				{
					"maxclass" : "button",
					"outlettype" : [ "bang" ],
					"patching_rect" : [ 546.0, 527.0, 20.0, 20.0 ],
					"id" : "obj-133",
					"numinlets" : 1,
					"numoutlets" : 1
				}

			}
, 			{
				"box" : 				{
					"maxclass" : "toggle",
					"outlettype" : [ "int" ],
					"patching_rect" : [ 546.0, 469.0, 20.0, 20.0 ],
					"id" : "obj-134",
					"numinlets" : 1,
					"numoutlets" : 1
				}

			}
, 			{
				"box" : 				{
					"maxclass" : "newobj",
					"text" : "r cond10",
					"outlettype" : [ "" ],
					"fontname" : "Arial",
					"patching_rect" : [ 482.0, 469.0, 57.0, 20.0 ],
					"id" : "obj-135",
					"numinlets" : 0,
					"fontsize" : 12.0,
					"numoutlets" : 1
				}

			}
, 			{
				"box" : 				{
					"maxclass" : "gswitch2",
					"outlettype" : [ "", "" ],
					"patching_rect" : [ 468.0, 499.0, 97.0, 23.0 ],
					"id" : "obj-137",
					"numinlets" : 2,
					"numoutlets" : 2
				}

			}
, 			{
				"box" : 				{
					"maxclass" : "newobj",
					"text" : "s c8bang",
					"fontname" : "Arial",
					"patching_rect" : [ 402.0, 555.0, 59.0, 20.0 ],
					"id" : "obj-138",
					"numinlets" : 1,
					"fontsize" : 12.0,
					"numoutlets" : 0
				}

			}
, 			{
				"box" : 				{
					"maxclass" : "comment",
					"text" : "on",
					"fontname" : "Arial",
					"patching_rect" : [ 415.0, 527.0, 22.0, 20.0 ],
					"id" : "obj-139",
					"numinlets" : 1,
					"fontsize" : 12.0,
					"numoutlets" : 0
				}

			}
, 			{
				"box" : 				{
					"maxclass" : "comment",
					"text" : "off",
					"fontname" : "Arial",
					"patching_rect" : [ 363.0, 527.0, 22.0, 20.0 ],
					"id" : "obj-140",
					"numinlets" : 1,
					"fontsize" : 12.0,
					"numoutlets" : 0
				}

			}
, 			{
				"box" : 				{
					"maxclass" : "button",
					"outlettype" : [ "bang" ],
					"patching_rect" : [ 387.0, 527.0, 20.0, 20.0 ],
					"id" : "obj-141",
					"numinlets" : 1,
					"numoutlets" : 1
				}

			}
, 			{
				"box" : 				{
					"maxclass" : "button",
					"outlettype" : [ "bang" ],
					"patching_rect" : [ 439.0, 527.0, 20.0, 20.0 ],
					"id" : "obj-142",
					"numinlets" : 1,
					"numoutlets" : 1
				}

			}
, 			{
				"box" : 				{
					"maxclass" : "toggle",
					"outlettype" : [ "int" ],
					"patching_rect" : [ 439.0, 469.0, 20.0, 20.0 ],
					"id" : "obj-143",
					"numinlets" : 1,
					"numoutlets" : 1
				}

			}
, 			{
				"box" : 				{
					"maxclass" : "newobj",
					"text" : "r cond8",
					"outlettype" : [ "" ],
					"fontname" : "Arial",
					"patching_rect" : [ 381.0, 469.0, 51.0, 20.0 ],
					"id" : "obj-145",
					"numinlets" : 0,
					"fontsize" : 12.0,
					"numoutlets" : 1
				}

			}
, 			{
				"box" : 				{
					"maxclass" : "gswitch2",
					"outlettype" : [ "", "" ],
					"patching_rect" : [ 361.0, 499.0, 97.0, 23.0 ],
					"id" : "obj-147",
					"numinlets" : 2,
					"numoutlets" : 2
				}

			}
, 			{
				"box" : 				{
					"maxclass" : "newobj",
					"text" : "s c6bang",
					"fontname" : "Arial",
					"patching_rect" : [ 292.0, 556.0, 59.0, 20.0 ],
					"id" : "obj-153",
					"numinlets" : 1,
					"fontsize" : 12.0,
					"numoutlets" : 0
				}

			}
, 			{
				"box" : 				{
					"maxclass" : "comment",
					"text" : "on",
					"fontname" : "Arial",
					"patching_rect" : [ 309.0, 527.0, 22.0, 20.0 ],
					"id" : "obj-154",
					"numinlets" : 1,
					"fontsize" : 12.0,
					"numoutlets" : 0
				}

			}
, 			{
				"box" : 				{
					"maxclass" : "comment",
					"text" : "off",
					"fontname" : "Arial",
					"patching_rect" : [ 257.0, 527.0, 22.0, 20.0 ],
					"id" : "obj-155",
					"numinlets" : 1,
					"fontsize" : 12.0,
					"numoutlets" : 0
				}

			}
, 			{
				"box" : 				{
					"maxclass" : "button",
					"outlettype" : [ "bang" ],
					"patching_rect" : [ 281.0, 527.0, 20.0, 20.0 ],
					"id" : "obj-159",
					"numinlets" : 1,
					"numoutlets" : 1
				}

			}
, 			{
				"box" : 				{
					"maxclass" : "button",
					"outlettype" : [ "bang" ],
					"patching_rect" : [ 333.0, 527.0, 20.0, 20.0 ],
					"id" : "obj-160",
					"numinlets" : 1,
					"numoutlets" : 1
				}

			}
, 			{
				"box" : 				{
					"maxclass" : "toggle",
					"outlettype" : [ "int" ],
					"patching_rect" : [ 333.0, 469.0, 20.0, 20.0 ],
					"id" : "obj-161",
					"numinlets" : 1,
					"numoutlets" : 1
				}

			}
, 			{
				"box" : 				{
					"maxclass" : "newobj",
					"text" : "r cond6",
					"outlettype" : [ "" ],
					"fontname" : "Arial",
					"patching_rect" : [ 275.0, 469.0, 51.0, 20.0 ],
					"id" : "obj-165",
					"numinlets" : 0,
					"fontsize" : 12.0,
					"numoutlets" : 1
				}

			}
, 			{
				"box" : 				{
					"maxclass" : "gswitch2",
					"outlettype" : [ "", "" ],
					"patching_rect" : [ 255.0, 499.0, 97.0, 23.0 ],
					"id" : "obj-166",
					"numinlets" : 2,
					"numoutlets" : 2
				}

			}
, 			{
				"box" : 				{
					"maxclass" : "newobj",
					"text" : "s c4bang",
					"fontname" : "Arial",
					"patching_rect" : [ 187.0, 557.0, 59.0, 20.0 ],
					"id" : "obj-167",
					"numinlets" : 1,
					"fontsize" : 12.0,
					"numoutlets" : 0
				}

			}
, 			{
				"box" : 				{
					"maxclass" : "comment",
					"text" : "on",
					"fontname" : "Arial",
					"patching_rect" : [ 202.0, 527.0, 22.0, 20.0 ],
					"id" : "obj-168",
					"numinlets" : 1,
					"fontsize" : 12.0,
					"numoutlets" : 0
				}

			}
, 			{
				"box" : 				{
					"maxclass" : "comment",
					"text" : "off",
					"fontname" : "Arial",
					"patching_rect" : [ 150.0, 527.0, 22.0, 20.0 ],
					"id" : "obj-169",
					"numinlets" : 1,
					"fontsize" : 12.0,
					"numoutlets" : 0
				}

			}
, 			{
				"box" : 				{
					"maxclass" : "button",
					"outlettype" : [ "bang" ],
					"patching_rect" : [ 174.0, 527.0, 20.0, 20.0 ],
					"id" : "obj-170",
					"numinlets" : 1,
					"numoutlets" : 1
				}

			}
, 			{
				"box" : 				{
					"maxclass" : "button",
					"outlettype" : [ "bang" ],
					"patching_rect" : [ 226.0, 527.0, 20.0, 20.0 ],
					"id" : "obj-171",
					"numinlets" : 1,
					"numoutlets" : 1
				}

			}
, 			{
				"box" : 				{
					"maxclass" : "toggle",
					"outlettype" : [ "int" ],
					"patching_rect" : [ 226.0, 469.0, 20.0, 20.0 ],
					"id" : "obj-172",
					"numinlets" : 1,
					"numoutlets" : 1
				}

			}
, 			{
				"box" : 				{
					"maxclass" : "newobj",
					"text" : "r cond4",
					"outlettype" : [ "" ],
					"fontname" : "Arial",
					"patching_rect" : [ 168.0, 469.0, 51.0, 20.0 ],
					"id" : "obj-173",
					"numinlets" : 0,
					"fontsize" : 12.0,
					"numoutlets" : 1
				}

			}
, 			{
				"box" : 				{
					"maxclass" : "gswitch2",
					"outlettype" : [ "", "" ],
					"patching_rect" : [ 148.0, 499.0, 97.0, 23.0 ],
					"id" : "obj-174",
					"numinlets" : 2,
					"numoutlets" : 2
				}

			}
, 			{
				"box" : 				{
					"maxclass" : "newobj",
					"text" : "s c2bang",
					"fontname" : "Arial",
					"patching_rect" : [ 82.0, 555.0, 59.0, 20.0 ],
					"id" : "obj-175",
					"numinlets" : 1,
					"fontsize" : 12.0,
					"numoutlets" : 0
				}

			}
, 			{
				"box" : 				{
					"maxclass" : "comment",
					"text" : "on",
					"fontname" : "Arial",
					"patching_rect" : [ 96.0, 527.0, 22.0, 20.0 ],
					"id" : "obj-176",
					"numinlets" : 1,
					"fontsize" : 12.0,
					"numoutlets" : 0
				}

			}
, 			{
				"box" : 				{
					"maxclass" : "comment",
					"text" : "off",
					"fontname" : "Arial",
					"patching_rect" : [ 44.0, 527.0, 22.0, 20.0 ],
					"id" : "obj-177",
					"numinlets" : 1,
					"fontsize" : 12.0,
					"numoutlets" : 0
				}

			}
, 			{
				"box" : 				{
					"maxclass" : "button",
					"outlettype" : [ "bang" ],
					"patching_rect" : [ 68.0, 527.0, 20.0, 20.0 ],
					"id" : "obj-178",
					"numinlets" : 1,
					"numoutlets" : 1
				}

			}
, 			{
				"box" : 				{
					"maxclass" : "button",
					"outlettype" : [ "bang" ],
					"patching_rect" : [ 120.0, 527.0, 20.0, 20.0 ],
					"id" : "obj-179",
					"numinlets" : 1,
					"numoutlets" : 1
				}

			}
, 			{
				"box" : 				{
					"maxclass" : "toggle",
					"outlettype" : [ "int" ],
					"patching_rect" : [ 120.0, 469.0, 20.0, 20.0 ],
					"id" : "obj-180",
					"numinlets" : 1,
					"numoutlets" : 1
				}

			}
, 			{
				"box" : 				{
					"maxclass" : "newobj",
					"text" : "r cond2",
					"outlettype" : [ "" ],
					"fontname" : "Arial",
					"patching_rect" : [ 62.0, 469.0, 51.0, 20.0 ],
					"id" : "obj-181",
					"numinlets" : 0,
					"fontsize" : 12.0,
					"numoutlets" : 1
				}

			}
, 			{
				"box" : 				{
					"maxclass" : "gswitch2",
					"outlettype" : [ "", "" ],
					"patching_rect" : [ 42.0, 499.0, 97.0, 23.0 ],
					"id" : "obj-182",
					"numinlets" : 2,
					"numoutlets" : 2
				}

			}
, 			{
				"box" : 				{
					"maxclass" : "newobj",
					"text" : "s c15bang",
					"fontname" : "Arial",
					"patching_rect" : [ 831.0, 405.0, 66.0, 20.0 ],
					"id" : "obj-62",
					"numinlets" : 1,
					"fontsize" : 12.0,
					"numoutlets" : 0
				}

			}
, 			{
				"box" : 				{
					"maxclass" : "comment",
					"text" : "on",
					"fontname" : "Arial",
					"patching_rect" : [ 844.0, 377.0, 22.0, 20.0 ],
					"id" : "obj-63",
					"numinlets" : 1,
					"fontsize" : 12.0,
					"numoutlets" : 0
				}

			}
, 			{
				"box" : 				{
					"maxclass" : "comment",
					"text" : "off",
					"fontname" : "Arial",
					"patching_rect" : [ 792.0, 377.0, 22.0, 20.0 ],
					"id" : "obj-64",
					"numinlets" : 1,
					"fontsize" : 12.0,
					"numoutlets" : 0
				}

			}
, 			{
				"box" : 				{
					"maxclass" : "button",
					"outlettype" : [ "bang" ],
					"patching_rect" : [ 816.0, 377.0, 20.0, 20.0 ],
					"id" : "obj-65",
					"numinlets" : 1,
					"numoutlets" : 1
				}

			}
, 			{
				"box" : 				{
					"maxclass" : "button",
					"outlettype" : [ "bang" ],
					"patching_rect" : [ 868.0, 377.0, 20.0, 20.0 ],
					"id" : "obj-66",
					"numinlets" : 1,
					"numoutlets" : 1
				}

			}
, 			{
				"box" : 				{
					"maxclass" : "toggle",
					"outlettype" : [ "int" ],
					"patching_rect" : [ 868.0, 319.0, 20.0, 20.0 ],
					"id" : "obj-67",
					"numinlets" : 1,
					"numoutlets" : 1
				}

			}
, 			{
				"box" : 				{
					"maxclass" : "newobj",
					"text" : "r cond15",
					"outlettype" : [ "" ],
					"fontname" : "Arial",
					"patching_rect" : [ 805.0, 319.0, 57.0, 20.0 ],
					"id" : "obj-68",
					"numinlets" : 0,
					"fontsize" : 12.0,
					"numoutlets" : 1
				}

			}
, 			{
				"box" : 				{
					"maxclass" : "gswitch2",
					"outlettype" : [ "", "" ],
					"patching_rect" : [ 790.0, 349.0, 97.0, 23.0 ],
					"id" : "obj-69",
					"int" : 1,
					"numinlets" : 2,
					"numoutlets" : 2
				}

			}
, 			{
				"box" : 				{
					"maxclass" : "newobj",
					"text" : "s c13bang",
					"fontname" : "Arial",
					"patching_rect" : [ 721.0, 405.0, 66.0, 20.0 ],
					"id" : "obj-70",
					"numinlets" : 1,
					"fontsize" : 12.0,
					"numoutlets" : 0
				}

			}
, 			{
				"box" : 				{
					"maxclass" : "comment",
					"text" : "on",
					"fontname" : "Arial",
					"patching_rect" : [ 738.0, 377.0, 22.0, 20.0 ],
					"id" : "obj-71",
					"numinlets" : 1,
					"fontsize" : 12.0,
					"numoutlets" : 0
				}

			}
, 			{
				"box" : 				{
					"maxclass" : "comment",
					"text" : "off",
					"fontname" : "Arial",
					"patching_rect" : [ 686.0, 377.0, 22.0, 20.0 ],
					"id" : "obj-72",
					"numinlets" : 1,
					"fontsize" : 12.0,
					"numoutlets" : 0
				}

			}
, 			{
				"box" : 				{
					"maxclass" : "button",
					"outlettype" : [ "bang" ],
					"patching_rect" : [ 710.0, 377.0, 20.0, 20.0 ],
					"id" : "obj-73",
					"numinlets" : 1,
					"numoutlets" : 1
				}

			}
, 			{
				"box" : 				{
					"maxclass" : "button",
					"outlettype" : [ "bang" ],
					"patching_rect" : [ 762.0, 377.0, 20.0, 20.0 ],
					"id" : "obj-74",
					"numinlets" : 1,
					"numoutlets" : 1
				}

			}
, 			{
				"box" : 				{
					"maxclass" : "toggle",
					"outlettype" : [ "int" ],
					"patching_rect" : [ 762.0, 319.0, 20.0, 20.0 ],
					"id" : "obj-75",
					"numinlets" : 1,
					"numoutlets" : 1
				}

			}
, 			{
				"box" : 				{
					"maxclass" : "newobj",
					"text" : "r cond13",
					"outlettype" : [ "" ],
					"fontname" : "Arial",
					"patching_rect" : [ 700.0, 319.0, 57.0, 20.0 ],
					"id" : "obj-76",
					"numinlets" : 0,
					"fontsize" : 12.0,
					"numoutlets" : 1
				}

			}
, 			{
				"box" : 				{
					"maxclass" : "gswitch2",
					"outlettype" : [ "", "" ],
					"patching_rect" : [ 684.0, 349.0, 97.0, 23.0 ],
					"id" : "obj-77",
					"numinlets" : 2,
					"numoutlets" : 2
				}

			}
, 			{
				"box" : 				{
					"maxclass" : "newobj",
					"text" : "s c11bang",
					"fontname" : "Arial",
					"patching_rect" : [ 616.0, 406.0, 66.0, 20.0 ],
					"id" : "obj-78",
					"numinlets" : 1,
					"fontsize" : 12.0,
					"numoutlets" : 0
				}

			}
, 			{
				"box" : 				{
					"maxclass" : "comment",
					"text" : "on",
					"fontname" : "Arial",
					"patching_rect" : [ 631.0, 377.0, 22.0, 20.0 ],
					"id" : "obj-80",
					"numinlets" : 1,
					"fontsize" : 12.0,
					"numoutlets" : 0
				}

			}
, 			{
				"box" : 				{
					"maxclass" : "comment",
					"text" : "off",
					"fontname" : "Arial",
					"patching_rect" : [ 579.0, 377.0, 22.0, 20.0 ],
					"id" : "obj-81",
					"numinlets" : 1,
					"fontsize" : 12.0,
					"numoutlets" : 0
				}

			}
, 			{
				"box" : 				{
					"maxclass" : "button",
					"outlettype" : [ "bang" ],
					"patching_rect" : [ 603.0, 377.0, 20.0, 20.0 ],
					"id" : "obj-82",
					"numinlets" : 1,
					"numoutlets" : 1
				}

			}
, 			{
				"box" : 				{
					"maxclass" : "button",
					"outlettype" : [ "bang" ],
					"patching_rect" : [ 655.0, 377.0, 20.0, 20.0 ],
					"id" : "obj-83",
					"numinlets" : 1,
					"numoutlets" : 1
				}

			}
, 			{
				"box" : 				{
					"maxclass" : "toggle",
					"outlettype" : [ "int" ],
					"patching_rect" : [ 655.0, 319.0, 20.0, 20.0 ],
					"id" : "obj-84",
					"numinlets" : 1,
					"numoutlets" : 1
				}

			}
, 			{
				"box" : 				{
					"maxclass" : "newobj",
					"text" : "r cond11",
					"outlettype" : [ "" ],
					"fontname" : "Arial",
					"patching_rect" : [ 593.0, 319.0, 57.0, 20.0 ],
					"id" : "obj-87",
					"numinlets" : 0,
					"fontsize" : 12.0,
					"numoutlets" : 1
				}

			}
, 			{
				"box" : 				{
					"maxclass" : "gswitch2",
					"outlettype" : [ "", "" ],
					"patching_rect" : [ 577.0, 349.0, 97.0, 23.0 ],
					"id" : "obj-88",
					"numinlets" : 2,
					"numoutlets" : 2
				}

			}
, 			{
				"box" : 				{
					"maxclass" : "newobj",
					"text" : "s c9bang",
					"fontname" : "Arial",
					"patching_rect" : [ 511.0, 405.0, 59.0, 20.0 ],
					"id" : "obj-89",
					"numinlets" : 1,
					"fontsize" : 12.0,
					"numoutlets" : 0
				}

			}
, 			{
				"box" : 				{
					"maxclass" : "comment",
					"text" : "on",
					"fontname" : "Arial",
					"patching_rect" : [ 525.0, 377.0, 22.0, 20.0 ],
					"id" : "obj-90",
					"numinlets" : 1,
					"fontsize" : 12.0,
					"numoutlets" : 0
				}

			}
, 			{
				"box" : 				{
					"maxclass" : "comment",
					"text" : "off",
					"fontname" : "Arial",
					"patching_rect" : [ 473.0, 377.0, 22.0, 20.0 ],
					"id" : "obj-91",
					"numinlets" : 1,
					"fontsize" : 12.0,
					"numoutlets" : 0
				}

			}
, 			{
				"box" : 				{
					"maxclass" : "button",
					"outlettype" : [ "bang" ],
					"patching_rect" : [ 497.0, 377.0, 20.0, 20.0 ],
					"id" : "obj-92",
					"numinlets" : 1,
					"numoutlets" : 1
				}

			}
, 			{
				"box" : 				{
					"maxclass" : "button",
					"outlettype" : [ "bang" ],
					"patching_rect" : [ 549.0, 377.0, 20.0, 20.0 ],
					"id" : "obj-93",
					"numinlets" : 1,
					"numoutlets" : 1
				}

			}
, 			{
				"box" : 				{
					"maxclass" : "toggle",
					"outlettype" : [ "int" ],
					"patching_rect" : [ 549.0, 319.0, 20.0, 20.0 ],
					"id" : "obj-94",
					"numinlets" : 1,
					"numoutlets" : 1
				}

			}
, 			{
				"box" : 				{
					"maxclass" : "newobj",
					"text" : "r cond9",
					"outlettype" : [ "" ],
					"fontname" : "Arial",
					"patching_rect" : [ 491.0, 319.0, 51.0, 20.0 ],
					"id" : "obj-95",
					"numinlets" : 0,
					"fontsize" : 12.0,
					"numoutlets" : 1
				}

			}
, 			{
				"box" : 				{
					"maxclass" : "gswitch2",
					"outlettype" : [ "", "" ],
					"patching_rect" : [ 471.0, 349.0, 97.0, 23.0 ],
					"id" : "obj-96",
					"numinlets" : 2,
					"numoutlets" : 2
				}

			}
, 			{
				"box" : 				{
					"maxclass" : "newobj",
					"text" : "s c7bang",
					"fontname" : "Arial",
					"patching_rect" : [ 405.0, 405.0, 59.0, 20.0 ],
					"id" : "obj-46",
					"numinlets" : 1,
					"fontsize" : 12.0,
					"numoutlets" : 0
				}

			}
, 			{
				"box" : 				{
					"maxclass" : "comment",
					"text" : "on",
					"fontname" : "Arial",
					"patching_rect" : [ 418.0, 377.0, 22.0, 20.0 ],
					"id" : "obj-47",
					"numinlets" : 1,
					"fontsize" : 12.0,
					"numoutlets" : 0
				}

			}
, 			{
				"box" : 				{
					"maxclass" : "comment",
					"text" : "off",
					"fontname" : "Arial",
					"patching_rect" : [ 366.0, 377.0, 22.0, 20.0 ],
					"id" : "obj-48",
					"numinlets" : 1,
					"fontsize" : 12.0,
					"numoutlets" : 0
				}

			}
, 			{
				"box" : 				{
					"maxclass" : "button",
					"outlettype" : [ "bang" ],
					"patching_rect" : [ 390.0, 377.0, 20.0, 20.0 ],
					"id" : "obj-49",
					"numinlets" : 1,
					"numoutlets" : 1
				}

			}
, 			{
				"box" : 				{
					"maxclass" : "button",
					"outlettype" : [ "bang" ],
					"patching_rect" : [ 442.0, 377.0, 20.0, 20.0 ],
					"id" : "obj-50",
					"numinlets" : 1,
					"numoutlets" : 1
				}

			}
, 			{
				"box" : 				{
					"maxclass" : "toggle",
					"outlettype" : [ "int" ],
					"patching_rect" : [ 442.0, 319.0, 20.0, 20.0 ],
					"id" : "obj-51",
					"numinlets" : 1,
					"numoutlets" : 1
				}

			}
, 			{
				"box" : 				{
					"maxclass" : "newobj",
					"text" : "r cond7",
					"outlettype" : [ "" ],
					"fontname" : "Arial",
					"patching_rect" : [ 384.0, 319.0, 51.0, 20.0 ],
					"id" : "obj-52",
					"numinlets" : 0,
					"fontsize" : 12.0,
					"numoutlets" : 1
				}

			}
, 			{
				"box" : 				{
					"maxclass" : "gswitch2",
					"outlettype" : [ "", "" ],
					"patching_rect" : [ 364.0, 349.0, 97.0, 23.0 ],
					"id" : "obj-53",
					"numinlets" : 2,
					"numoutlets" : 2
				}

			}
, 			{
				"box" : 				{
					"maxclass" : "newobj",
					"text" : "s c5bang",
					"fontname" : "Arial",
					"patching_rect" : [ 294.0, 406.0, 59.0, 20.0 ],
					"id" : "obj-54",
					"numinlets" : 1,
					"fontsize" : 12.0,
					"numoutlets" : 0
				}

			}
, 			{
				"box" : 				{
					"maxclass" : "comment",
					"text" : "on",
					"fontname" : "Arial",
					"patching_rect" : [ 312.0, 377.0, 22.0, 20.0 ],
					"id" : "obj-55",
					"numinlets" : 1,
					"fontsize" : 12.0,
					"numoutlets" : 0
				}

			}
, 			{
				"box" : 				{
					"maxclass" : "comment",
					"text" : "off",
					"fontname" : "Arial",
					"patching_rect" : [ 260.0, 377.0, 22.0, 20.0 ],
					"id" : "obj-56",
					"numinlets" : 1,
					"fontsize" : 12.0,
					"numoutlets" : 0
				}

			}
, 			{
				"box" : 				{
					"maxclass" : "button",
					"outlettype" : [ "bang" ],
					"patching_rect" : [ 284.0, 377.0, 20.0, 20.0 ],
					"id" : "obj-57",
					"numinlets" : 1,
					"numoutlets" : 1
				}

			}
, 			{
				"box" : 				{
					"maxclass" : "button",
					"outlettype" : [ "bang" ],
					"patching_rect" : [ 336.0, 377.0, 20.0, 20.0 ],
					"id" : "obj-58",
					"numinlets" : 1,
					"numoutlets" : 1
				}

			}
, 			{
				"box" : 				{
					"maxclass" : "toggle",
					"outlettype" : [ "int" ],
					"patching_rect" : [ 336.0, 319.0, 20.0, 20.0 ],
					"id" : "obj-59",
					"numinlets" : 1,
					"numoutlets" : 1
				}

			}
, 			{
				"box" : 				{
					"maxclass" : "newobj",
					"text" : "r cond5",
					"outlettype" : [ "" ],
					"fontname" : "Arial",
					"patching_rect" : [ 278.0, 319.0, 51.0, 20.0 ],
					"id" : "obj-60",
					"numinlets" : 0,
					"fontsize" : 12.0,
					"numoutlets" : 1
				}

			}
, 			{
				"box" : 				{
					"maxclass" : "gswitch2",
					"outlettype" : [ "", "" ],
					"patching_rect" : [ 258.0, 349.0, 97.0, 23.0 ],
					"id" : "obj-61",
					"numinlets" : 2,
					"numoutlets" : 2
				}

			}
, 			{
				"box" : 				{
					"maxclass" : "newobj",
					"text" : "s c3bang",
					"fontname" : "Arial",
					"patching_rect" : [ 190.0, 406.0, 59.0, 20.0 ],
					"id" : "obj-36",
					"numinlets" : 1,
					"fontsize" : 12.0,
					"numoutlets" : 0
				}

			}
, 			{
				"box" : 				{
					"maxclass" : "comment",
					"text" : "on",
					"fontname" : "Arial",
					"patching_rect" : [ 205.0, 377.0, 22.0, 20.0 ],
					"id" : "obj-39",
					"numinlets" : 1,
					"fontsize" : 12.0,
					"numoutlets" : 0
				}

			}
, 			{
				"box" : 				{
					"maxclass" : "comment",
					"text" : "off",
					"fontname" : "Arial",
					"patching_rect" : [ 153.0, 377.0, 22.0, 20.0 ],
					"id" : "obj-40",
					"numinlets" : 1,
					"fontsize" : 12.0,
					"numoutlets" : 0
				}

			}
, 			{
				"box" : 				{
					"maxclass" : "button",
					"outlettype" : [ "bang" ],
					"patching_rect" : [ 177.0, 377.0, 20.0, 20.0 ],
					"id" : "obj-41",
					"numinlets" : 1,
					"numoutlets" : 1
				}

			}
, 			{
				"box" : 				{
					"maxclass" : "button",
					"outlettype" : [ "bang" ],
					"patching_rect" : [ 229.0, 377.0, 20.0, 20.0 ],
					"id" : "obj-42",
					"numinlets" : 1,
					"numoutlets" : 1
				}

			}
, 			{
				"box" : 				{
					"maxclass" : "toggle",
					"outlettype" : [ "int" ],
					"patching_rect" : [ 229.0, 319.0, 20.0, 20.0 ],
					"id" : "obj-43",
					"numinlets" : 1,
					"numoutlets" : 1
				}

			}
, 			{
				"box" : 				{
					"maxclass" : "newobj",
					"text" : "r cond3",
					"outlettype" : [ "" ],
					"fontname" : "Arial",
					"patching_rect" : [ 171.0, 319.0, 51.0, 20.0 ],
					"id" : "obj-44",
					"numinlets" : 0,
					"fontsize" : 12.0,
					"numoutlets" : 1
				}

			}
, 			{
				"box" : 				{
					"maxclass" : "gswitch2",
					"outlettype" : [ "", "" ],
					"patching_rect" : [ 151.0, 349.0, 97.0, 23.0 ],
					"id" : "obj-45",
					"numinlets" : 2,
					"numoutlets" : 2
				}

			}
, 			{
				"box" : 				{
					"maxclass" : "newobj",
					"text" : "s c1bang",
					"fontname" : "Arial",
					"patching_rect" : [ 85.0, 405.0, 59.0, 20.0 ],
					"id" : "obj-34",
					"numinlets" : 1,
					"fontsize" : 12.0,
					"numoutlets" : 0
				}

			}
, 			{
				"box" : 				{
					"maxclass" : "comment",
					"text" : "on",
					"fontname" : "Arial",
					"patching_rect" : [ 99.0, 377.0, 22.0, 20.0 ],
					"id" : "obj-31",
					"numinlets" : 1,
					"fontsize" : 12.0,
					"numoutlets" : 0
				}

			}
, 			{
				"box" : 				{
					"maxclass" : "comment",
					"text" : "off",
					"fontname" : "Arial",
					"patching_rect" : [ 47.0, 377.0, 22.0, 20.0 ],
					"id" : "obj-28",
					"numinlets" : 1,
					"fontsize" : 12.0,
					"numoutlets" : 0
				}

			}
, 			{
				"box" : 				{
					"maxclass" : "button",
					"outlettype" : [ "bang" ],
					"patching_rect" : [ 71.0, 377.0, 20.0, 20.0 ],
					"id" : "obj-27",
					"numinlets" : 1,
					"numoutlets" : 1
				}

			}
, 			{
				"box" : 				{
					"maxclass" : "button",
					"outlettype" : [ "bang" ],
					"patching_rect" : [ 123.0, 377.0, 20.0, 20.0 ],
					"id" : "obj-26",
					"numinlets" : 1,
					"numoutlets" : 1
				}

			}
, 			{
				"box" : 				{
					"maxclass" : "button",
					"outlettype" : [ "bang" ],
					"patching_rect" : [ 11.0, 287.0, 20.0, 20.0 ],
					"id" : "obj-25",
					"numinlets" : 1,
					"numoutlets" : 1
				}

			}
, 			{
				"box" : 				{
					"maxclass" : "toggle",
					"outlettype" : [ "int" ],
					"patching_rect" : [ 123.0, 319.0, 20.0, 20.0 ],
					"id" : "obj-18",
					"numinlets" : 1,
					"numoutlets" : 1
				}

			}
, 			{
				"box" : 				{
					"maxclass" : "newobj",
					"text" : "r cond1",
					"outlettype" : [ "" ],
					"fontname" : "Arial",
					"patching_rect" : [ 65.0, 319.0, 51.0, 20.0 ],
					"id" : "obj-19",
					"numinlets" : 0,
					"fontsize" : 12.0,
					"numoutlets" : 1
				}

			}
, 			{
				"box" : 				{
					"maxclass" : "gswitch2",
					"outlettype" : [ "", "" ],
					"patching_rect" : [ 45.0, 349.0, 97.0, 23.0 ],
					"id" : "obj-16",
					"numinlets" : 2,
					"numoutlets" : 2
				}

			}
 ],
		"lines" : [ 			{
				"patchline" : 				{
					"source" : [ "obj-5", 0 ],
					"destination" : [ "obj-337", 0 ],
					"hidden" : 0,
					"midpoints" : [ 70.5, 89.0, 126.5, 89.0 ]
				}

			}
, 			{
				"patchline" : 				{
					"source" : [ "obj-274", 0 ],
					"destination" : [ "obj-5", 1 ],
					"hidden" : 0,
					"midpoints" : [  ]
				}

			}
, 			{
				"patchline" : 				{
					"source" : [ "obj-276", 0 ],
					"destination" : [ "obj-5", 0 ],
					"hidden" : 0,
					"midpoints" : [  ]
				}

			}
, 			{
				"patchline" : 				{
					"source" : [ "obj-289", 0 ],
					"destination" : [ "obj-291", 0 ],
					"hidden" : 0,
					"midpoints" : [  ]
				}

			}
, 			{
				"patchline" : 				{
					"source" : [ "obj-287", 0 ],
					"destination" : [ "obj-291", 1 ],
					"hidden" : 0,
					"midpoints" : [ 332.5, 65.0, 326.5, 65.0 ]
				}

			}
, 			{
				"patchline" : 				{
					"source" : [ "obj-291", 0 ],
					"destination" : [ "obj-336", 0 ],
					"hidden" : 0,
					"midpoints" : [ 243.5, 89.0, 318.5, 89.0 ]
				}

			}
, 			{
				"patchline" : 				{
					"source" : [ "obj-101", 0 ],
					"destination" : [ "obj-20", 0 ],
					"hidden" : 0,
					"midpoints" : [ 874.5, 552.0, 837.5, 552.0 ]
				}

			}
, 			{
				"patchline" : 				{
					"source" : [ "obj-109", 0 ],
					"destination" : [ "obj-105", 0 ],
					"hidden" : 0,
					"midpoints" : [ 768.5, 552.0, 728.5, 552.0 ]
				}

			}
, 			{
				"patchline" : 				{
					"source" : [ "obj-118", 0 ],
					"destination" : [ "obj-114", 0 ],
					"hidden" : 0,
					"midpoints" : [ 661.5, 552.0, 622.5, 552.0 ]
				}

			}
, 			{
				"patchline" : 				{
					"source" : [ "obj-133", 0 ],
					"destination" : [ "obj-129", 0 ],
					"hidden" : 0,
					"midpoints" : [ 555.5, 552.0, 517.5, 552.0 ]
				}

			}
, 			{
				"patchline" : 				{
					"source" : [ "obj-142", 0 ],
					"destination" : [ "obj-138", 0 ],
					"hidden" : 0,
					"midpoints" : [ 448.5, 552.0, 411.5, 552.0 ]
				}

			}
, 			{
				"patchline" : 				{
					"source" : [ "obj-160", 0 ],
					"destination" : [ "obj-153", 0 ],
					"hidden" : 0,
					"midpoints" : [ 342.5, 552.0, 301.5, 552.0 ]
				}

			}
, 			{
				"patchline" : 				{
					"source" : [ "obj-171", 0 ],
					"destination" : [ "obj-167", 0 ],
					"hidden" : 0,
					"midpoints" : [ 235.5, 552.0, 196.5, 552.0 ]
				}

			}
, 			{
				"patchline" : 				{
					"source" : [ "obj-179", 0 ],
					"destination" : [ "obj-175", 0 ],
					"hidden" : 0,
					"midpoints" : [ 129.5, 552.0, 91.5, 552.0 ]
				}

			}
, 			{
				"patchline" : 				{
					"source" : [ "obj-66", 0 ],
					"destination" : [ "obj-62", 0 ],
					"hidden" : 0,
					"midpoints" : [ 877.5, 402.0, 840.5, 402.0 ]
				}

			}
, 			{
				"patchline" : 				{
					"source" : [ "obj-74", 0 ],
					"destination" : [ "obj-70", 0 ],
					"hidden" : 0,
					"midpoints" : [ 771.5, 402.0, 730.5, 402.0 ]
				}

			}
, 			{
				"patchline" : 				{
					"source" : [ "obj-83", 0 ],
					"destination" : [ "obj-78", 0 ],
					"hidden" : 0,
					"midpoints" : [ 664.5, 402.0, 625.5, 402.0 ]
				}

			}
, 			{
				"patchline" : 				{
					"source" : [ "obj-93", 0 ],
					"destination" : [ "obj-89", 0 ],
					"hidden" : 0,
					"midpoints" : [ 558.5, 402.0, 520.5, 402.0 ]
				}

			}
, 			{
				"patchline" : 				{
					"source" : [ "obj-50", 0 ],
					"destination" : [ "obj-46", 0 ],
					"hidden" : 0,
					"midpoints" : [ 451.5, 402.0, 414.5, 402.0 ]
				}

			}
, 			{
				"patchline" : 				{
					"source" : [ "obj-58", 0 ],
					"destination" : [ "obj-54", 0 ],
					"hidden" : 0,
					"midpoints" : [ 345.5, 402.0, 303.5, 402.0 ]
				}

			}
, 			{
				"patchline" : 				{
					"source" : [ "obj-42", 0 ],
					"destination" : [ "obj-36", 0 ],
					"hidden" : 0,
					"midpoints" : [ 238.5, 402.0, 199.5, 402.0 ]
				}

			}
, 			{
				"patchline" : 				{
					"source" : [ "obj-26", 0 ],
					"destination" : [ "obj-34", 0 ],
					"hidden" : 0,
					"midpoints" : [ 132.5, 402.0, 94.5, 402.0 ]
				}

			}
, 			{
				"patchline" : 				{
					"source" : [ "obj-341", 0 ],
					"destination" : [ "obj-310", 0 ],
					"hidden" : 0,
					"midpoints" : [ 706.5, 235.0, 696.0, 235.0, 696.0, 212.0, 634.5, 212.0 ]
				}

			}
, 			{
				"patchline" : 				{
					"source" : [ "obj-315", 0 ],
					"destination" : [ "obj-341", 0 ],
					"hidden" : 0,
					"midpoints" : [ 634.5, 209.0, 706.5, 209.0 ]
				}

			}
, 			{
				"patchline" : 				{
					"source" : [ "obj-340", 0 ],
					"destination" : [ "obj-304", 0 ],
					"hidden" : 0,
					"midpoints" : [ 503.5, 234.0, 491.0, 234.0, 491.0, 211.0, 427.5, 211.0 ]
				}

			}
, 			{
				"patchline" : 				{
					"source" : [ "obj-309", 0 ],
					"destination" : [ "obj-340", 0 ],
					"hidden" : 0,
					"midpoints" : [ 428.5, 208.0, 503.5, 208.0 ]
				}

			}
, 			{
				"patchline" : 				{
					"source" : [ "obj-339", 0 ],
					"destination" : [ "obj-292", 0 ],
					"hidden" : 0,
					"midpoints" : [ 318.5, 230.0, 308.0, 230.0, 308.0, 206.0, 243.5, 206.0 ]
				}

			}
, 			{
				"patchline" : 				{
					"source" : [ "obj-297", 0 ],
					"destination" : [ "obj-339", 0 ],
					"hidden" : 0,
					"midpoints" : [ 243.5, 204.0, 318.5, 204.0 ]
				}

			}
, 			{
				"patchline" : 				{
					"source" : [ "obj-338", 0 ],
					"destination" : [ "obj-280", 0 ],
					"hidden" : 0,
					"midpoints" : [ 130.5, 222.0, 121.0, 222.0, 121.0, 199.0, 58.5, 199.0 ]
				}

			}
, 			{
				"patchline" : 				{
					"source" : [ "obj-285", 0 ],
					"destination" : [ "obj-338", 0 ],
					"hidden" : 0,
					"midpoints" : [ 58.5, 196.0, 130.5, 196.0 ]
				}

			}
, 			{
				"patchline" : 				{
					"source" : [ "obj-337", 0 ],
					"destination" : [ "obj-279", 0 ],
					"hidden" : 0,
					"midpoints" : [ 126.5, 132.0, 119.0, 132.0, 119.0, 98.0, 55.5, 98.0 ]
				}

			}
, 			{
				"patchline" : 				{
					"source" : [ "obj-335", 0 ],
					"destination" : [ "obj-298", 0 ],
					"hidden" : 0,
					"midpoints" : [ 503.5, 118.0, 492.0, 118.0, 492.0, 94.0, 430.5, 94.0 ]
				}

			}
, 			{
				"patchline" : 				{
					"source" : [ "obj-303", 0 ],
					"destination" : [ "obj-335", 0 ],
					"hidden" : 0,
					"midpoints" : [ 428.5, 93.0, 503.5, 93.0 ]
				}

			}
, 			{
				"patchline" : 				{
					"source" : [ "obj-336", 0 ],
					"destination" : [ "obj-286", 0 ],
					"hidden" : 0,
					"midpoints" : [ 318.5, 114.0, 306.0, 114.0, 306.0, 91.0, 243.5, 91.0 ]
				}

			}
, 			{
				"patchline" : 				{
					"source" : [ "obj-334", 0 ],
					"destination" : [ "obj-316", 0 ],
					"hidden" : 0,
					"midpoints" : [ 706.5, 119.0, 696.0, 119.0, 696.0, 97.0, 633.5, 97.0 ]
				}

			}
, 			{
				"patchline" : 				{
					"source" : [ "obj-321", 0 ],
					"destination" : [ "obj-334", 0 ],
					"hidden" : 0,
					"midpoints" : [ 634.5, 93.0, 706.5, 93.0 ]
				}

			}
, 			{
				"patchline" : 				{
					"source" : [ "obj-330", 0 ],
					"destination" : [ "obj-25", 0 ],
					"hidden" : 0,
					"midpoints" : [ 576.5, 281.0, 20.5, 281.0 ]
				}

			}
, 			{
				"patchline" : 				{
					"source" : [ "obj-331", 0 ],
					"destination" : [ "obj-25", 0 ],
					"hidden" : 0,
					"midpoints" : [ 498.5, 282.0, 20.5, 282.0 ]
				}

			}
, 			{
				"patchline" : 				{
					"source" : [ "obj-332", 0 ],
					"destination" : [ "obj-25", 0 ],
					"hidden" : 0,
					"midpoints" : [ 422.5, 282.0, 20.5, 282.0 ]
				}

			}
, 			{
				"patchline" : 				{
					"source" : [ "obj-333", 0 ],
					"destination" : [ "obj-25", 0 ],
					"hidden" : 0,
					"midpoints" : [ 349.5, 281.0, 20.5, 281.0 ]
				}

			}
, 			{
				"patchline" : 				{
					"source" : [ "obj-322", 0 ],
					"destination" : [ "obj-25", 0 ],
					"hidden" : 0,
					"midpoints" : [ 278.5, 280.0, 20.5, 280.0 ]
				}

			}
, 			{
				"patchline" : 				{
					"source" : [ "obj-323", 0 ],
					"destination" : [ "obj-25", 0 ],
					"hidden" : 0,
					"midpoints" : [ 204.5, 280.0, 20.5, 280.0 ]
				}

			}
, 			{
				"patchline" : 				{
					"source" : [ "obj-324", 0 ],
					"destination" : [ "obj-25", 0 ],
					"hidden" : 0,
					"midpoints" : [ 127.5, 281.0, 20.5, 281.0 ]
				}

			}
, 			{
				"patchline" : 				{
					"source" : [ "obj-325", 0 ],
					"destination" : [ "obj-25", 0 ],
					"hidden" : 0,
					"midpoints" : [  ]
				}

			}
, 			{
				"patchline" : 				{
					"source" : [ "obj-314", 0 ],
					"destination" : [ "obj-313", 0 ],
					"hidden" : 0,
					"midpoints" : [  ]
				}

			}
, 			{
				"patchline" : 				{
					"source" : [ "obj-308", 0 ],
					"destination" : [ "obj-307", 0 ],
					"hidden" : 0,
					"midpoints" : [  ]
				}

			}
, 			{
				"patchline" : 				{
					"source" : [ "obj-296", 0 ],
					"destination" : [ "obj-295", 0 ],
					"hidden" : 0,
					"midpoints" : [  ]
				}

			}
, 			{
				"patchline" : 				{
					"source" : [ "obj-284", 0 ],
					"destination" : [ "obj-283", 0 ],
					"hidden" : 0,
					"midpoints" : [  ]
				}

			}
, 			{
				"patchline" : 				{
					"source" : [ "obj-320", 0 ],
					"destination" : [ "obj-319", 0 ],
					"hidden" : 0,
					"midpoints" : [  ]
				}

			}
, 			{
				"patchline" : 				{
					"source" : [ "obj-302", 0 ],
					"destination" : [ "obj-301", 0 ],
					"hidden" : 0,
					"midpoints" : [  ]
				}

			}
, 			{
				"patchline" : 				{
					"source" : [ "obj-290", 0 ],
					"destination" : [ "obj-289", 0 ],
					"hidden" : 0,
					"midpoints" : [  ]
				}

			}
, 			{
				"patchline" : 				{
					"source" : [ "obj-319", 0 ],
					"destination" : [ "obj-321", 0 ],
					"hidden" : 0,
					"midpoints" : [  ]
				}

			}
, 			{
				"patchline" : 				{
					"source" : [ "obj-317", 0 ],
					"destination" : [ "obj-321", 1 ],
					"hidden" : 0,
					"midpoints" : [ 723.5, 70.0, 717.5, 70.0 ]
				}

			}
, 			{
				"patchline" : 				{
					"source" : [ "obj-318", 0 ],
					"destination" : [ "obj-317", 0 ],
					"hidden" : 0,
					"midpoints" : [  ]
				}

			}
, 			{
				"patchline" : 				{
					"source" : [ "obj-312", 0 ],
					"destination" : [ "obj-311", 0 ],
					"hidden" : 0,
					"midpoints" : [  ]
				}

			}
, 			{
				"patchline" : 				{
					"source" : [ "obj-311", 0 ],
					"destination" : [ "obj-315", 1 ],
					"hidden" : 0,
					"midpoints" : [ 723.5, 185.0, 717.5, 185.0 ]
				}

			}
, 			{
				"patchline" : 				{
					"source" : [ "obj-313", 0 ],
					"destination" : [ "obj-315", 0 ],
					"hidden" : 0,
					"midpoints" : [  ]
				}

			}
, 			{
				"patchline" : 				{
					"source" : [ "obj-307", 0 ],
					"destination" : [ "obj-309", 0 ],
					"hidden" : 0,
					"midpoints" : [  ]
				}

			}
, 			{
				"patchline" : 				{
					"source" : [ "obj-305", 0 ],
					"destination" : [ "obj-309", 1 ],
					"hidden" : 0,
					"midpoints" : [ 517.5, 184.0, 511.5, 184.0 ]
				}

			}
, 			{
				"patchline" : 				{
					"source" : [ "obj-306", 0 ],
					"destination" : [ "obj-305", 0 ],
					"hidden" : 0,
					"midpoints" : [  ]
				}

			}
, 			{
				"patchline" : 				{
					"source" : [ "obj-300", 0 ],
					"destination" : [ "obj-299", 0 ],
					"hidden" : 0,
					"midpoints" : [  ]
				}

			}
, 			{
				"patchline" : 				{
					"source" : [ "obj-299", 0 ],
					"destination" : [ "obj-303", 1 ],
					"hidden" : 0,
					"midpoints" : [ 517.5, 69.0, 511.5, 69.0 ]
				}

			}
, 			{
				"patchline" : 				{
					"source" : [ "obj-301", 0 ],
					"destination" : [ "obj-303", 0 ],
					"hidden" : 0,
					"midpoints" : [  ]
				}

			}
, 			{
				"patchline" : 				{
					"source" : [ "obj-295", 0 ],
					"destination" : [ "obj-297", 0 ],
					"hidden" : 0,
					"midpoints" : [  ]
				}

			}
, 			{
				"patchline" : 				{
					"source" : [ "obj-293", 0 ],
					"destination" : [ "obj-297", 1 ],
					"hidden" : 0,
					"midpoints" : [ 332.5, 180.0, 326.5, 180.0 ]
				}

			}
, 			{
				"patchline" : 				{
					"source" : [ "obj-294", 0 ],
					"destination" : [ "obj-293", 0 ],
					"hidden" : 0,
					"midpoints" : [  ]
				}

			}
, 			{
				"patchline" : 				{
					"source" : [ "obj-288", 0 ],
					"destination" : [ "obj-287", 0 ],
					"hidden" : 0,
					"midpoints" : [  ]
				}

			}
, 			{
				"patchline" : 				{
					"source" : [ "obj-283", 0 ],
					"destination" : [ "obj-285", 0 ],
					"hidden" : 0,
					"midpoints" : [  ]
				}

			}
, 			{
				"patchline" : 				{
					"source" : [ "obj-281", 0 ],
					"destination" : [ "obj-285", 1 ],
					"hidden" : 0,
					"midpoints" : [ 147.5, 173.0, 141.5, 173.0 ]
				}

			}
, 			{
				"patchline" : 				{
					"source" : [ "obj-282", 0 ],
					"destination" : [ "obj-281", 0 ],
					"hidden" : 0,
					"midpoints" : [  ]
				}

			}
, 			{
				"patchline" : 				{
					"source" : [ "obj-275", 0 ],
					"destination" : [ "obj-274", 0 ],
					"hidden" : 0,
					"midpoints" : [  ]
				}

			}
, 			{
				"patchline" : 				{
					"source" : [ "obj-277", 0 ],
					"destination" : [ "obj-276", 0 ],
					"hidden" : 0,
					"midpoints" : [  ]
				}

			}
, 			{
				"patchline" : 				{
					"source" : [ "obj-68", 0 ],
					"destination" : [ "obj-67", 0 ],
					"hidden" : 0,
					"midpoints" : [ 814.5, 341.0, 864.0, 341.0, 864.0, 317.0, 877.5, 317.0 ]
				}

			}
, 			{
				"patchline" : 				{
					"source" : [ "obj-76", 0 ],
					"destination" : [ "obj-75", 0 ],
					"hidden" : 0,
					"midpoints" : [ 709.5, 341.0, 758.0, 341.0, 758.0, 317.0, 771.5, 317.0 ]
				}

			}
, 			{
				"patchline" : 				{
					"source" : [ "obj-87", 0 ],
					"destination" : [ "obj-84", 0 ],
					"hidden" : 0,
					"midpoints" : [ 602.5, 341.0, 651.0, 341.0, 651.0, 317.0, 664.5, 317.0 ]
				}

			}
, 			{
				"patchline" : 				{
					"source" : [ "obj-95", 0 ],
					"destination" : [ "obj-94", 0 ],
					"hidden" : 0,
					"midpoints" : [ 500.5, 341.0, 545.0, 341.0, 545.0, 317.0, 558.5, 317.0 ]
				}

			}
, 			{
				"patchline" : 				{
					"source" : [ "obj-25", 0 ],
					"destination" : [ "obj-69", 1 ],
					"hidden" : 0,
					"midpoints" : [ 20.5, 315.0, 801.0, 315.0, 801.0, 345.0, 877.5, 345.0 ]
				}

			}
, 			{
				"patchline" : 				{
					"source" : [ "obj-25", 0 ],
					"destination" : [ "obj-77", 1 ],
					"hidden" : 0,
					"midpoints" : [ 20.5, 314.0, 696.0, 314.0, 696.0, 346.0, 771.5, 346.0 ]
				}

			}
, 			{
				"patchline" : 				{
					"source" : [ "obj-25", 0 ],
					"destination" : [ "obj-88", 1 ],
					"hidden" : 0,
					"midpoints" : [ 20.5, 314.0, 584.0, 314.0, 584.0, 345.0, 664.5, 345.0 ]
				}

			}
, 			{
				"patchline" : 				{
					"source" : [ "obj-25", 0 ],
					"destination" : [ "obj-96", 1 ],
					"hidden" : 0,
					"midpoints" : [ 20.5, 316.0, 488.0, 316.0, 488.0, 345.0, 558.5, 345.0 ]
				}

			}
, 			{
				"patchline" : 				{
					"source" : [ "obj-25", 0 ],
					"destination" : [ "obj-53", 1 ],
					"hidden" : 0,
					"midpoints" : [ 20.5, 316.0, 379.0, 316.0, 379.0, 345.0, 451.5, 345.0 ]
				}

			}
, 			{
				"patchline" : 				{
					"source" : [ "obj-25", 0 ],
					"destination" : [ "obj-61", 1 ],
					"hidden" : 0,
					"midpoints" : [ 20.5, 315.0, 273.0, 315.0, 273.0, 342.0, 345.5, 342.0 ]
				}

			}
, 			{
				"patchline" : 				{
					"source" : [ "obj-96", 1 ],
					"destination" : [ "obj-93", 0 ],
					"hidden" : 0,
					"midpoints" : [  ]
				}

			}
, 			{
				"patchline" : 				{
					"source" : [ "obj-96", 0 ],
					"destination" : [ "obj-92", 0 ],
					"hidden" : 0,
					"midpoints" : [ 480.5, 374.0, 506.5, 374.0 ]
				}

			}
, 			{
				"patchline" : 				{
					"source" : [ "obj-94", 0 ],
					"destination" : [ "obj-96", 0 ],
					"hidden" : 0,
					"midpoints" : [ 558.5, 345.0, 480.5, 345.0 ]
				}

			}
, 			{
				"patchline" : 				{
					"source" : [ "obj-84", 0 ],
					"destination" : [ "obj-88", 0 ],
					"hidden" : 0,
					"midpoints" : [ 664.5, 345.0, 586.5, 345.0 ]
				}

			}
, 			{
				"patchline" : 				{
					"source" : [ "obj-88", 0 ],
					"destination" : [ "obj-82", 0 ],
					"hidden" : 0,
					"midpoints" : [ 586.5, 374.0, 612.5, 374.0 ]
				}

			}
, 			{
				"patchline" : 				{
					"source" : [ "obj-88", 1 ],
					"destination" : [ "obj-83", 0 ],
					"hidden" : 0,
					"midpoints" : [  ]
				}

			}
, 			{
				"patchline" : 				{
					"source" : [ "obj-69", 1 ],
					"destination" : [ "obj-66", 0 ],
					"hidden" : 0,
					"midpoints" : [  ]
				}

			}
, 			{
				"patchline" : 				{
					"source" : [ "obj-69", 0 ],
					"destination" : [ "obj-65", 0 ],
					"hidden" : 0,
					"midpoints" : [ 799.5, 374.0, 825.5, 374.0 ]
				}

			}
, 			{
				"patchline" : 				{
					"source" : [ "obj-67", 0 ],
					"destination" : [ "obj-69", 0 ],
					"hidden" : 0,
					"midpoints" : [ 877.5, 345.0, 799.5, 345.0 ]
				}

			}
, 			{
				"patchline" : 				{
					"source" : [ "obj-75", 0 ],
					"destination" : [ "obj-77", 0 ],
					"hidden" : 0,
					"midpoints" : [ 771.5, 345.0, 693.5, 345.0 ]
				}

			}
, 			{
				"patchline" : 				{
					"source" : [ "obj-77", 0 ],
					"destination" : [ "obj-73", 0 ],
					"hidden" : 0,
					"midpoints" : [ 693.5, 374.0, 719.5, 374.0 ]
				}

			}
, 			{
				"patchline" : 				{
					"source" : [ "obj-77", 1 ],
					"destination" : [ "obj-74", 0 ],
					"hidden" : 0,
					"midpoints" : [  ]
				}

			}
, 			{
				"patchline" : 				{
					"source" : [ "obj-52", 0 ],
					"destination" : [ "obj-51", 0 ],
					"hidden" : 0,
					"midpoints" : [ 393.5, 341.0, 438.0, 341.0, 438.0, 317.0, 451.5, 317.0 ]
				}

			}
, 			{
				"patchline" : 				{
					"source" : [ "obj-60", 0 ],
					"destination" : [ "obj-59", 0 ],
					"hidden" : 0,
					"midpoints" : [ 287.5, 341.0, 332.0, 341.0, 332.0, 317.0, 345.5, 317.0 ]
				}

			}
, 			{
				"patchline" : 				{
					"source" : [ "obj-44", 0 ],
					"destination" : [ "obj-43", 0 ],
					"hidden" : 0,
					"midpoints" : [ 180.5, 341.0, 225.0, 341.0, 225.0, 317.0, 238.5, 317.0 ]
				}

			}
, 			{
				"patchline" : 				{
					"source" : [ "obj-61", 1 ],
					"destination" : [ "obj-58", 0 ],
					"hidden" : 0,
					"midpoints" : [  ]
				}

			}
, 			{
				"patchline" : 				{
					"source" : [ "obj-61", 0 ],
					"destination" : [ "obj-57", 0 ],
					"hidden" : 0,
					"midpoints" : [ 267.5, 374.0, 293.5, 374.0 ]
				}

			}
, 			{
				"patchline" : 				{
					"source" : [ "obj-59", 0 ],
					"destination" : [ "obj-61", 0 ],
					"hidden" : 0,
					"midpoints" : [ 345.5, 345.0, 267.5, 345.0 ]
				}

			}
, 			{
				"patchline" : 				{
					"source" : [ "obj-51", 0 ],
					"destination" : [ "obj-53", 0 ],
					"hidden" : 0,
					"midpoints" : [ 451.5, 345.0, 373.5, 345.0 ]
				}

			}
, 			{
				"patchline" : 				{
					"source" : [ "obj-53", 0 ],
					"destination" : [ "obj-49", 0 ],
					"hidden" : 0,
					"midpoints" : [ 373.5, 374.0, 399.5, 374.0 ]
				}

			}
, 			{
				"patchline" : 				{
					"source" : [ "obj-53", 1 ],
					"destination" : [ "obj-50", 0 ],
					"hidden" : 0,
					"midpoints" : [  ]
				}

			}
, 			{
				"patchline" : 				{
					"source" : [ "obj-25", 0 ],
					"destination" : [ "obj-45", 1 ],
					"hidden" : 0,
					"midpoints" : [ 20.5, 315.0, 164.0, 315.0, 164.0, 342.0, 238.5, 342.0 ]
				}

			}
, 			{
				"patchline" : 				{
					"source" : [ "obj-45", 1 ],
					"destination" : [ "obj-42", 0 ],
					"hidden" : 0,
					"midpoints" : [  ]
				}

			}
, 			{
				"patchline" : 				{
					"source" : [ "obj-45", 0 ],
					"destination" : [ "obj-41", 0 ],
					"hidden" : 0,
					"midpoints" : [ 160.5, 374.0, 186.5, 374.0 ]
				}

			}
, 			{
				"patchline" : 				{
					"source" : [ "obj-43", 0 ],
					"destination" : [ "obj-45", 0 ],
					"hidden" : 0,
					"midpoints" : [ 238.5, 345.0, 160.5, 345.0 ]
				}

			}
, 			{
				"patchline" : 				{
					"source" : [ "obj-25", 0 ],
					"destination" : [ "obj-16", 1 ],
					"hidden" : 0,
					"midpoints" : [ 20.5, 343.0, 132.5, 343.0 ]
				}

			}
, 			{
				"patchline" : 				{
					"source" : [ "obj-18", 0 ],
					"destination" : [ "obj-16", 0 ],
					"hidden" : 0,
					"midpoints" : [ 132.5, 345.0, 54.5, 345.0 ]
				}

			}
, 			{
				"patchline" : 				{
					"source" : [ "obj-19", 0 ],
					"destination" : [ "obj-18", 0 ],
					"hidden" : 0,
					"midpoints" : [ 74.5, 341.0, 119.0, 341.0, 119.0, 317.0, 132.5, 317.0 ]
				}

			}
, 			{
				"patchline" : 				{
					"source" : [ "obj-16", 0 ],
					"destination" : [ "obj-27", 0 ],
					"hidden" : 0,
					"midpoints" : [ 54.5, 374.0, 80.5, 374.0 ]
				}

			}
, 			{
				"patchline" : 				{
					"source" : [ "obj-16", 1 ],
					"destination" : [ "obj-26", 0 ],
					"hidden" : 0,
					"midpoints" : [  ]
				}

			}
, 			{
				"patchline" : 				{
					"source" : [ "obj-182", 1 ],
					"destination" : [ "obj-179", 0 ],
					"hidden" : 0,
					"midpoints" : [  ]
				}

			}
, 			{
				"patchline" : 				{
					"source" : [ "obj-182", 0 ],
					"destination" : [ "obj-178", 0 ],
					"hidden" : 0,
					"midpoints" : [ 51.5, 524.0, 77.5, 524.0 ]
				}

			}
, 			{
				"patchline" : 				{
					"source" : [ "obj-180", 0 ],
					"destination" : [ "obj-182", 0 ],
					"hidden" : 0,
					"midpoints" : [ 129.5, 495.0, 51.5, 495.0 ]
				}

			}
, 			{
				"patchline" : 				{
					"source" : [ "obj-172", 0 ],
					"destination" : [ "obj-174", 0 ],
					"hidden" : 0,
					"midpoints" : [ 235.5, 495.0, 157.5, 495.0 ]
				}

			}
, 			{
				"patchline" : 				{
					"source" : [ "obj-174", 0 ],
					"destination" : [ "obj-170", 0 ],
					"hidden" : 0,
					"midpoints" : [ 157.5, 524.0, 183.5, 524.0 ]
				}

			}
, 			{
				"patchline" : 				{
					"source" : [ "obj-174", 1 ],
					"destination" : [ "obj-171", 0 ],
					"hidden" : 0,
					"midpoints" : [  ]
				}

			}
, 			{
				"patchline" : 				{
					"source" : [ "obj-147", 1 ],
					"destination" : [ "obj-142", 0 ],
					"hidden" : 0,
					"midpoints" : [  ]
				}

			}
, 			{
				"patchline" : 				{
					"source" : [ "obj-147", 0 ],
					"destination" : [ "obj-141", 0 ],
					"hidden" : 0,
					"midpoints" : [ 370.5, 524.0, 396.5, 524.0 ]
				}

			}
, 			{
				"patchline" : 				{
					"source" : [ "obj-143", 0 ],
					"destination" : [ "obj-147", 0 ],
					"hidden" : 0,
					"midpoints" : [ 448.5, 495.0, 370.5, 495.0 ]
				}

			}
, 			{
				"patchline" : 				{
					"source" : [ "obj-161", 0 ],
					"destination" : [ "obj-166", 0 ],
					"hidden" : 0,
					"midpoints" : [ 342.5, 495.0, 264.5, 495.0 ]
				}

			}
, 			{
				"patchline" : 				{
					"source" : [ "obj-166", 0 ],
					"destination" : [ "obj-159", 0 ],
					"hidden" : 0,
					"midpoints" : [ 264.5, 524.0, 290.5, 524.0 ]
				}

			}
, 			{
				"patchline" : 				{
					"source" : [ "obj-166", 1 ],
					"destination" : [ "obj-160", 0 ],
					"hidden" : 0,
					"midpoints" : [  ]
				}

			}
, 			{
				"patchline" : 				{
					"source" : [ "obj-113", 1 ],
					"destination" : [ "obj-109", 0 ],
					"hidden" : 0,
					"midpoints" : [  ]
				}

			}
, 			{
				"patchline" : 				{
					"source" : [ "obj-113", 0 ],
					"destination" : [ "obj-108", 0 ],
					"hidden" : 0,
					"midpoints" : [ 690.5, 524.0, 716.5, 524.0 ]
				}

			}
, 			{
				"patchline" : 				{
					"source" : [ "obj-110", 0 ],
					"destination" : [ "obj-113", 0 ],
					"hidden" : 0,
					"midpoints" : [ 768.5, 495.0, 690.5, 495.0 ]
				}

			}
, 			{
				"patchline" : 				{
					"source" : [ "obj-102", 0 ],
					"destination" : [ "obj-104", 0 ],
					"hidden" : 0,
					"midpoints" : [ 874.5, 495.0, 796.5, 495.0 ]
				}

			}
, 			{
				"patchline" : 				{
					"source" : [ "obj-104", 0 ],
					"destination" : [ "obj-100", 0 ],
					"hidden" : 0,
					"midpoints" : [ 796.5, 524.0, 822.5, 524.0 ]
				}

			}
, 			{
				"patchline" : 				{
					"source" : [ "obj-104", 1 ],
					"destination" : [ "obj-101", 0 ],
					"hidden" : 0,
					"midpoints" : [  ]
				}

			}
, 			{
				"patchline" : 				{
					"source" : [ "obj-126", 1 ],
					"destination" : [ "obj-118", 0 ],
					"hidden" : 0,
					"midpoints" : [  ]
				}

			}
, 			{
				"patchline" : 				{
					"source" : [ "obj-126", 0 ],
					"destination" : [ "obj-117", 0 ],
					"hidden" : 0,
					"midpoints" : [ 583.5, 524.0, 609.5, 524.0 ]
				}

			}
, 			{
				"patchline" : 				{
					"source" : [ "obj-121", 0 ],
					"destination" : [ "obj-126", 0 ],
					"hidden" : 0,
					"midpoints" : [ 661.5, 495.0, 583.5, 495.0 ]
				}

			}
, 			{
				"patchline" : 				{
					"source" : [ "obj-134", 0 ],
					"destination" : [ "obj-137", 0 ],
					"hidden" : 0,
					"midpoints" : [ 555.5, 495.0, 477.5, 495.0 ]
				}

			}
, 			{
				"patchline" : 				{
					"source" : [ "obj-137", 0 ],
					"destination" : [ "obj-132", 0 ],
					"hidden" : 0,
					"midpoints" : [ 477.5, 524.0, 503.5, 524.0 ]
				}

			}
, 			{
				"patchline" : 				{
					"source" : [ "obj-137", 1 ],
					"destination" : [ "obj-133", 0 ],
					"hidden" : 0,
					"midpoints" : [  ]
				}

			}
, 			{
				"patchline" : 				{
					"source" : [ "obj-181", 0 ],
					"destination" : [ "obj-180", 0 ],
					"hidden" : 0,
					"midpoints" : [ 71.5, 491.0, 116.0, 491.0, 116.0, 467.0, 129.5, 467.0 ]
				}

			}
, 			{
				"patchline" : 				{
					"source" : [ "obj-173", 0 ],
					"destination" : [ "obj-172", 0 ],
					"hidden" : 0,
					"midpoints" : [ 177.5, 491.0, 222.0, 491.0, 222.0, 467.0, 235.5, 467.0 ]
				}

			}
, 			{
				"patchline" : 				{
					"source" : [ "obj-165", 0 ],
					"destination" : [ "obj-161", 0 ],
					"hidden" : 0,
					"midpoints" : [ 284.5, 491.0, 329.0, 491.0, 329.0, 467.0, 342.5, 467.0 ]
				}

			}
, 			{
				"patchline" : 				{
					"source" : [ "obj-145", 0 ],
					"destination" : [ "obj-143", 0 ],
					"hidden" : 0,
					"midpoints" : [ 390.5, 491.0, 435.0, 491.0, 435.0, 467.0, 448.5, 467.0 ]
				}

			}
, 			{
				"patchline" : 				{
					"source" : [ "obj-135", 0 ],
					"destination" : [ "obj-134", 0 ],
					"hidden" : 0,
					"midpoints" : [ 491.5, 491.0, 542.0, 491.0, 542.0, 467.0, 555.5, 467.0 ]
				}

			}
, 			{
				"patchline" : 				{
					"source" : [ "obj-122", 0 ],
					"destination" : [ "obj-121", 0 ],
					"hidden" : 0,
					"midpoints" : [ 599.5, 491.0, 648.0, 491.0, 648.0, 467.0, 661.5, 467.0 ]
				}

			}
, 			{
				"patchline" : 				{
					"source" : [ "obj-112", 0 ],
					"destination" : [ "obj-110", 0 ],
					"hidden" : 0,
					"midpoints" : [ 706.5, 491.0, 755.0, 491.0, 755.0, 467.0, 768.5, 467.0 ]
				}

			}
, 			{
				"patchline" : 				{
					"source" : [ "obj-103", 0 ],
					"destination" : [ "obj-102", 0 ],
					"hidden" : 0,
					"midpoints" : [ 811.5, 491.0, 861.0, 491.0, 861.0, 467.0, 874.5, 467.0 ]
				}

			}
, 			{
				"patchline" : 				{
					"source" : [ "obj-25", 0 ],
					"destination" : [ "obj-182", 1 ],
					"hidden" : 0,
					"midpoints" : [ 20.5, 318.0, 40.0, 318.0, 40.0, 495.0, 129.5, 495.0 ]
				}

			}
, 			{
				"patchline" : 				{
					"source" : [ "obj-25", 0 ],
					"destination" : [ "obj-174", 1 ],
					"hidden" : 0,
					"midpoints" : [ 20.5, 322.0, 37.0, 322.0, 37.0, 462.0, 162.0, 462.0, 162.0, 494.0, 235.5, 494.0 ]
				}

			}
, 			{
				"patchline" : 				{
					"source" : [ "obj-25", 0 ],
					"destination" : [ "obj-166", 1 ],
					"hidden" : 0,
					"midpoints" : [ 20.5, 322.0, 38.0, 322.0, 38.0, 462.0, 271.0, 462.0, 271.0, 493.0, 342.5, 493.0 ]
				}

			}
, 			{
				"patchline" : 				{
					"source" : [ "obj-25", 0 ],
					"destination" : [ "obj-147", 1 ],
					"hidden" : 0,
					"midpoints" : [ 20.5, 323.0, 39.0, 323.0, 39.0, 462.0, 376.0, 462.0, 376.0, 494.0, 448.5, 494.0 ]
				}

			}
, 			{
				"patchline" : 				{
					"source" : [ "obj-25", 0 ],
					"destination" : [ "obj-137", 1 ],
					"hidden" : 0,
					"midpoints" : [ 20.5, 320.0, 41.0, 320.0, 41.0, 429.0, 41.0, 462.0, 477.0, 462.0, 477.0, 494.0, 555.5, 494.0 ]
				}

			}
, 			{
				"patchline" : 				{
					"source" : [ "obj-25", 0 ],
					"destination" : [ "obj-126", 1 ],
					"hidden" : 0,
					"midpoints" : [ 20.5, 317.0, 41.0, 317.0, 41.0, 463.0, 589.0, 463.0, 589.0, 494.0, 661.5, 494.0 ]
				}

			}
, 			{
				"patchline" : 				{
					"source" : [ "obj-25", 0 ],
					"destination" : [ "obj-113", 1 ],
					"hidden" : 0,
					"midpoints" : [ 20.5, 319.0, 37.0, 319.0, 37.0, 462.0, 695.0, 462.0, 695.0, 494.0, 768.5, 494.0 ]
				}

			}
, 			{
				"patchline" : 				{
					"source" : [ "obj-25", 0 ],
					"destination" : [ "obj-104", 1 ],
					"hidden" : 0,
					"midpoints" : [ 20.5, 321.0, 37.0, 321.0, 37.0, 462.0, 795.0, 462.0, 795.0, 493.0, 874.5, 493.0 ]
				}

			}
, 			{
				"patchline" : 				{
					"source" : [ "obj-337", 0 ],
					"destination" : [ "obj-1", 0 ],
					"hidden" : 0,
					"midpoints" : [ 126.5, 123.0, 790.5, 123.0 ]
				}

			}
, 			{
				"patchline" : 				{
					"source" : [ "obj-336", 0 ],
					"destination" : [ "obj-1", 0 ],
					"hidden" : 0,
					"midpoints" : [ 318.5, 122.0, 790.5, 122.0 ]
				}

			}
, 			{
				"patchline" : 				{
					"source" : [ "obj-335", 0 ],
					"destination" : [ "obj-1", 0 ],
					"hidden" : 0,
					"midpoints" : [ 503.5, 123.0, 790.5, 123.0 ]
				}

			}
, 			{
				"patchline" : 				{
					"source" : [ "obj-338", 0 ],
					"destination" : [ "obj-1", 0 ],
					"hidden" : 0,
					"midpoints" : [ 130.5, 233.0, 215.0, 233.0, 215.0, 122.0, 790.5, 122.0 ]
				}

			}
, 			{
				"patchline" : 				{
					"source" : [ "obj-339", 0 ],
					"destination" : [ "obj-1", 0 ],
					"hidden" : 0,
					"midpoints" : [ 318.5, 237.0, 408.0, 237.0, 408.0, 124.0, 790.5, 124.0 ]
				}

			}
, 			{
				"patchline" : 				{
					"source" : [ "obj-340", 0 ],
					"destination" : [ "obj-1", 0 ],
					"hidden" : 0,
					"midpoints" : [ 503.5, 237.0, 611.0, 237.0, 611.0, 123.0, 790.5, 123.0 ]
				}

			}
, 			{
				"patchline" : 				{
					"source" : [ "obj-341", 0 ],
					"destination" : [ "obj-1", 0 ],
					"hidden" : 0,
					"midpoints" : [ 706.5, 239.0, 774.0, 239.0, 774.0, 122.0, 790.5, 122.0 ]
				}

			}
 ]
	}

}
