{
	"patcher" : 	{
		"fileversion" : 1,
		"rect" : [ 473.0, 126.0, 640.0, 506.0 ],
		"bglocked" : 0,
		"defrect" : [ 473.0, 126.0, 640.0, 506.0 ],
		"openrect" : [ 0.0, 0.0, 0.0, 0.0 ],
		"openinpresentation" : 0,
		"default_fontsize" : 12.0,
		"default_fontface" : 0,
		"default_fontname" : "Arial",
		"gridonopen" : 0,
		"gridsize" : [ 15.0, 15.0 ],
		"gridsnaponopen" : 0,
		"toolbarvisible" : 1,
		"boxanimatetime" : 200,
		"imprint" : 0,
		"metadata" : [  ],
		"boxes" : [ 			{
				"box" : 				{
					"maxclass" : "newobj",
					"text" : "timer",
					"fontname" : "Arial",
					"patching_rect" : [ 337.0, 149.0, 37.0, 20.0 ],
					"id" : "obj-12",
					"numinlets" : 2,
					"fontsize" : 12.0,
					"numoutlets" : 2,
					"outlettype" : [ "float", "" ]
				}

			}
, 			{
				"box" : 				{
					"maxclass" : "newobj",
					"text" : "capture~",
					"fontname" : "Arial",
					"patching_rect" : [ 259.0, 150.0, 58.0, 20.0 ],
					"id" : "obj-11",
					"numinlets" : 1,
					"fontsize" : 12.0,
					"numoutlets" : 0
				}

			}
, 			{
				"box" : 				{
					"maxclass" : "newobj",
					"text" : "zl",
					"fontname" : "Arial",
					"patching_rect" : [ 419.0, 75.0, 32.5, 20.0 ],
					"id" : "obj-9",
					"numinlets" : 2,
					"fontsize" : 12.0,
					"numoutlets" : 2,
					"outlettype" : [ "", "" ]
				}

			}
, 			{
				"box" : 				{
					"maxclass" : "meter~",
					"patching_rect" : [ 181.0, 58.0, 80.0, 13.0 ],
					"id" : "obj-8",
					"numinlets" : 1,
					"numoutlets" : 1,
					"outlettype" : [ "float" ]
				}

			}
, 			{
				"box" : 				{
					"maxclass" : "newobj",
					"text" : "table",
					"fontname" : "Arial",
					"patching_rect" : [ 372.0, 75.0, 37.0, 20.0 ],
					"id" : "obj-7",
					"numinlets" : 2,
					"fontsize" : 12.0,
					"numoutlets" : 2,
					"outlettype" : [ "int", "bang" ],
					"showeditor" : 0,
					"editor_rect" : [ 100.0, 100.0, 300.0, 300.0 ],
					"saved_object_attributes" : 					{
						"range" : 128,
						"signed" : 0,
						"notename" : 0,
						"embed" : 0,
						"name" : "",
						"showeditor" : 0,
						"size" : 128
					}

				}

			}
, 			{
				"box" : 				{
					"maxclass" : "newobj",
					"text" : "snapshot~",
					"fontname" : "Arial",
					"patching_rect" : [ 299.0, 75.0, 66.0, 20.0 ],
					"id" : "obj-6",
					"numinlets" : 2,
					"fontsize" : 12.0,
					"numoutlets" : 1,
					"outlettype" : [ "float" ]
				}

			}
, 			{
				"box" : 				{
					"maxclass" : "newobj",
					"text" : "average~",
					"fontname" : "Arial",
					"patching_rect" : [ 210.0, 79.0, 61.0, 20.0 ],
					"id" : "obj-5",
					"numinlets" : 1,
					"fontsize" : 12.0,
					"numoutlets" : 1,
					"outlettype" : [ "signal" ]
				}

			}
, 			{
				"box" : 				{
					"maxclass" : "newobj",
					"text" : "r sigall",
					"fontname" : "Arial",
					"patching_rect" : [ 176.0, 28.0, 45.0, 20.0 ],
					"id" : "obj-4",
					"numinlets" : 0,
					"fontsize" : 12.0,
					"numoutlets" : 1,
					"outlettype" : [ "" ]
				}

			}
, 			{
				"box" : 				{
					"maxclass" : "newobj",
					"text" : "avg~",
					"fontname" : "Arial",
					"patching_rect" : [ 163.0, 79.0, 37.0, 20.0 ],
					"id" : "obj-3",
					"numinlets" : 1,
					"fontsize" : 12.0,
					"numoutlets" : 1,
					"outlettype" : [ "float" ]
				}

			}
, 			{
				"box" : 				{
					"maxclass" : "flonum",
					"fontname" : "Arial",
					"patching_rect" : [ 34.0, 78.0, 92.0, 20.0 ],
					"id" : "obj-2",
					"numinlets" : 1,
					"fontsize" : 12.0,
					"numoutlets" : 2,
					"outlettype" : [ "float", "bang" ]
				}

			}
, 			{
				"box" : 				{
					"maxclass" : "newobj",
					"text" : "r valall",
					"fontname" : "Arial",
					"patching_rect" : [ 34.0, 52.0, 45.0, 20.0 ],
					"id" : "obj-1",
					"numinlets" : 0,
					"fontsize" : 12.0,
					"numoutlets" : 1,
					"outlettype" : [ "" ]
				}

			}
 ],
		"lines" : [ 			{
				"patchline" : 				{
					"source" : [ "obj-4", 0 ],
					"destination" : [ "obj-3", 0 ],
					"hidden" : 0,
					"midpoints" : [  ]
				}

			}
, 			{
				"patchline" : 				{
					"source" : [ "obj-4", 0 ],
					"destination" : [ "obj-8", 0 ],
					"hidden" : 0,
					"midpoints" : [  ]
				}

			}
, 			{
				"patchline" : 				{
					"source" : [ "obj-1", 0 ],
					"destination" : [ "obj-2", 0 ],
					"hidden" : 0,
					"midpoints" : [  ]
				}

			}
 ]
	}

}
