{
	"patcher" : 	{
		"fileversion" : 1,
		"rect" : [ 739.0, 102.0, 541.0, 419.0 ],
		"bglocked" : 0,
		"defrect" : [ 739.0, 102.0, 541.0, 419.0 ],
		"openrect" : [ 0.0, 0.0, 0.0, 0.0 ],
		"openinpresentation" : 0,
		"default_fontsize" : 12.0,
		"default_fontface" : 0,
		"default_fontname" : "Arial",
		"gridonopen" : 0,
		"gridsize" : [ 15.0, 15.0 ],
		"gridsnaponopen" : 0,
		"toolbarvisible" : 1,
		"boxanimatetime" : 200,
		"imprint" : 0,
		"metadata" : [  ],
		"boxes" : [ 			{
				"box" : 				{
					"maxclass" : "message",
					"text" : "1",
					"numoutlets" : 1,
					"outlettype" : [ "" ],
					"fontname" : "Arial",
					"patching_rect" : [ 336.0, 111.0, 32.5, 18.0 ],
					"id" : "obj-11",
					"fontsize" : 12.0,
					"numinlets" : 2
				}

			}
, 			{
				"box" : 				{
					"maxclass" : "inlet",
					"numoutlets" : 1,
					"outlettype" : [ "" ],
					"patching_rect" : [ 384.0, 58.0, 25.0, 25.0 ],
					"id" : "obj-13",
					"numinlets" : 0,
					"comment" : ""
				}

			}
, 			{
				"box" : 				{
					"maxclass" : "number",
					"numoutlets" : 2,
					"outlettype" : [ "int", "bang" ],
					"fontname" : "Arial",
					"patching_rect" : [ 380.0, 118.0, 50.0, 20.0 ],
					"id" : "obj-12",
					"fontsize" : 12.0,
					"numinlets" : 1
				}

			}
, 			{
				"box" : 				{
					"maxclass" : "preset",
					"numoutlets" : 4,
					"outlettype" : [ "preset", "int", "preset", "int" ],
					"patching_rect" : [ 347.0, 146.0, 129.0, 43.0 ],
					"id" : "obj-3",
					"numinlets" : 1,
					"preset_data" : [ 						{
							"number" : 1,
							"data" : [ 4, "obj-201", "function", "clear", 7, "obj-201", "function", "add", 0.0, 0.0, 0, 7, "obj-201", "function", "add", 2401.129883, 0.72093, 0, 7, "obj-201", "function", "add", 3361.582031, 0.883721, 0, 7, "obj-201", "function", "add", 5762.711914, 1.0, 0, 7, "obj-201", "function", "add", 35056.496094, 1.0, 0, 7, "obj-201", "function", "add", 64830.507812, 0.790698, 0, 7, "obj-201", "function", "add", 77796.609375, 0.488372, 0, 7, "obj-201", "function", "add", 85000.0, 0.0, 0, 5, "obj-201", "function", "domain", 85000.0, 6, "obj-201", "function", "range", 0.0, 1.0 ]
						}
 ]
				}

			}
, 			{
				"box" : 				{
					"maxclass" : "inlet",
					"numoutlets" : 1,
					"outlettype" : [ "" ],
					"patching_rect" : [ 336.0, 48.0, 25.0, 25.0 ],
					"id" : "obj-1",
					"numinlets" : 0,
					"comment" : ""
				}

			}
, 			{
				"box" : 				{
					"maxclass" : "message",
					"text" : "85000",
					"numoutlets" : 1,
					"outlettype" : [ "" ],
					"fontname" : "Arial",
					"patching_rect" : [ 158.0, 33.0, 44.0, 18.0 ],
					"id" : "obj-10",
					"fontsize" : 12.0,
					"numinlets" : 2
				}

			}
, 			{
				"box" : 				{
					"maxclass" : "newobj",
					"text" : "loadbang",
					"numoutlets" : 1,
					"outlettype" : [ "bang" ],
					"fontname" : "Arial",
					"patching_rect" : [ 159.0, 9.0, 60.0, 20.0 ],
					"id" : "obj-9",
					"fontsize" : 12.0,
					"numinlets" : 1
				}

			}
, 			{
				"box" : 				{
					"maxclass" : "number",
					"numoutlets" : 2,
					"outlettype" : [ "int", "bang" ],
					"fontname" : "Arial",
					"patching_rect" : [ 161.0, 147.0, 50.0, 20.0 ],
					"id" : "obj-7",
					"fontsize" : 12.0,
					"numinlets" : 1
				}

			}
, 			{
				"box" : 				{
					"maxclass" : "newobj",
					"text" : "/ 1000",
					"numoutlets" : 1,
					"outlettype" : [ "int" ],
					"fontname" : "Arial",
					"patching_rect" : [ 161.0, 124.0, 44.0, 20.0 ],
					"id" : "obj-2",
					"fontsize" : 12.0,
					"numinlets" : 2
				}

			}
, 			{
				"box" : 				{
					"maxclass" : "number",
					"numoutlets" : 2,
					"minimum" : 10,
					"maximum" : 120000,
					"outlettype" : [ "int", "bang" ],
					"fontname" : "Arial",
					"patching_rect" : [ 153.0, 82.0, 59.0, 20.0 ],
					"id" : "obj-6",
					"fontsize" : 12.0,
					"numinlets" : 1
				}

			}
, 			{
				"box" : 				{
					"maxclass" : "multislider",
					"numoutlets" : 2,
					"slidercolor" : [ 1.0, 0.003922, 0.003922, 1.0 ],
					"outlettype" : [ "", "" ],
					"patching_rect" : [ 153.0, 59.0, 130.0, 19.0 ],
					"id" : "obj-8",
					"orientation" : 0,
					"numinlets" : 1,
					"setminmax" : [ 10.0, 120000.0 ],
					"contdata" : 1
				}

			}
, 			{
				"box" : 				{
					"maxclass" : "message",
					"text" : "setdomain $1",
					"numoutlets" : 1,
					"outlettype" : [ "" ],
					"fontname" : "Arial",
					"patching_rect" : [ 81.0, 153.0, 68.0, 15.0 ],
					"id" : "obj-14",
					"fontsize" : 9.0,
					"numinlets" : 2
				}

			}
, 			{
				"box" : 				{
					"maxclass" : "message",
					"text" : "clear",
					"numoutlets" : 1,
					"outlettype" : [ "" ],
					"fontname" : "Arial",
					"patching_rect" : [ 41.0, 147.0, 33.0, 15.0 ],
					"id" : "obj-204",
					"fontsize" : 9.0,
					"numinlets" : 2
				}

			}
, 			{
				"box" : 				{
					"maxclass" : "function",
					"varname" : "amp[2]",
					"numoutlets" : 4,
					"outlettype" : [ "float", "", "", "bang" ],
					"patching_rect" : [ 19.0, 176.0, 189.0, 68.0 ],
					"id" : "obj-201",
					"linecolor" : [ 0.333333, 0.333333, 0.333333, 1.0 ],
					"pointcolor" : [ 1.0, 0.0, 0.0, 1.0 ],
					"domain" : 85000.0,
					"bgcolor" : [ 1.0, 1.0, 1.0, 1.0 ],
					"numinlets" : 1,
					"addpoints" : [ 0.0, 0.0, 0, 2401.129883, 0.72093, 0, 3361.582031, 0.883721, 0, 5762.711914, 1.0, 0, 35056.496094, 1.0, 0, 64830.507812, 0.790698, 0, 77796.609375, 0.488372, 0, 85000.0, 0.0, 0 ]
				}

			}
, 			{
				"box" : 				{
					"maxclass" : "outlet",
					"numoutlets" : 0,
					"patching_rect" : [ 152.0, 317.0, 25.0, 25.0 ],
					"id" : "obj-5",
					"numinlets" : 1,
					"comment" : ""
				}

			}
, 			{
				"box" : 				{
					"maxclass" : "inlet",
					"numoutlets" : 1,
					"outlettype" : [ "" ],
					"patching_rect" : [ 24.0, 67.0, 25.0, 25.0 ],
					"id" : "obj-4",
					"numinlets" : 0,
					"comment" : ""
				}

			}
, 			{
				"box" : 				{
					"maxclass" : "button",
					"numoutlets" : 1,
					"outlettype" : [ "bang" ],
					"patching_rect" : [ 296.0, 134.0, 20.0, 20.0 ],
					"id" : "obj-23",
					"numinlets" : 1
				}

			}
, 			{
				"box" : 				{
					"maxclass" : "button",
					"numoutlets" : 1,
					"outlettype" : [ "bang" ],
					"patching_rect" : [ 14.0, 144.0, 20.0, 20.0 ],
					"id" : "obj-28",
					"numinlets" : 1
				}

			}
, 			{
				"box" : 				{
					"maxclass" : "newobj",
					"text" : "gate",
					"numoutlets" : 1,
					"outlettype" : [ "" ],
					"fontname" : "Arial",
					"patching_rect" : [ 89.0, 93.0, 29.0, 17.0 ],
					"id" : "obj-33",
					"fontsize" : 9.0,
					"numinlets" : 2
				}

			}
, 			{
				"box" : 				{
					"maxclass" : "newobj",
					"text" : "line~",
					"numoutlets" : 2,
					"outlettype" : [ "signal", "bang" ],
					"fontname" : "Arial",
					"patching_rect" : [ 152.0, 276.0, 36.0, 20.0 ],
					"id" : "obj-34",
					"fontsize" : 12.0,
					"numinlets" : 2
				}

			}
 ],
		"lines" : [ 			{
				"patchline" : 				{
					"source" : [ "obj-9", 0 ],
					"destination" : [ "obj-11", 0 ],
					"hidden" : 0,
					"midpoints" : [  ]
				}

			}
, 			{
				"patchline" : 				{
					"source" : [ "obj-11", 0 ],
					"destination" : [ "obj-3", 0 ],
					"hidden" : 0,
					"midpoints" : [  ]
				}

			}
, 			{
				"patchline" : 				{
					"source" : [ "obj-10", 0 ],
					"destination" : [ "obj-8", 0 ],
					"hidden" : 0,
					"midpoints" : [  ]
				}

			}
, 			{
				"patchline" : 				{
					"source" : [ "obj-9", 0 ],
					"destination" : [ "obj-10", 0 ],
					"hidden" : 0,
					"midpoints" : [  ]
				}

			}
, 			{
				"patchline" : 				{
					"source" : [ "obj-2", 0 ],
					"destination" : [ "obj-7", 0 ],
					"hidden" : 0,
					"midpoints" : [  ]
				}

			}
, 			{
				"patchline" : 				{
					"source" : [ "obj-6", 0 ],
					"destination" : [ "obj-2", 0 ],
					"hidden" : 0,
					"midpoints" : [  ]
				}

			}
, 			{
				"patchline" : 				{
					"source" : [ "obj-14", 0 ],
					"destination" : [ "obj-201", 0 ],
					"hidden" : 0,
					"midpoints" : [  ]
				}

			}
, 			{
				"patchline" : 				{
					"source" : [ "obj-6", 0 ],
					"destination" : [ "obj-14", 0 ],
					"hidden" : 0,
					"midpoints" : [  ]
				}

			}
, 			{
				"patchline" : 				{
					"source" : [ "obj-8", 0 ],
					"destination" : [ "obj-6", 0 ],
					"hidden" : 0,
					"midpoints" : [  ]
				}

			}
, 			{
				"patchline" : 				{
					"source" : [ "obj-204", 0 ],
					"destination" : [ "obj-201", 0 ],
					"hidden" : 0,
					"midpoints" : [  ]
				}

			}
, 			{
				"patchline" : 				{
					"source" : [ "obj-201", 1 ],
					"destination" : [ "obj-34", 0 ],
					"hidden" : 0,
					"midpoints" : [  ]
				}

			}
, 			{
				"patchline" : 				{
					"source" : [ "obj-28", 0 ],
					"destination" : [ "obj-201", 0 ],
					"hidden" : 0,
					"midpoints" : [  ]
				}

			}
, 			{
				"patchline" : 				{
					"source" : [ "obj-34", 0 ],
					"destination" : [ "obj-5", 0 ],
					"hidden" : 0,
					"midpoints" : [  ]
				}

			}
, 			{
				"patchline" : 				{
					"source" : [ "obj-4", 0 ],
					"destination" : [ "obj-28", 0 ],
					"hidden" : 0,
					"midpoints" : [  ]
				}

			}
, 			{
				"patchline" : 				{
					"source" : [ "obj-34", 1 ],
					"destination" : [ "obj-23", 0 ],
					"hidden" : 0,
					"midpoints" : [  ]
				}

			}
, 			{
				"patchline" : 				{
					"source" : [ "obj-23", 0 ],
					"destination" : [ "obj-33", 1 ],
					"hidden" : 0,
					"midpoints" : [  ]
				}

			}
, 			{
				"patchline" : 				{
					"source" : [ "obj-33", 0 ],
					"destination" : [ "obj-28", 0 ],
					"hidden" : 0,
					"midpoints" : [  ]
				}

			}
, 			{
				"patchline" : 				{
					"source" : [ "obj-1", 0 ],
					"destination" : [ "obj-12", 0 ],
					"hidden" : 0,
					"midpoints" : [  ]
				}

			}
, 			{
				"patchline" : 				{
					"source" : [ "obj-12", 0 ],
					"destination" : [ "obj-3", 0 ],
					"hidden" : 0,
					"midpoints" : [  ]
				}

			}
, 			{
				"patchline" : 				{
					"source" : [ "obj-3", 0 ],
					"destination" : [ "obj-201", 0 ],
					"hidden" : 0,
					"midpoints" : [  ]
				}

			}
, 			{
				"patchline" : 				{
					"source" : [ "obj-13", 0 ],
					"destination" : [ "obj-6", 0 ],
					"hidden" : 0,
					"midpoints" : [  ]
				}

			}
 ]
	}

}
