{
	"patcher" : 	{
		"fileversion" : 1,
		"rect" : [ 34.0, 71.0, 1242.0, 646.0 ],
		"bglocked" : 0,
		"defrect" : [ 34.0, 71.0, 1242.0, 646.0 ],
		"openrect" : [ 0.0, 0.0, 0.0, 0.0 ],
		"openinpresentation" : 0,
		"default_fontsize" : 12.0,
		"default_fontface" : 0,
		"default_fontname" : "Arial",
		"gridonopen" : 0,
		"gridsize" : [ 15.0, 15.0 ],
		"gridsnaponopen" : 0,
		"toolbarvisible" : 1,
		"boxanimatetime" : 200,
		"imprint" : 0,
		"metadata" : [  ],
		"boxes" : [ 			{
				"box" : 				{
					"maxclass" : "newobj",
					"text" : "s playmute",
					"fontsize" : 12.0,
					"id" : "obj-84",
					"numinlets" : 1,
					"patching_rect" : [ 764.0, 350.0, 69.0, 20.0 ],
					"fontname" : "Arial",
					"numoutlets" : 0
				}

			}
, 			{
				"box" : 				{
					"maxclass" : "number",
					"fontsize" : 12.0,
					"id" : "obj-77",
					"numinlets" : 1,
					"patching_rect" : [ 764.0, 326.0, 50.0, 20.0 ],
					"fontname" : "Arial",
					"numoutlets" : 2,
					"outlettype" : [ "int", "bang" ]
				}

			}
, 			{
				"box" : 				{
					"maxclass" : "newobj",
					"text" : "if $i1 == 1 then 0 else 1",
					"fontsize" : 12.0,
					"id" : "obj-76",
					"numinlets" : 1,
					"patching_rect" : [ 764.0, 301.0, 135.0, 20.0 ],
					"fontname" : "Arial",
					"numoutlets" : 1,
					"outlettype" : [ "" ]
				}

			}
, 			{
				"box" : 				{
					"maxclass" : "toggle",
					"id" : "obj-75",
					"numinlets" : 1,
					"patching_rect" : [ 764.0, 275.0, 20.0, 20.0 ],
					"numoutlets" : 1,
					"outlettype" : [ "int" ]
				}

			}
, 			{
				"box" : 				{
					"maxclass" : "newobj",
					"text" : "== 60",
					"fontsize" : 12.0,
					"id" : "obj-66",
					"numinlets" : 2,
					"patching_rect" : [ 764.0, 249.0, 41.0, 20.0 ],
					"fontname" : "Arial",
					"numoutlets" : 1,
					"outlettype" : [ "int" ]
				}

			}
, 			{
				"box" : 				{
					"maxclass" : "newobj",
					"text" : "s ssc",
					"fontsize" : 12.0,
					"id" : "obj-49",
					"numinlets" : 1,
					"patching_rect" : [ 703.0, 247.0, 38.0, 20.0 ],
					"fontname" : "Arial",
					"numoutlets" : 0
				}

			}
, 			{
				"box" : 				{
					"maxclass" : "number",
					"fontsize" : 12.0,
					"id" : "obj-48",
					"numinlets" : 1,
					"patching_rect" : [ 703.0, 223.0, 50.0, 20.0 ],
					"fontname" : "Arial",
					"numoutlets" : 2,
					"outlettype" : [ "int", "bang" ]
				}

			}
, 			{
				"box" : 				{
					"maxclass" : "toggle",
					"id" : "obj-95",
					"numinlets" : 1,
					"patching_rect" : [ 750.0, 122.0, 20.0, 20.0 ],
					"numoutlets" : 1,
					"outlettype" : [ "int" ]
				}

			}
, 			{
				"box" : 				{
					"maxclass" : "newobj",
					"text" : "== 0",
					"fontsize" : 12.0,
					"id" : "obj-94",
					"numinlets" : 2,
					"patching_rect" : [ 782.0, 98.0, 35.0, 20.0 ],
					"fontname" : "Arial",
					"numoutlets" : 1,
					"outlettype" : [ "int" ]
				}

			}
, 			{
				"box" : 				{
					"maxclass" : "toggle",
					"id" : "obj-93",
					"numinlets" : 1,
					"patching_rect" : [ 782.0, 76.0, 20.0, 20.0 ],
					"numoutlets" : 1,
					"outlettype" : [ "int" ]
				}

			}
, 			{
				"box" : 				{
					"maxclass" : "comment",
					"text" : "min",
					"fontsize" : 12.0,
					"id" : "obj-81",
					"numinlets" : 1,
					"patching_rect" : [ 743.0, 198.0, 33.0, 20.0 ],
					"fontname" : "Arial",
					"numoutlets" : 0
				}

			}
, 			{
				"box" : 				{
					"maxclass" : "button",
					"id" : "obj-82",
					"numinlets" : 1,
					"patching_rect" : [ 722.0, 198.0, 20.0, 20.0 ],
					"numoutlets" : 1,
					"outlettype" : [ "bang" ]
				}

			}
, 			{
				"box" : 				{
					"maxclass" : "newobj",
					"text" : "select 1",
					"fontsize" : 12.0,
					"id" : "obj-83",
					"numinlets" : 2,
					"patching_rect" : [ 722.0, 175.0, 52.0, 20.0 ],
					"fontname" : "Arial",
					"numoutlets" : 2,
					"outlettype" : [ "bang", "" ]
				}

			}
, 			{
				"box" : 				{
					"maxclass" : "message",
					"text" : "60",
					"fontsize" : 12.0,
					"id" : "obj-80",
					"numinlets" : 2,
					"patching_rect" : [ 852.0, 148.0, 32.5, 18.0 ],
					"fontname" : "Arial",
					"numoutlets" : 1,
					"outlettype" : [ "" ]
				}

			}
, 			{
				"box" : 				{
					"maxclass" : "message",
					"text" : "0",
					"fontsize" : 12.0,
					"id" : "obj-78",
					"numinlets" : 2,
					"patching_rect" : [ 815.0, 148.0, 32.5, 18.0 ],
					"fontname" : "Arial",
					"numoutlets" : 1,
					"outlettype" : [ "" ]
				}

			}
, 			{
				"box" : 				{
					"maxclass" : "comment",
					"text" : "silent sample vol counter",
					"fontsize" : 12.0,
					"id" : "obj-74",
					"numinlets" : 1,
					"patching_rect" : [ 724.0, 31.0, 156.0, 20.0 ],
					"fontname" : "Arial",
					"numoutlets" : 0
				}

			}
, 			{
				"box" : 				{
					"maxclass" : "message",
					"text" : "60",
					"fontsize" : 12.0,
					"id" : "obj-50",
					"numinlets" : 2,
					"patching_rect" : [ 871.0, 76.0, 32.5, 18.0 ],
					"fontname" : "Arial",
					"numoutlets" : 1,
					"outlettype" : [ "" ]
				}

			}
, 			{
				"box" : 				{
					"maxclass" : "message",
					"text" : "0",
					"fontsize" : 12.0,
					"id" : "obj-51",
					"numinlets" : 2,
					"patching_rect" : [ 819.0, 76.0, 32.5, 18.0 ],
					"fontname" : "Arial",
					"numoutlets" : 1,
					"outlettype" : [ "" ]
				}

			}
, 			{
				"box" : 				{
					"maxclass" : "toggle",
					"id" : "obj-52",
					"numinlets" : 1,
					"patching_rect" : [ 723.0, 76.0, 20.0, 20.0 ],
					"numoutlets" : 1,
					"outlettype" : [ "int" ]
				}

			}
, 			{
				"box" : 				{
					"maxclass" : "comment",
					"text" : "max",
					"fontsize" : 12.0,
					"id" : "obj-53",
					"numinlets" : 1,
					"patching_rect" : [ 800.0, 198.0, 33.0, 20.0 ],
					"fontname" : "Arial",
					"numoutlets" : 0
				}

			}
, 			{
				"box" : 				{
					"maxclass" : "button",
					"id" : "obj-55",
					"numinlets" : 1,
					"patching_rect" : [ 779.0, 198.0, 20.0, 20.0 ],
					"numoutlets" : 1,
					"outlettype" : [ "bang" ]
				}

			}
, 			{
				"box" : 				{
					"maxclass" : "newobj",
					"text" : "select 1",
					"fontsize" : 12.0,
					"id" : "obj-65",
					"numinlets" : 2,
					"patching_rect" : [ 779.0, 175.0, 52.0, 20.0 ],
					"fontname" : "Arial",
					"numoutlets" : 2,
					"outlettype" : [ "bang", "" ]
				}

			}
, 			{
				"box" : 				{
					"maxclass" : "number",
					"fontsize" : 11.595187,
					"id" : "obj-67",
					"numinlets" : 1,
					"patching_rect" : [ 871.0, 98.0, 50.0, 20.0 ],
					"fontname" : "Arial",
					"numoutlets" : 2,
					"outlettype" : [ "int", "bang" ]
				}

			}
, 			{
				"box" : 				{
					"maxclass" : "message",
					"text" : "min $1",
					"fontsize" : 11.595187,
					"id" : "obj-68",
					"numinlets" : 2,
					"patching_rect" : [ 819.0, 121.0, 43.0, 18.0 ],
					"fontname" : "Arial",
					"numoutlets" : 1,
					"outlettype" : [ "" ]
				}

			}
, 			{
				"box" : 				{
					"maxclass" : "number",
					"fontsize" : 11.595187,
					"id" : "obj-69",
					"numinlets" : 1,
					"patching_rect" : [ 819.0, 98.0, 50.0, 20.0 ],
					"fontname" : "Arial",
					"numoutlets" : 2,
					"outlettype" : [ "int", "bang" ]
				}

			}
, 			{
				"box" : 				{
					"maxclass" : "message",
					"text" : "max $1",
					"fontsize" : 11.595187,
					"id" : "obj-70",
					"numinlets" : 2,
					"patching_rect" : [ 872.0, 121.0, 47.0, 18.0 ],
					"fontname" : "Arial",
					"numoutlets" : 1,
					"outlettype" : [ "" ]
				}

			}
, 			{
				"box" : 				{
					"maxclass" : "button",
					"id" : "obj-71",
					"numinlets" : 1,
					"patching_rect" : [ 723.0, 121.0, 20.0, 20.0 ],
					"numoutlets" : 1,
					"outlettype" : [ "bang" ]
				}

			}
, 			{
				"box" : 				{
					"maxclass" : "newobj",
					"text" : "metro 50",
					"fontsize" : 12.0,
					"id" : "obj-72",
					"numinlets" : 2,
					"patching_rect" : [ 723.0, 98.0, 58.0, 20.0 ],
					"fontname" : "Arial",
					"numoutlets" : 1,
					"outlettype" : [ "bang" ]
				}

			}
, 			{
				"box" : 				{
					"maxclass" : "newobj",
					"text" : "counter",
					"fontsize" : 12.0,
					"id" : "obj-73",
					"numinlets" : 5,
					"patching_rect" : [ 723.0, 147.0, 73.0, 20.0 ],
					"fontname" : "Arial",
					"numoutlets" : 4,
					"outlettype" : [ "int", "", "", "int" ]
				}

			}
, 			{
				"box" : 				{
					"maxclass" : "message",
					"text" : "0",
					"fontsize" : 12.0,
					"id" : "obj-64",
					"numinlets" : 2,
					"patching_rect" : [ 268.0, 107.0, 32.5, 18.0 ],
					"fontname" : "Arial",
					"numoutlets" : 1,
					"outlettype" : [ "" ]
				}

			}
, 			{
				"box" : 				{
					"maxclass" : "newobj",
					"text" : "t b b",
					"fontsize" : 12.0,
					"id" : "obj-63",
					"numinlets" : 1,
					"patching_rect" : [ 344.0, 190.0, 34.0, 20.0 ],
					"fontname" : "Arial",
					"numoutlets" : 2,
					"outlettype" : [ "bang", "bang" ]
				}

			}
, 			{
				"box" : 				{
					"maxclass" : "toggle",
					"id" : "obj-62",
					"numinlets" : 1,
					"patching_rect" : [ 319.0, 190.0, 20.0, 20.0 ],
					"numoutlets" : 1,
					"outlettype" : [ "int" ]
				}

			}
, 			{
				"box" : 				{
					"maxclass" : "button",
					"id" : "obj-59",
					"numinlets" : 1,
					"patching_rect" : [ 353.0, 317.0, 20.0, 20.0 ],
					"numoutlets" : 1,
					"outlettype" : [ "bang" ]
				}

			}
, 			{
				"box" : 				{
					"maxclass" : "newobj",
					"text" : "select 1",
					"fontsize" : 12.0,
					"id" : "obj-60",
					"numinlets" : 2,
					"patching_rect" : [ 353.0, 294.0, 52.0, 20.0 ],
					"fontname" : "Arial",
					"numoutlets" : 2,
					"outlettype" : [ "bang", "" ]
				}

			}
, 			{
				"box" : 				{
					"maxclass" : "newobj",
					"text" : "==",
					"fontsize" : 12.0,
					"id" : "obj-61",
					"numinlets" : 2,
					"patching_rect" : [ 353.0, 269.0, 32.5, 20.0 ],
					"fontname" : "Arial",
					"numoutlets" : 1,
					"outlettype" : [ "int" ]
				}

			}
, 			{
				"box" : 				{
					"maxclass" : "button",
					"id" : "obj-58",
					"numinlets" : 1,
					"patching_rect" : [ 297.0, 317.0, 20.0, 20.0 ],
					"numoutlets" : 1,
					"outlettype" : [ "bang" ]
				}

			}
, 			{
				"box" : 				{
					"maxclass" : "newobj",
					"text" : "select 1",
					"fontsize" : 12.0,
					"id" : "obj-57",
					"numinlets" : 2,
					"patching_rect" : [ 297.0, 294.0, 52.0, 20.0 ],
					"fontname" : "Arial",
					"numoutlets" : 2,
					"outlettype" : [ "bang", "" ]
				}

			}
, 			{
				"box" : 				{
					"maxclass" : "newobj",
					"text" : "==",
					"fontsize" : 12.0,
					"id" : "obj-56",
					"numinlets" : 2,
					"patching_rect" : [ 297.0, 269.0, 32.5, 20.0 ],
					"fontname" : "Arial",
					"numoutlets" : 1,
					"outlettype" : [ "int" ]
				}

			}
, 			{
				"box" : 				{
					"maxclass" : "gswitch",
					"int" : 1,
					"id" : "obj-54",
					"numinlets" : 3,
					"patching_rect" : [ 297.0, 214.0, 41.0, 32.0 ],
					"numoutlets" : 1,
					"outlettype" : [ "" ]
				}

			}
, 			{
				"box" : 				{
					"maxclass" : "message",
					"text" : "0",
					"fontsize" : 12.0,
					"id" : "obj-45",
					"numinlets" : 2,
					"patching_rect" : [ 488.0, 270.0, 32.5, 18.0 ],
					"fontname" : "Arial",
					"numoutlets" : 1,
					"outlettype" : [ "" ]
				}

			}
, 			{
				"box" : 				{
					"maxclass" : "message",
					"text" : "300",
					"fontsize" : 12.0,
					"id" : "obj-44",
					"numinlets" : 2,
					"patching_rect" : [ 574.0, 228.0, 32.5, 18.0 ],
					"fontname" : "Arial",
					"numoutlets" : 1,
					"outlettype" : [ "" ]
				}

			}
, 			{
				"box" : 				{
					"maxclass" : "message",
					"text" : "0",
					"fontsize" : 12.0,
					"id" : "obj-43",
					"numinlets" : 2,
					"patching_rect" : [ 522.0, 227.0, 32.5, 18.0 ],
					"fontname" : "Arial",
					"numoutlets" : 1,
					"outlettype" : [ "" ]
				}

			}
, 			{
				"box" : 				{
					"maxclass" : "toggle",
					"id" : "obj-42",
					"numinlets" : 1,
					"patching_rect" : [ 447.0, 225.0, 20.0, 20.0 ],
					"numoutlets" : 1,
					"outlettype" : [ "int" ]
				}

			}
, 			{
				"box" : 				{
					"maxclass" : "comment",
					"text" : "reset clock",
					"fontsize" : 12.0,
					"id" : "obj-41",
					"numinlets" : 1,
					"patching_rect" : [ 347.0, 226.0, 67.0, 20.0 ],
					"fontname" : "Arial",
					"numoutlets" : 0
				}

			}
, 			{
				"box" : 				{
					"maxclass" : "comment",
					"text" : "max",
					"fontsize" : 12.0,
					"id" : "obj-36",
					"numinlets" : 1,
					"patching_rect" : [ 504.0, 342.0, 33.0, 20.0 ],
					"fontname" : "Arial",
					"numoutlets" : 0
				}

			}
, 			{
				"box" : 				{
					"maxclass" : "button",
					"id" : "obj-39",
					"numinlets" : 1,
					"patching_rect" : [ 483.0, 342.0, 20.0, 20.0 ],
					"numoutlets" : 1,
					"outlettype" : [ "bang" ]
				}

			}
, 			{
				"box" : 				{
					"maxclass" : "newobj",
					"text" : "select 1",
					"fontsize" : 12.0,
					"id" : "obj-40",
					"numinlets" : 2,
					"patching_rect" : [ 483.0, 319.0, 52.0, 20.0 ],
					"fontname" : "Arial",
					"numoutlets" : 2,
					"outlettype" : [ "bang", "" ]
				}

			}
, 			{
				"box" : 				{
					"maxclass" : "number",
					"fontsize" : 12.0,
					"id" : "obj-34",
					"numinlets" : 1,
					"patching_rect" : [ 429.0, 320.0, 50.0, 20.0 ],
					"fontname" : "Arial",
					"numoutlets" : 2,
					"outlettype" : [ "int", "bang" ]
				}

			}
, 			{
				"box" : 				{
					"maxclass" : "number",
					"fontsize" : 11.595187,
					"id" : "obj-26",
					"numinlets" : 1,
					"patching_rect" : [ 574.0, 248.0, 50.0, 20.0 ],
					"fontname" : "Arial",
					"numoutlets" : 2,
					"outlettype" : [ "int", "bang" ]
				}

			}
, 			{
				"box" : 				{
					"maxclass" : "message",
					"text" : "min $1",
					"fontsize" : 11.595187,
					"id" : "obj-27",
					"numinlets" : 2,
					"patching_rect" : [ 522.0, 270.0, 43.0, 18.0 ],
					"fontname" : "Arial",
					"numoutlets" : 1,
					"outlettype" : [ "" ]
				}

			}
, 			{
				"box" : 				{
					"maxclass" : "number",
					"fontsize" : 11.595187,
					"id" : "obj-28",
					"numinlets" : 1,
					"patching_rect" : [ 522.0, 248.0, 50.0, 20.0 ],
					"fontname" : "Arial",
					"numoutlets" : 2,
					"outlettype" : [ "int", "bang" ]
				}

			}
, 			{
				"box" : 				{
					"maxclass" : "message",
					"text" : "max $1",
					"fontsize" : 11.595187,
					"id" : "obj-31",
					"numinlets" : 2,
					"patching_rect" : [ 575.0, 270.0, 47.0, 18.0 ],
					"fontname" : "Arial",
					"numoutlets" : 1,
					"outlettype" : [ "" ]
				}

			}
, 			{
				"box" : 				{
					"maxclass" : "button",
					"id" : "obj-25",
					"numinlets" : 1,
					"patching_rect" : [ 447.0, 270.0, 20.0, 20.0 ],
					"numoutlets" : 1,
					"outlettype" : [ "bang" ]
				}

			}
, 			{
				"box" : 				{
					"maxclass" : "newobj",
					"text" : "metro 1000",
					"fontsize" : 12.0,
					"id" : "obj-24",
					"numinlets" : 2,
					"patching_rect" : [ 447.0, 248.0, 71.0, 20.0 ],
					"fontname" : "Arial",
					"numoutlets" : 1,
					"outlettype" : [ "bang" ]
				}

			}
, 			{
				"box" : 				{
					"maxclass" : "newobj",
					"text" : "counter",
					"fontsize" : 12.0,
					"id" : "obj-22",
					"numinlets" : 5,
					"patching_rect" : [ 447.0, 296.0, 73.0, 20.0 ],
					"fontname" : "Arial",
					"numoutlets" : 4,
					"outlettype" : [ "int", "", "", "int" ]
				}

			}
, 			{
				"box" : 				{
					"maxclass" : "comment",
					"text" : "ACTIVE",
					"fontsize" : 12.0,
					"id" : "obj-21",
					"numinlets" : 1,
					"patching_rect" : [ 465.0, 77.0, 53.0, 20.0 ],
					"fontname" : "Arial",
					"numoutlets" : 0
				}

			}
, 			{
				"box" : 				{
					"maxclass" : "comment",
					"text" : "INACTIVE",
					"fontsize" : 12.0,
					"id" : "obj-20",
					"numinlets" : 1,
					"patching_rect" : [ 564.0, 78.0, 65.0, 20.0 ],
					"fontname" : "Arial",
					"numoutlets" : 0
				}

			}
, 			{
				"box" : 				{
					"maxclass" : "led",
					"id" : "obj-19",
					"numinlets" : 1,
					"patching_rect" : [ 547.0, 99.0, 102.0, 102.0 ],
					"numoutlets" : 1,
					"outlettype" : [ "int" ]
				}

			}
, 			{
				"box" : 				{
					"maxclass" : "newobj",
					"text" : "select 0 1",
					"fontsize" : 12.0,
					"id" : "obj-18",
					"numinlets" : 1,
					"patching_rect" : [ 440.0, 46.0, 77.0, 20.0 ],
					"fontname" : "Arial",
					"numoutlets" : 3,
					"outlettype" : [ "bang", "bang", "" ]
				}

			}
, 			{
				"box" : 				{
					"maxclass" : "led",
					"offcolor" : [ 0.141176, 0.25098, 0.109804, 1.0 ],
					"oncolor" : [ 0.0, 1.0, 0.0, 1.0 ],
					"id" : "obj-16",
					"numinlets" : 1,
					"patching_rect" : [ 440.0, 99.0, 102.0, 102.0 ],
					"numoutlets" : 1,
					"outlettype" : [ "int" ]
				}

			}
, 			{
				"box" : 				{
					"maxclass" : "comment",
					"text" : "-",
					"fontsize" : 36.0,
					"id" : "obj-11",
					"numinlets" : 1,
					"patching_rect" : [ 20.0, 383.0, 38.0, 48.0 ],
					"fontname" : "Arial",
					"numoutlets" : 0
				}

			}
, 			{
				"box" : 				{
					"maxclass" : "comment",
					"text" : "+",
					"fontsize" : 36.0,
					"id" : "obj-10",
					"numinlets" : 1,
					"patching_rect" : [ 1184.0, 386.0, 38.0, 48.0 ],
					"fontname" : "Arial",
					"numoutlets" : 0
				}

			}
, 			{
				"box" : 				{
					"maxclass" : "comment",
					"text" : "Time conditions",
					"fontsize" : 12.0,
					"id" : "obj-267",
					"numinlets" : 1,
					"patching_rect" : [ 514.0, 388.0, 96.0, 20.0 ],
					"fontname" : "Arial",
					"numoutlets" : 0
				}

			}
, 			{
				"box" : 				{
					"maxclass" : "comment",
					"text" : "Activity clock",
					"fontsize" : 12.0,
					"id" : "obj-266",
					"numinlets" : 1,
					"patching_rect" : [ 19.0, 11.0, 81.0, 20.0 ],
					"fontname" : "Arial",
					"numoutlets" : 0
				}

			}
, 			{
				"box" : 				{
					"maxclass" : "number",
					"fontsize" : 12.0,
					"id" : "obj-265",
					"numinlets" : 1,
					"patching_rect" : [ 614.0, 410.0, 50.0, 20.0 ],
					"fontname" : "Arial",
					"numoutlets" : 2,
					"outlettype" : [ "int", "bang" ]
				}

			}
, 			{
				"box" : 				{
					"maxclass" : "toggle",
					"id" : "obj-216",
					"numinlets" : 1,
					"patching_rect" : [ 1134.0, 599.0, 20.0, 20.0 ],
					"numoutlets" : 1,
					"outlettype" : [ "int" ]
				}

			}
, 			{
				"box" : 				{
					"maxclass" : "newobj",
					"text" : "== 900",
					"fontsize" : 12.0,
					"id" : "obj-217",
					"numinlets" : 2,
					"patching_rect" : [ 1080.0, 598.0, 48.0, 20.0 ],
					"fontname" : "Arial",
					"numoutlets" : 1,
					"outlettype" : [ "int" ]
				}

			}
, 			{
				"box" : 				{
					"maxclass" : "newobj",
					"text" : "s cond16",
					"fontsize" : 12.0,
					"id" : "obj-218",
					"numinlets" : 1,
					"patching_rect" : [ 1157.0, 600.0, 59.0, 20.0 ],
					"fontname" : "Arial",
					"numoutlets" : 0
				}

			}
, 			{
				"box" : 				{
					"maxclass" : "toggle",
					"id" : "obj-222",
					"numinlets" : 1,
					"patching_rect" : [ 849.0, 599.0, 20.0, 20.0 ],
					"numoutlets" : 1,
					"outlettype" : [ "int" ]
				}

			}
, 			{
				"box" : 				{
					"maxclass" : "newobj",
					"text" : "if $i1 > 669 && $i1 < 900 then 1 else 0",
					"fontsize" : 12.0,
					"id" : "obj-223",
					"numinlets" : 1,
					"patching_rect" : [ 628.0, 598.0, 214.0, 20.0 ],
					"fontname" : "Arial",
					"numoutlets" : 1,
					"outlettype" : [ "" ]
				}

			}
, 			{
				"box" : 				{
					"maxclass" : "newobj",
					"text" : "s cond14",
					"fontsize" : 12.0,
					"id" : "obj-224",
					"numinlets" : 1,
					"patching_rect" : [ 872.0, 598.0, 59.0, 20.0 ],
					"fontname" : "Arial",
					"numoutlets" : 0
				}

			}
, 			{
				"box" : 				{
					"maxclass" : "toggle",
					"id" : "obj-228",
					"numinlets" : 1,
					"patching_rect" : [ 541.0, 599.0, 20.0, 20.0 ],
					"numoutlets" : 1,
					"outlettype" : [ "int" ]
				}

			}
, 			{
				"box" : 				{
					"maxclass" : "newobj",
					"text" : "== -600",
					"fontsize" : 12.0,
					"id" : "obj-229",
					"numinlets" : 2,
					"patching_rect" : [ 482.0, 597.0, 52.0, 20.0 ],
					"fontname" : "Arial",
					"numoutlets" : 1,
					"outlettype" : [ "int" ]
				}

			}
, 			{
				"box" : 				{
					"maxclass" : "newobj",
					"text" : "s cond15",
					"fontsize" : 12.0,
					"id" : "obj-230",
					"numinlets" : 1,
					"patching_rect" : [ 564.0, 599.0, 59.0, 20.0 ],
					"fontname" : "Arial",
					"numoutlets" : 0
				}

			}
, 			{
				"box" : 				{
					"maxclass" : "toggle",
					"id" : "obj-234",
					"numinlets" : 1,
					"patching_rect" : [ 232.0, 600.0, 20.0, 20.0 ],
					"numoutlets" : 1,
					"outlettype" : [ "int" ]
				}

			}
, 			{
				"box" : 				{
					"maxclass" : "newobj",
					"text" : "if $i1 < -549 && $i1 > -600 then 1 else 0",
					"fontsize" : 12.0,
					"id" : "obj-235",
					"numinlets" : 1,
					"patching_rect" : [ 6.0, 599.0, 222.0, 20.0 ],
					"fontname" : "Arial",
					"numoutlets" : 1,
					"outlettype" : [ "" ]
				}

			}
, 			{
				"box" : 				{
					"maxclass" : "newobj",
					"text" : "s cond13",
					"fontsize" : 12.0,
					"id" : "obj-236",
					"numinlets" : 1,
					"patching_rect" : [ 255.0, 600.0, 59.0, 20.0 ],
					"fontname" : "Arial",
					"numoutlets" : 0
				}

			}
, 			{
				"box" : 				{
					"maxclass" : "toggle",
					"id" : "obj-240",
					"numinlets" : 1,
					"patching_rect" : [ 1149.0, 548.0, 20.0, 20.0 ],
					"numoutlets" : 1,
					"outlettype" : [ "int" ]
				}

			}
, 			{
				"box" : 				{
					"maxclass" : "newobj",
					"text" : "if $i1 > 479 && $i1 < 669 then 1 else 0",
					"fontsize" : 12.0,
					"id" : "obj-241",
					"numinlets" : 1,
					"patching_rect" : [ 934.0, 547.0, 214.0, 20.0 ],
					"fontname" : "Arial",
					"numoutlets" : 1,
					"outlettype" : [ "" ]
				}

			}
, 			{
				"box" : 				{
					"maxclass" : "newobj",
					"text" : "s cond12",
					"fontsize" : 12.0,
					"id" : "obj-242",
					"numinlets" : 1,
					"patching_rect" : [ 1172.0, 548.0, 59.0, 20.0 ],
					"fontname" : "Arial",
					"numoutlets" : 0
				}

			}
, 			{
				"box" : 				{
					"maxclass" : "toggle",
					"id" : "obj-246",
					"numinlets" : 1,
					"patching_rect" : [ 850.0, 548.0, 20.0, 20.0 ],
					"numoutlets" : 1,
					"outlettype" : [ "int" ]
				}

			}
, 			{
				"box" : 				{
					"maxclass" : "newobj",
					"text" : "if $i1 > 239 && $i1 < 479 then 1 else 0",
					"fontsize" : 12.0,
					"id" : "obj-247",
					"numinlets" : 1,
					"patching_rect" : [ 629.0, 547.0, 214.0, 20.0 ],
					"fontname" : "Arial",
					"numoutlets" : 1,
					"outlettype" : [ "" ]
				}

			}
, 			{
				"box" : 				{
					"maxclass" : "newobj",
					"text" : "s cond10",
					"fontsize" : 12.0,
					"id" : "obj-248",
					"numinlets" : 1,
					"patching_rect" : [ 873.0, 548.0, 59.0, 20.0 ],
					"fontname" : "Arial",
					"numoutlets" : 0
				}

			}
, 			{
				"box" : 				{
					"maxclass" : "toggle",
					"id" : "obj-252",
					"numinlets" : 1,
					"patching_rect" : [ 542.0, 548.0, 20.0, 20.0 ],
					"numoutlets" : 1,
					"outlettype" : [ "int" ]
				}

			}
, 			{
				"box" : 				{
					"maxclass" : "newobj",
					"text" : "if $i1 < -349 && $i1 > -549 then 1 else 0",
					"fontsize" : 12.0,
					"id" : "obj-253",
					"numinlets" : 1,
					"patching_rect" : [ 314.0, 547.0, 222.0, 20.0 ],
					"fontname" : "Arial",
					"numoutlets" : 1,
					"outlettype" : [ "" ]
				}

			}
, 			{
				"box" : 				{
					"maxclass" : "newobj",
					"text" : "s cond11",
					"fontsize" : 12.0,
					"id" : "obj-254",
					"numinlets" : 1,
					"patching_rect" : [ 565.0, 548.0, 59.0, 20.0 ],
					"fontname" : "Arial",
					"numoutlets" : 0
				}

			}
, 			{
				"box" : 				{
					"maxclass" : "toggle",
					"id" : "obj-258",
					"numinlets" : 1,
					"patching_rect" : [ 235.0, 548.0, 20.0, 20.0 ],
					"numoutlets" : 1,
					"outlettype" : [ "int" ]
				}

			}
, 			{
				"box" : 				{
					"maxclass" : "newobj",
					"text" : "if $i1 < -239 && $i1 > -349 then 1 else 0",
					"fontsize" : 12.0,
					"id" : "obj-259",
					"numinlets" : 1,
					"patching_rect" : [ 7.0, 547.0, 222.0, 20.0 ],
					"fontname" : "Arial",
					"numoutlets" : 1,
					"outlettype" : [ "" ]
				}

			}
, 			{
				"box" : 				{
					"maxclass" : "newobj",
					"text" : "s cond9",
					"fontsize" : 12.0,
					"id" : "obj-260",
					"numinlets" : 1,
					"patching_rect" : [ 259.0, 548.0, 53.0, 20.0 ],
					"fontname" : "Arial",
					"numoutlets" : 0
				}

			}
, 			{
				"box" : 				{
					"maxclass" : "toggle",
					"id" : "obj-192",
					"numinlets" : 1,
					"patching_rect" : [ 1140.0, 499.0, 20.0, 20.0 ],
					"numoutlets" : 1,
					"outlettype" : [ "int" ]
				}

			}
, 			{
				"box" : 				{
					"maxclass" : "newobj",
					"text" : "if $i1 > 119 && $i1 < 239 then 1 else 0",
					"fontsize" : 12.0,
					"id" : "obj-193",
					"numinlets" : 1,
					"patching_rect" : [ 917.0, 498.0, 214.0, 20.0 ],
					"fontname" : "Arial",
					"numoutlets" : 1,
					"outlettype" : [ "" ]
				}

			}
, 			{
				"box" : 				{
					"maxclass" : "newobj",
					"text" : "s cond8",
					"fontsize" : 12.0,
					"id" : "obj-194",
					"numinlets" : 1,
					"patching_rect" : [ 1163.0, 500.0, 53.0, 20.0 ],
					"fontname" : "Arial",
					"numoutlets" : 0
				}

			}
, 			{
				"box" : 				{
					"maxclass" : "toggle",
					"id" : "obj-198",
					"numinlets" : 1,
					"patching_rect" : [ 839.0, 497.0, 20.0, 20.0 ],
					"numoutlets" : 1,
					"outlettype" : [ "int" ]
				}

			}
, 			{
				"box" : 				{
					"maxclass" : "newobj",
					"text" : "if $i1 > 59 && $i1 < 119 then 1 else 0",
					"fontsize" : 12.0,
					"id" : "obj-199",
					"numinlets" : 1,
					"patching_rect" : [ 628.0, 497.0, 207.0, 20.0 ],
					"fontname" : "Arial",
					"numoutlets" : 1,
					"outlettype" : [ "" ]
				}

			}
, 			{
				"box" : 				{
					"maxclass" : "newobj",
					"text" : "s cond6",
					"fontsize" : 12.0,
					"id" : "obj-200",
					"numinlets" : 1,
					"patching_rect" : [ 862.0, 497.0, 53.0, 20.0 ],
					"fontname" : "Arial",
					"numoutlets" : 0
				}

			}
, 			{
				"box" : 				{
					"maxclass" : "toggle",
					"id" : "obj-204",
					"numinlets" : 1,
					"patching_rect" : [ 546.0, 499.0, 20.0, 20.0 ],
					"numoutlets" : 1,
					"outlettype" : [ "int" ]
				}

			}
, 			{
				"box" : 				{
					"maxclass" : "newobj",
					"text" : "if $i1 < -119 && $i1 > -239 then 1 else 0",
					"fontsize" : 12.0,
					"id" : "obj-205",
					"numinlets" : 1,
					"patching_rect" : [ 317.0, 499.0, 222.0, 20.0 ],
					"fontname" : "Arial",
					"numoutlets" : 1,
					"outlettype" : [ "" ]
				}

			}
, 			{
				"box" : 				{
					"maxclass" : "newobj",
					"text" : "s cond7",
					"fontsize" : 12.0,
					"id" : "obj-206",
					"numinlets" : 1,
					"patching_rect" : [ 569.0, 499.0, 53.0, 20.0 ],
					"fontname" : "Arial",
					"numoutlets" : 0
				}

			}
, 			{
				"box" : 				{
					"maxclass" : "toggle",
					"id" : "obj-210",
					"numinlets" : 1,
					"patching_rect" : [ 239.0, 499.0, 20.0, 20.0 ],
					"numoutlets" : 1,
					"outlettype" : [ "int" ]
				}

			}
, 			{
				"box" : 				{
					"maxclass" : "newobj",
					"text" : "if $i1 < -59 && $i1 > -119 then 1 else 0",
					"fontsize" : 12.0,
					"id" : "obj-211",
					"numinlets" : 1,
					"patching_rect" : [ 19.0, 498.0, 215.0, 20.0 ],
					"fontname" : "Arial",
					"numoutlets" : 1,
					"outlettype" : [ "" ]
				}

			}
, 			{
				"box" : 				{
					"maxclass" : "newobj",
					"text" : "s cond5",
					"fontsize" : 12.0,
					"id" : "obj-212",
					"numinlets" : 1,
					"patching_rect" : [ 262.0, 499.0, 53.0, 20.0 ],
					"fontname" : "Arial",
					"numoutlets" : 0
				}

			}
, 			{
				"box" : 				{
					"maxclass" : "toggle",
					"id" : "obj-156",
					"numinlets" : 1,
					"patching_rect" : [ 1114.0, 450.0, 20.0, 20.0 ],
					"numoutlets" : 1,
					"outlettype" : [ "int" ]
				}

			}
, 			{
				"box" : 				{
					"maxclass" : "newobj",
					"text" : "if $i1 > 29 && $i1 < 59 then 1 else 0",
					"fontsize" : 12.0,
					"id" : "obj-157",
					"numinlets" : 1,
					"patching_rect" : [ 904.0, 450.0, 201.0, 20.0 ],
					"fontname" : "Arial",
					"numoutlets" : 1,
					"outlettype" : [ "" ]
				}

			}
, 			{
				"box" : 				{
					"maxclass" : "newobj",
					"text" : "s cond4",
					"fontsize" : 12.0,
					"id" : "obj-158",
					"numinlets" : 1,
					"patching_rect" : [ 1138.0, 450.0, 53.0, 20.0 ],
					"fontname" : "Arial",
					"numoutlets" : 0
				}

			}
, 			{
				"box" : 				{
					"maxclass" : "toggle",
					"id" : "obj-162",
					"numinlets" : 1,
					"patching_rect" : [ 827.0, 450.0, 20.0, 20.0 ],
					"numoutlets" : 1,
					"outlettype" : [ "int" ]
				}

			}
, 			{
				"box" : 				{
					"maxclass" : "newobj",
					"text" : "if $i1 > -1 && $i1 < 29 then 1 else 0",
					"fontsize" : 12.0,
					"id" : "obj-163",
					"numinlets" : 1,
					"patching_rect" : [ 625.0, 450.0, 198.0, 20.0 ],
					"fontname" : "Arial",
					"numoutlets" : 1,
					"outlettype" : [ "" ]
				}

			}
, 			{
				"box" : 				{
					"maxclass" : "newobj",
					"text" : "s cond2",
					"fontsize" : 12.0,
					"id" : "obj-164",
					"numinlets" : 1,
					"patching_rect" : [ 850.0, 451.0, 53.0, 20.0 ],
					"fontname" : "Arial",
					"numoutlets" : 0
				}

			}
, 			{
				"box" : 				{
					"maxclass" : "toggle",
					"id" : "obj-150",
					"numinlets" : 1,
					"patching_rect" : [ 546.0, 450.0, 20.0, 20.0 ],
					"numoutlets" : 1,
					"outlettype" : [ "int" ]
				}

			}
, 			{
				"box" : 				{
					"maxclass" : "newobj",
					"text" : "if $i1 < -29 && $i1 > -59 then 1 else 0",
					"fontsize" : 12.0,
					"id" : "obj-151",
					"numinlets" : 1,
					"patching_rect" : [ 332.0, 449.0, 209.0, 20.0 ],
					"fontname" : "Arial",
					"numoutlets" : 1,
					"outlettype" : [ "" ]
				}

			}
, 			{
				"box" : 				{
					"maxclass" : "newobj",
					"text" : "s cond3",
					"fontsize" : 12.0,
					"id" : "obj-152",
					"numinlets" : 1,
					"patching_rect" : [ 569.0, 450.0, 53.0, 20.0 ],
					"fontname" : "Arial",
					"numoutlets" : 0
				}

			}
, 			{
				"box" : 				{
					"maxclass" : "toggle",
					"id" : "obj-149",
					"numinlets" : 1,
					"patching_rect" : [ 252.0, 449.0, 20.0, 20.0 ],
					"numoutlets" : 1,
					"outlettype" : [ "int" ]
				}

			}
, 			{
				"box" : 				{
					"maxclass" : "newobj",
					"text" : "if $i1 < 0 && $i1 > -29 then 1 else 0",
					"fontsize" : 12.0,
					"id" : "obj-148",
					"numinlets" : 1,
					"patching_rect" : [ 50.0, 448.0, 198.0, 20.0 ],
					"fontname" : "Arial",
					"numoutlets" : 1,
					"outlettype" : [ "" ]
				}

			}
, 			{
				"box" : 				{
					"maxclass" : "newobj",
					"text" : "s cond1",
					"fontsize" : 12.0,
					"id" : "obj-144",
					"numinlets" : 1,
					"patching_rect" : [ 276.0, 449.0, 53.0, 20.0 ],
					"fontname" : "Arial",
					"numoutlets" : 0
				}

			}
, 			{
				"box" : 				{
					"maxclass" : "newobj",
					"text" : "r activeval",
					"fontsize" : 12.0,
					"id" : "obj-136",
					"numinlets" : 0,
					"patching_rect" : [ 614.0, 387.0, 65.0, 20.0 ],
					"fontname" : "Arial",
					"numoutlets" : 1,
					"outlettype" : [ "" ]
				}

			}
, 			{
				"box" : 				{
					"maxclass" : "comment",
					"text" : "max",
					"fontsize" : 12.0,
					"id" : "obj-128",
					"numinlets" : 1,
					"patching_rect" : [ 218.0, 233.0, 33.0, 20.0 ],
					"fontname" : "Arial",
					"numoutlets" : 0
				}

			}
, 			{
				"box" : 				{
					"maxclass" : "comment",
					"text" : "min",
					"fontsize" : 12.0,
					"id" : "obj-127",
					"numinlets" : 1,
					"patching_rect" : [ 162.0, 233.0, 33.0, 20.0 ],
					"fontname" : "Arial",
					"numoutlets" : 0
				}

			}
, 			{
				"box" : 				{
					"maxclass" : "comment",
					"text" : "peak:",
					"fontsize" : 12.0,
					"id" : "obj-125",
					"numinlets" : 1,
					"patching_rect" : [ 104.0, 233.0, 38.0, 20.0 ],
					"fontname" : "Arial",
					"numoutlets" : 0
				}

			}
, 			{
				"box" : 				{
					"maxclass" : "button",
					"id" : "obj-124",
					"numinlets" : 1,
					"patching_rect" : [ 223.0, 268.0, 20.0, 20.0 ],
					"numoutlets" : 1,
					"outlettype" : [ "bang" ]
				}

			}
, 			{
				"box" : 				{
					"maxclass" : "comment",
					"text" : "reset",
					"fontsize" : 12.0,
					"id" : "obj-123",
					"numinlets" : 1,
					"patching_rect" : [ 246.0, 268.0, 37.0, 20.0 ],
					"fontname" : "Arial",
					"numoutlets" : 0
				}

			}
, 			{
				"box" : 				{
					"maxclass" : "message",
					"text" : "900",
					"fontsize" : 12.0,
					"id" : "obj-120",
					"numinlets" : 2,
					"patching_rect" : [ 209.0, 159.0, 50.0, 18.0 ],
					"fontname" : "Arial",
					"numoutlets" : 1,
					"outlettype" : [ "" ]
				}

			}
, 			{
				"box" : 				{
					"maxclass" : "message",
					"text" : "-600",
					"fontsize" : 12.0,
					"id" : "obj-119",
					"numinlets" : 2,
					"patching_rect" : [ 148.0, 159.0, 50.0, 18.0 ],
					"fontname" : "Arial",
					"numoutlets" : 1,
					"outlettype" : [ "" ]
				}

			}
, 			{
				"box" : 				{
					"maxclass" : "button",
					"id" : "obj-111",
					"numinlets" : 1,
					"patching_rect" : [ 17.0, 119.0, 20.0, 20.0 ],
					"numoutlets" : 1,
					"outlettype" : [ "bang" ]
				}

			}
, 			{
				"box" : 				{
					"maxclass" : "newobj",
					"text" : "loadbang",
					"fontsize" : 12.0,
					"id" : "obj-97",
					"numinlets" : 1,
					"patching_rect" : [ 268.0, 46.0, 60.0, 20.0 ],
					"fontname" : "Arial",
					"numoutlets" : 1,
					"outlettype" : [ "bang" ]
				}

			}
, 			{
				"box" : 				{
					"maxclass" : "button",
					"id" : "obj-33",
					"numinlets" : 1,
					"patching_rect" : [ 197.0, 233.0, 20.0, 20.0 ],
					"numoutlets" : 1,
					"outlettype" : [ "bang" ]
				}

			}
, 			{
				"box" : 				{
					"maxclass" : "button",
					"id" : "obj-32",
					"numinlets" : 1,
					"patching_rect" : [ 143.0, 233.0, 20.0, 20.0 ],
					"numoutlets" : 1,
					"outlettype" : [ "bang" ]
				}

			}
, 			{
				"box" : 				{
					"maxclass" : "newobj",
					"text" : "select 1",
					"fontsize" : 12.0,
					"id" : "obj-30",
					"numinlets" : 2,
					"patching_rect" : [ 197.0, 210.0, 52.0, 20.0 ],
					"fontname" : "Arial",
					"numoutlets" : 2,
					"outlettype" : [ "bang", "" ]
				}

			}
, 			{
				"box" : 				{
					"maxclass" : "newobj",
					"text" : "select 1",
					"fontsize" : 12.0,
					"id" : "obj-29",
					"numinlets" : 2,
					"patching_rect" : [ 143.0, 210.0, 52.0, 20.0 ],
					"fontname" : "Arial",
					"numoutlets" : 2,
					"outlettype" : [ "bang", "" ]
				}

			}
, 			{
				"box" : 				{
					"maxclass" : "message",
					"text" : "900",
					"fontsize" : 12.0,
					"id" : "obj-23",
					"numinlets" : 2,
					"patching_rect" : [ 367.0, 109.0, 32.5, 18.0 ],
					"fontname" : "Arial",
					"numoutlets" : 1,
					"outlettype" : [ "" ]
				}

			}
, 			{
				"box" : 				{
					"maxclass" : "message",
					"text" : "-600",
					"fontsize" : 12.0,
					"id" : "obj-17",
					"numinlets" : 2,
					"patching_rect" : [ 315.0, 109.0, 35.0, 18.0 ],
					"fontname" : "Arial",
					"numoutlets" : 1,
					"outlettype" : [ "" ]
				}

			}
, 			{
				"box" : 				{
					"maxclass" : "number",
					"fontsize" : 11.595187,
					"id" : "obj-35",
					"numinlets" : 1,
					"patching_rect" : [ 367.0, 131.0, 50.0, 20.0 ],
					"fontname" : "Arial",
					"numoutlets" : 2,
					"outlettype" : [ "int", "bang" ]
				}

			}
, 			{
				"box" : 				{
					"maxclass" : "message",
					"text" : "min $1",
					"fontsize" : 11.595187,
					"id" : "obj-15",
					"numinlets" : 2,
					"patching_rect" : [ 315.0, 159.0, 43.0, 18.0 ],
					"fontname" : "Arial",
					"numoutlets" : 1,
					"outlettype" : [ "" ]
				}

			}
, 			{
				"box" : 				{
					"maxclass" : "number",
					"fontsize" : 11.595187,
					"id" : "obj-37",
					"numinlets" : 1,
					"patching_rect" : [ 315.0, 131.0, 50.0, 20.0 ],
					"fontname" : "Arial",
					"numoutlets" : 2,
					"outlettype" : [ "int", "bang" ]
				}

			}
, 			{
				"box" : 				{
					"maxclass" : "message",
					"text" : "max $1",
					"fontsize" : 11.595187,
					"id" : "obj-38",
					"numinlets" : 2,
					"patching_rect" : [ 367.0, 159.0, 47.0, 18.0 ],
					"fontname" : "Arial",
					"numoutlets" : 1,
					"outlettype" : [ "" ]
				}

			}
, 			{
				"box" : 				{
					"maxclass" : "newobj",
					"text" : "s activeval",
					"fontsize" : 12.0,
					"id" : "obj-12",
					"numinlets" : 1,
					"patching_rect" : [ 90.0, 322.0, 67.0, 20.0 ],
					"fontname" : "Arial",
					"numoutlets" : 0
				}

			}
, 			{
				"box" : 				{
					"maxclass" : "flonum",
					"fontsize" : 12.0,
					"id" : "obj-8",
					"numinlets" : 1,
					"patching_rect" : [ 195.0, 74.0, 50.0, 20.0 ],
					"fontname" : "Arial",
					"numoutlets" : 2,
					"outlettype" : [ "float", "bang" ]
				}

			}
, 			{
				"box" : 				{
					"maxclass" : "newobj",
					"text" : "r trigval",
					"fontsize" : 12.0,
					"id" : "obj-7",
					"numinlets" : 0,
					"patching_rect" : [ 195.0, 46.0, 50.0, 20.0 ],
					"fontname" : "Arial",
					"numoutlets" : 1,
					"outlettype" : [ "" ]
				}

			}
, 			{
				"box" : 				{
					"maxclass" : "number",
					"fontsize" : 12.0,
					"id" : "obj-3",
					"numinlets" : 1,
					"patching_rect" : [ 93.0, 140.0, 50.0, 20.0 ],
					"fontname" : "Arial",
					"numoutlets" : 2,
					"outlettype" : [ "int", "bang" ]
				}

			}
, 			{
				"box" : 				{
					"maxclass" : "toggle",
					"id" : "obj-2",
					"numinlets" : 1,
					"patching_rect" : [ 93.0, 119.0, 20.0, 20.0 ],
					"numoutlets" : 1,
					"outlettype" : [ "int" ]
				}

			}
, 			{
				"box" : 				{
					"maxclass" : "newobj",
					"text" : "<=",
					"fontsize" : 12.0,
					"id" : "obj-1",
					"numinlets" : 2,
					"patching_rect" : [ 93.0, 96.0, 120.5, 20.0 ],
					"fontname" : "Arial",
					"numoutlets" : 1,
					"outlettype" : [ "int" ]
				}

			}
, 			{
				"box" : 				{
					"maxclass" : "toggle",
					"id" : "obj-5",
					"numinlets" : 1,
					"patching_rect" : [ 17.0, 74.0, 20.0, 20.0 ],
					"numoutlets" : 1,
					"outlettype" : [ "int" ]
				}

			}
, 			{
				"box" : 				{
					"maxclass" : "newobj",
					"text" : "metro 1000",
					"fontsize" : 12.0,
					"id" : "obj-4",
					"numinlets" : 2,
					"patching_rect" : [ 17.0, 96.0, 71.0, 20.0 ],
					"fontname" : "Arial",
					"numoutlets" : 1,
					"outlettype" : [ "bang" ]
				}

			}
, 			{
				"box" : 				{
					"maxclass" : "flonum",
					"fontsize" : 36.0,
					"bordercolor" : [ 0.0, 0.0, 0.0, 1.0 ],
					"tricolor" : [ 1.0, 1.0, 1.0, 1.0 ],
					"id" : "obj-79",
					"numinlets" : 1,
					"patching_rect" : [ 90.0, 268.0, 129.0, 48.0 ],
					"fontname" : "Arial",
					"numoutlets" : 2,
					"outlettype" : [ "float", "bang" ]
				}

			}
, 			{
				"box" : 				{
					"maxclass" : "message",
					"text" : "0.",
					"fontsize" : 12.0,
					"id" : "obj-85",
					"numinlets" : 2,
					"patching_rect" : [ 279.0, 159.0, 32.5, 18.0 ],
					"fontname" : "Arial",
					"numoutlets" : 1,
					"outlettype" : [ "" ]
				}

			}
, 			{
				"box" : 				{
					"maxclass" : "newobj",
					"text" : "counter",
					"fontsize" : 12.0,
					"id" : "obj-86",
					"numinlets" : 5,
					"patching_rect" : [ 90.0, 187.0, 179.0, 20.0 ],
					"fontname" : "Arial",
					"numoutlets" : 4,
					"outlettype" : [ "int", "", "", "int" ]
				}

			}
, 			{
				"box" : 				{
					"maxclass" : "flonum",
					"fontsize" : 12.0,
					"id" : "obj-14",
					"numinlets" : 1,
					"patching_rect" : [ 93.0, 74.0, 94.0, 20.0 ],
					"fontname" : "Arial",
					"numoutlets" : 2,
					"outlettype" : [ "float", "bang" ]
				}

			}
, 			{
				"box" : 				{
					"maxclass" : "newobj",
					"text" : "r valall",
					"fontsize" : 12.0,
					"id" : "obj-13",
					"numinlets" : 0,
					"patching_rect" : [ 93.0, 46.0, 45.0, 20.0 ],
					"fontname" : "Arial",
					"numoutlets" : 1,
					"outlettype" : [ "" ]
				}

			}
, 			{
				"box" : 				{
					"maxclass" : "panel",
					"id" : "obj-6",
					"numinlets" : 1,
					"patching_rect" : [ 4.0, 434.0, 620.0, 203.0 ],
					"numoutlets" : 0,
					"bgcolor" : [ 0.917647, 0.937255, 0.670588, 1.0 ]
				}

			}
, 			{
				"box" : 				{
					"maxclass" : "panel",
					"id" : "obj-9",
					"numinlets" : 1,
					"patching_rect" : [ 624.0, 435.0, 609.0, 202.0 ],
					"numoutlets" : 0,
					"bgcolor" : [ 0.678431, 0.819608, 0.819608, 1.0 ]
				}

			}
, 			{
				"box" : 				{
					"maxclass" : "panel",
					"id" : "obj-46",
					"numinlets" : 1,
					"patching_rect" : [ 5.0, 364.0, 65.0, 68.0 ],
					"numoutlets" : 0,
					"bgcolor" : [ 0.917647, 0.937255, 0.670588, 1.0 ]
				}

			}
, 			{
				"box" : 				{
					"maxclass" : "panel",
					"id" : "obj-47",
					"numinlets" : 1,
					"patching_rect" : [ 1168.0, 366.0, 65.0, 67.0 ],
					"numoutlets" : 0,
					"bgcolor" : [ 0.678431, 0.819608, 0.819608, 1.0 ]
				}

			}
 ],
		"lines" : [ 			{
				"patchline" : 				{
					"source" : [ "obj-77", 0 ],
					"destination" : [ "obj-84", 0 ],
					"hidden" : 0,
					"midpoints" : [  ]
				}

			}
, 			{
				"patchline" : 				{
					"source" : [ "obj-75", 0 ],
					"destination" : [ "obj-76", 0 ],
					"hidden" : 0,
					"midpoints" : [  ]
				}

			}
, 			{
				"patchline" : 				{
					"source" : [ "obj-76", 0 ],
					"destination" : [ "obj-77", 0 ],
					"hidden" : 0,
					"midpoints" : [  ]
				}

			}
, 			{
				"patchline" : 				{
					"source" : [ "obj-66", 0 ],
					"destination" : [ "obj-75", 0 ],
					"hidden" : 0,
					"midpoints" : [  ]
				}

			}
, 			{
				"patchline" : 				{
					"source" : [ "obj-48", 0 ],
					"destination" : [ "obj-66", 0 ],
					"hidden" : 0,
					"midpoints" : [ 712.5, 245.0, 773.5, 245.0 ]
				}

			}
, 			{
				"patchline" : 				{
					"source" : [ "obj-48", 0 ],
					"destination" : [ "obj-49", 0 ],
					"hidden" : 0,
					"midpoints" : [  ]
				}

			}
, 			{
				"patchline" : 				{
					"source" : [ "obj-73", 0 ],
					"destination" : [ "obj-48", 0 ],
					"hidden" : 0,
					"midpoints" : [ 712.0, 171.0 ]
				}

			}
, 			{
				"patchline" : 				{
					"source" : [ "obj-97", 0 ],
					"destination" : [ "obj-52", 0 ],
					"hidden" : 1,
					"midpoints" : [ 277.5, 74.0, 428.0, 74.0, 428.0, 33.0, 683.0, 33.0, 683.0, 69.0, 732.5, 69.0 ]
				}

			}
, 			{
				"patchline" : 				{
					"source" : [ "obj-72", 0 ],
					"destination" : [ "obj-71", 0 ],
					"hidden" : 0,
					"midpoints" : [  ]
				}

			}
, 			{
				"patchline" : 				{
					"source" : [ "obj-52", 0 ],
					"destination" : [ "obj-72", 0 ],
					"hidden" : 0,
					"midpoints" : [  ]
				}

			}
, 			{
				"patchline" : 				{
					"source" : [ "obj-95", 0 ],
					"destination" : [ "obj-73", 1 ],
					"hidden" : 0,
					"midpoints" : [  ]
				}

			}
, 			{
				"patchline" : 				{
					"source" : [ "obj-2", 0 ],
					"destination" : [ "obj-93", 0 ],
					"hidden" : 1,
					"midpoints" : [  ]
				}

			}
, 			{
				"patchline" : 				{
					"source" : [ "obj-93", 0 ],
					"destination" : [ "obj-94", 0 ],
					"hidden" : 0,
					"midpoints" : [  ]
				}

			}
, 			{
				"patchline" : 				{
					"source" : [ "obj-94", 0 ],
					"destination" : [ "obj-95", 0 ],
					"hidden" : 0,
					"midpoints" : [  ]
				}

			}
, 			{
				"patchline" : 				{
					"source" : [ "obj-73", 1 ],
					"destination" : [ "obj-83", 0 ],
					"hidden" : 0,
					"midpoints" : [  ]
				}

			}
, 			{
				"patchline" : 				{
					"source" : [ "obj-55", 0 ],
					"destination" : [ "obj-80", 0 ],
					"hidden" : 1,
					"midpoints" : [  ]
				}

			}
, 			{
				"patchline" : 				{
					"source" : [ "obj-82", 0 ],
					"destination" : [ "obj-78", 0 ],
					"hidden" : 1,
					"midpoints" : [  ]
				}

			}
, 			{
				"patchline" : 				{
					"source" : [ "obj-83", 0 ],
					"destination" : [ "obj-82", 0 ],
					"hidden" : 0,
					"midpoints" : [  ]
				}

			}
, 			{
				"patchline" : 				{
					"source" : [ "obj-80", 0 ],
					"destination" : [ "obj-73", 2 ],
					"hidden" : 1,
					"midpoints" : [  ]
				}

			}
, 			{
				"patchline" : 				{
					"source" : [ "obj-78", 0 ],
					"destination" : [ "obj-73", 2 ],
					"hidden" : 1,
					"midpoints" : [  ]
				}

			}
, 			{
				"patchline" : 				{
					"source" : [ "obj-97", 0 ],
					"destination" : [ "obj-50", 0 ],
					"hidden" : 0,
					"midpoints" : [ 277.5, 71.0, 429.0, 71.0, 429.0, 34.0, 673.0, 34.0, 673.0, 55.0, 880.5, 55.0 ]
				}

			}
, 			{
				"patchline" : 				{
					"source" : [ "obj-97", 0 ],
					"destination" : [ "obj-51", 0 ],
					"hidden" : 0,
					"midpoints" : [ 277.5, 72.0, 430.0, 72.0, 430.0, 33.0, 676.0, 33.0, 676.0, 54.0, 828.5, 54.0 ]
				}

			}
, 			{
				"patchline" : 				{
					"source" : [ "obj-50", 0 ],
					"destination" : [ "obj-67", 0 ],
					"hidden" : 0,
					"midpoints" : [  ]
				}

			}
, 			{
				"patchline" : 				{
					"source" : [ "obj-51", 0 ],
					"destination" : [ "obj-69", 0 ],
					"hidden" : 0,
					"midpoints" : [  ]
				}

			}
, 			{
				"patchline" : 				{
					"source" : [ "obj-73", 2 ],
					"destination" : [ "obj-65", 0 ],
					"hidden" : 0,
					"midpoints" : [  ]
				}

			}
, 			{
				"patchline" : 				{
					"source" : [ "obj-65", 0 ],
					"destination" : [ "obj-55", 0 ],
					"hidden" : 0,
					"midpoints" : [  ]
				}

			}
, 			{
				"patchline" : 				{
					"source" : [ "obj-70", 0 ],
					"destination" : [ "obj-73", 0 ],
					"hidden" : 0,
					"midpoints" : [ 881.5, 142.0, 732.5, 142.0 ]
				}

			}
, 			{
				"patchline" : 				{
					"source" : [ "obj-68", 0 ],
					"destination" : [ "obj-73", 0 ],
					"hidden" : 0,
					"midpoints" : [ 828.5, 143.0, 732.5, 143.0 ]
				}

			}
, 			{
				"patchline" : 				{
					"source" : [ "obj-69", 0 ],
					"destination" : [ "obj-68", 0 ],
					"hidden" : 0,
					"midpoints" : [  ]
				}

			}
, 			{
				"patchline" : 				{
					"source" : [ "obj-67", 0 ],
					"destination" : [ "obj-70", 0 ],
					"hidden" : 0,
					"midpoints" : [  ]
				}

			}
, 			{
				"patchline" : 				{
					"source" : [ "obj-71", 0 ],
					"destination" : [ "obj-73", 0 ],
					"hidden" : 0,
					"midpoints" : [  ]
				}

			}
, 			{
				"patchline" : 				{
					"source" : [ "obj-265", 0 ],
					"destination" : [ "obj-151", 0 ],
					"hidden" : 0,
					"midpoints" : [ 623.5, 443.0, 341.5, 443.0 ]
				}

			}
, 			{
				"patchline" : 				{
					"source" : [ "obj-151", 0 ],
					"destination" : [ "obj-150", 0 ],
					"hidden" : 0,
					"midpoints" : [ 341.5, 472.0, 543.0, 472.0, 543.0, 448.0, 555.5, 448.0 ]
				}

			}
, 			{
				"patchline" : 				{
					"source" : [ "obj-265", 0 ],
					"destination" : [ "obj-148", 0 ],
					"hidden" : 0,
					"midpoints" : [ 623.5, 443.0, 59.5, 443.0 ]
				}

			}
, 			{
				"patchline" : 				{
					"source" : [ "obj-148", 0 ],
					"destination" : [ "obj-149", 0 ],
					"hidden" : 0,
					"midpoints" : [ 59.5, 472.0, 250.0, 472.0, 250.0, 448.0, 261.5, 448.0 ]
				}

			}
, 			{
				"patchline" : 				{
					"source" : [ "obj-265", 0 ],
					"destination" : [ "obj-235", 0 ],
					"hidden" : 0,
					"midpoints" : [ 623.5, 586.0, 15.5, 586.0 ]
				}

			}
, 			{
				"patchline" : 				{
					"source" : [ "obj-235", 0 ],
					"destination" : [ "obj-234", 0 ],
					"hidden" : 0,
					"midpoints" : [ 15.5, 621.0, 229.0, 621.0, 229.0, 597.0, 241.5, 597.0 ]
				}

			}
, 			{
				"patchline" : 				{
					"source" : [ "obj-223", 0 ],
					"destination" : [ "obj-222", 0 ],
					"hidden" : 0,
					"midpoints" : [ 637.5, 621.0, 845.0, 621.0, 845.0, 597.0, 858.5, 597.0 ]
				}

			}
, 			{
				"patchline" : 				{
					"source" : [ "obj-265", 0 ],
					"destination" : [ "obj-223", 0 ],
					"hidden" : 0,
					"midpoints" : [ 623.5, 587.0, 637.5, 587.0 ]
				}

			}
, 			{
				"patchline" : 				{
					"source" : [ "obj-265", 0 ],
					"destination" : [ "obj-241", 0 ],
					"hidden" : 0,
					"midpoints" : [ 623.5, 534.0, 943.5, 534.0 ]
				}

			}
, 			{
				"patchline" : 				{
					"source" : [ "obj-241", 0 ],
					"destination" : [ "obj-240", 0 ],
					"hidden" : 0,
					"midpoints" : [ 943.5, 570.0, 1147.0, 570.0, 1147.0, 546.0, 1158.5, 546.0 ]
				}

			}
, 			{
				"patchline" : 				{
					"source" : [ "obj-247", 0 ],
					"destination" : [ "obj-246", 0 ],
					"hidden" : 0,
					"midpoints" : [ 638.5, 570.0, 847.0, 570.0, 847.0, 546.0, 859.5, 546.0 ]
				}

			}
, 			{
				"patchline" : 				{
					"source" : [ "obj-265", 0 ],
					"destination" : [ "obj-247", 0 ],
					"hidden" : 0,
					"midpoints" : [ 623.5, 536.0, 638.5, 536.0 ]
				}

			}
, 			{
				"patchline" : 				{
					"source" : [ "obj-193", 0 ],
					"destination" : [ "obj-192", 0 ],
					"hidden" : 0,
					"midpoints" : [ 926.5, 521.0, 1134.0, 521.0, 1134.0, 497.0, 1149.5, 497.0 ]
				}

			}
, 			{
				"patchline" : 				{
					"source" : [ "obj-265", 0 ],
					"destination" : [ "obj-193", 0 ],
					"hidden" : 0,
					"midpoints" : [ 623.5, 492.0, 926.5, 492.0 ]
				}

			}
, 			{
				"patchline" : 				{
					"source" : [ "obj-265", 0 ],
					"destination" : [ "obj-199", 0 ],
					"hidden" : 0,
					"midpoints" : [ 623.5, 490.0, 637.5, 490.0 ]
				}

			}
, 			{
				"patchline" : 				{
					"source" : [ "obj-199", 0 ],
					"destination" : [ "obj-198", 0 ],
					"hidden" : 0,
					"midpoints" : [ 637.5, 521.0, 836.0, 521.0, 836.0, 497.0, 848.5, 497.0 ]
				}

			}
, 			{
				"patchline" : 				{
					"source" : [ "obj-253", 0 ],
					"destination" : [ "obj-252", 0 ],
					"hidden" : 0,
					"midpoints" : [ 323.5, 570.0, 539.0, 570.0, 539.0, 546.0, 551.5, 546.0 ]
				}

			}
, 			{
				"patchline" : 				{
					"source" : [ "obj-265", 0 ],
					"destination" : [ "obj-253", 0 ],
					"hidden" : 0,
					"midpoints" : [ 623.5, 535.0, 323.5, 535.0 ]
				}

			}
, 			{
				"patchline" : 				{
					"source" : [ "obj-265", 0 ],
					"destination" : [ "obj-259", 0 ],
					"hidden" : 0,
					"midpoints" : [ 623.5, 535.0, 16.5, 535.0 ]
				}

			}
, 			{
				"patchline" : 				{
					"source" : [ "obj-259", 0 ],
					"destination" : [ "obj-258", 0 ],
					"hidden" : 0,
					"midpoints" : [ 16.5, 570.0, 232.0, 570.0, 232.0, 546.0, 244.5, 546.0 ]
				}

			}
, 			{
				"patchline" : 				{
					"source" : [ "obj-265", 0 ],
					"destination" : [ "obj-205", 0 ],
					"hidden" : 0,
					"midpoints" : [ 623.5, 489.0, 326.5, 489.0 ]
				}

			}
, 			{
				"patchline" : 				{
					"source" : [ "obj-205", 0 ],
					"destination" : [ "obj-204", 0 ],
					"hidden" : 0,
					"midpoints" : [ 326.5, 521.0, 543.0, 521.0, 543.0, 497.0, 555.5, 497.0 ]
				}

			}
, 			{
				"patchline" : 				{
					"source" : [ "obj-157", 0 ],
					"destination" : [ "obj-156", 0 ],
					"hidden" : 0,
					"midpoints" : [ 913.5, 472.0, 1111.0, 472.0, 1111.0, 448.0, 1123.5, 448.0 ]
				}

			}
, 			{
				"patchline" : 				{
					"source" : [ "obj-265", 0 ],
					"destination" : [ "obj-157", 0 ],
					"hidden" : 0,
					"midpoints" : [ 623.5, 443.0, 913.5, 443.0 ]
				}

			}
, 			{
				"patchline" : 				{
					"source" : [ "obj-265", 0 ],
					"destination" : [ "obj-211", 0 ],
					"hidden" : 0,
					"midpoints" : [ 623.5, 493.0, 28.5, 493.0 ]
				}

			}
, 			{
				"patchline" : 				{
					"source" : [ "obj-211", 0 ],
					"destination" : [ "obj-210", 0 ],
					"hidden" : 0,
					"midpoints" : [ 28.5, 521.0, 236.0, 521.0, 236.0, 497.0, 248.5, 497.0 ]
				}

			}
, 			{
				"patchline" : 				{
					"source" : [ "obj-265", 0 ],
					"destination" : [ "obj-163", 0 ],
					"hidden" : 0,
					"midpoints" : [ 623.5, 444.0, 634.5, 444.0 ]
				}

			}
, 			{
				"patchline" : 				{
					"source" : [ "obj-163", 0 ],
					"destination" : [ "obj-162", 0 ],
					"hidden" : 0,
					"midpoints" : [ 634.5, 472.0, 825.0, 472.0, 825.0, 448.0, 836.5, 448.0 ]
				}

			}
, 			{
				"patchline" : 				{
					"source" : [ "obj-1", 0 ],
					"destination" : [ "obj-2", 0 ],
					"hidden" : 0,
					"midpoints" : [  ]
				}

			}
, 			{
				"patchline" : 				{
					"source" : [ "obj-14", 0 ],
					"destination" : [ "obj-1", 0 ],
					"hidden" : 0,
					"midpoints" : [  ]
				}

			}
, 			{
				"patchline" : 				{
					"source" : [ "obj-8", 0 ],
					"destination" : [ "obj-1", 1 ],
					"hidden" : 0,
					"midpoints" : [  ]
				}

			}
, 			{
				"patchline" : 				{
					"source" : [ "obj-229", 0 ],
					"destination" : [ "obj-228", 0 ],
					"hidden" : 0,
					"midpoints" : [ 491.5, 621.0, 538.0, 621.0, 538.0, 597.0, 550.5, 597.0 ]
				}

			}
, 			{
				"patchline" : 				{
					"source" : [ "obj-265", 0 ],
					"destination" : [ "obj-229", 0 ],
					"hidden" : 0,
					"midpoints" : [ 623.5, 591.0, 491.5, 591.0 ]
				}

			}
, 			{
				"patchline" : 				{
					"source" : [ "obj-222", 0 ],
					"destination" : [ "obj-224", 0 ],
					"hidden" : 0,
					"midpoints" : [ 858.5, 620.0, 870.0, 620.0, 870.0, 596.0, 881.5, 596.0 ]
				}

			}
, 			{
				"patchline" : 				{
					"source" : [ "obj-246", 0 ],
					"destination" : [ "obj-248", 0 ],
					"hidden" : 0,
					"midpoints" : [ 859.5, 570.0, 871.0, 570.0, 871.0, 546.0, 882.5, 546.0 ]
				}

			}
, 			{
				"patchline" : 				{
					"source" : [ "obj-198", 0 ],
					"destination" : [ "obj-200", 0 ],
					"hidden" : 0,
					"midpoints" : [ 848.5, 519.0, 860.0, 519.0, 860.0, 495.0, 871.5, 495.0 ]
				}

			}
, 			{
				"patchline" : 				{
					"source" : [ "obj-162", 0 ],
					"destination" : [ "obj-164", 0 ],
					"hidden" : 0,
					"midpoints" : [ 836.5, 472.0, 848.0, 472.0, 848.0, 448.0, 859.5, 448.0 ]
				}

			}
, 			{
				"patchline" : 				{
					"source" : [ "obj-228", 0 ],
					"destination" : [ "obj-230", 0 ],
					"hidden" : 0,
					"midpoints" : [ 550.5, 621.0, 562.0, 621.0, 562.0, 597.0, 573.5, 597.0 ]
				}

			}
, 			{
				"patchline" : 				{
					"source" : [ "obj-252", 0 ],
					"destination" : [ "obj-254", 0 ],
					"hidden" : 0,
					"midpoints" : [ 551.5, 570.0, 563.0, 570.0, 563.0, 546.0, 574.5, 546.0 ]
				}

			}
, 			{
				"patchline" : 				{
					"source" : [ "obj-204", 0 ],
					"destination" : [ "obj-206", 0 ],
					"hidden" : 0,
					"midpoints" : [ 555.5, 521.0, 567.0, 521.0, 567.0, 497.0, 578.5, 497.0 ]
				}

			}
, 			{
				"patchline" : 				{
					"source" : [ "obj-150", 0 ],
					"destination" : [ "obj-152", 0 ],
					"hidden" : 0,
					"midpoints" : [ 555.5, 472.0, 567.0, 472.0, 567.0, 448.0, 578.5, 448.0 ]
				}

			}
, 			{
				"patchline" : 				{
					"source" : [ "obj-136", 0 ],
					"destination" : [ "obj-265", 0 ],
					"hidden" : 0,
					"midpoints" : [  ]
				}

			}
, 			{
				"patchline" : 				{
					"source" : [ "obj-258", 0 ],
					"destination" : [ "obj-260", 0 ],
					"hidden" : 0,
					"midpoints" : [ 244.5, 570.0, 256.0, 570.0, 256.0, 546.0, 268.5, 546.0 ]
				}

			}
, 			{
				"patchline" : 				{
					"source" : [ "obj-240", 0 ],
					"destination" : [ "obj-242", 0 ],
					"hidden" : 0,
					"midpoints" : [ 1158.5, 570.0, 1170.0, 570.0, 1170.0, 546.0, 1181.5, 546.0 ]
				}

			}
, 			{
				"patchline" : 				{
					"source" : [ "obj-234", 0 ],
					"destination" : [ "obj-236", 0 ],
					"hidden" : 0,
					"midpoints" : [ 241.5, 622.0, 253.0, 622.0, 253.0, 598.0, 264.5, 598.0 ]
				}

			}
, 			{
				"patchline" : 				{
					"source" : [ "obj-216", 0 ],
					"destination" : [ "obj-218", 0 ],
					"hidden" : 0,
					"midpoints" : [ 1143.5, 621.0, 1155.0, 621.0, 1155.0, 597.0, 1166.5, 597.0 ]
				}

			}
, 			{
				"patchline" : 				{
					"source" : [ "obj-192", 0 ],
					"destination" : [ "obj-194", 0 ],
					"hidden" : 0,
					"midpoints" : [ 1149.5, 521.0, 1161.0, 521.0, 1161.0, 497.0, 1172.5, 497.0 ]
				}

			}
, 			{
				"patchline" : 				{
					"source" : [ "obj-210", 0 ],
					"destination" : [ "obj-212", 0 ],
					"hidden" : 0,
					"midpoints" : [ 248.5, 521.0, 260.0, 521.0, 260.0, 497.0, 271.5, 497.0 ]
				}

			}
, 			{
				"patchline" : 				{
					"source" : [ "obj-156", 0 ],
					"destination" : [ "obj-158", 0 ],
					"hidden" : 0,
					"midpoints" : [ 1123.5, 472.0, 1136.0, 472.0, 1136.0, 448.0, 1147.5, 448.0 ]
				}

			}
, 			{
				"patchline" : 				{
					"source" : [ "obj-149", 0 ],
					"destination" : [ "obj-144", 0 ],
					"hidden" : 0,
					"midpoints" : [ 261.5, 471.0, 274.0, 471.0, 274.0, 447.0, 285.5, 447.0 ]
				}

			}
, 			{
				"patchline" : 				{
					"source" : [ "obj-124", 0 ],
					"destination" : [ "obj-85", 0 ],
					"hidden" : 0,
					"midpoints" : [ 232.5, 294.0, 288.0, 294.0, 288.0, 185.0, 277.0, 185.0, 277.0, 148.0, 288.5, 148.0 ]
				}

			}
, 			{
				"patchline" : 				{
					"source" : [ "obj-3", 0 ],
					"destination" : [ "obj-86", 1 ],
					"hidden" : 0,
					"midpoints" : [ 102.5, 169.0, 139.5, 169.0 ]
				}

			}
, 			{
				"patchline" : 				{
					"source" : [ "obj-86", 2 ],
					"destination" : [ "obj-30", 0 ],
					"hidden" : 0,
					"midpoints" : [  ]
				}

			}
, 			{
				"patchline" : 				{
					"source" : [ "obj-86", 1 ],
					"destination" : [ "obj-29", 0 ],
					"hidden" : 0,
					"midpoints" : [  ]
				}

			}
, 			{
				"patchline" : 				{
					"source" : [ "obj-32", 0 ],
					"destination" : [ "obj-119", 0 ],
					"hidden" : 0,
					"midpoints" : [ 152.5, 261.0, 275.0, 261.0, 275.0, 146.0, 157.5, 146.0 ]
				}

			}
, 			{
				"patchline" : 				{
					"source" : [ "obj-33", 0 ],
					"destination" : [ "obj-120", 0 ],
					"hidden" : 0,
					"midpoints" : [ 206.5, 256.0, 272.0, 256.0, 272.0, 148.0, 218.5, 148.0 ]
				}

			}
, 			{
				"patchline" : 				{
					"source" : [ "obj-35", 0 ],
					"destination" : [ "obj-120", 1 ],
					"hidden" : 0,
					"midpoints" : [ 376.5, 152.0, 249.5, 152.0 ]
				}

			}
, 			{
				"patchline" : 				{
					"source" : [ "obj-37", 0 ],
					"destination" : [ "obj-119", 1 ],
					"hidden" : 0,
					"midpoints" : [ 324.5, 153.0, 365.0, 153.0, 188.5, 153.0 ]
				}

			}
, 			{
				"patchline" : 				{
					"source" : [ "obj-38", 0 ],
					"destination" : [ "obj-86", 0 ],
					"hidden" : 0,
					"midpoints" : [ 376.5, 181.0, 99.5, 181.0 ]
				}

			}
, 			{
				"patchline" : 				{
					"source" : [ "obj-15", 0 ],
					"destination" : [ "obj-86", 0 ],
					"hidden" : 0,
					"midpoints" : [ 324.5, 182.0, 99.5, 182.0 ]
				}

			}
, 			{
				"patchline" : 				{
					"source" : [ "obj-120", 0 ],
					"destination" : [ "obj-86", 2 ],
					"hidden" : 0,
					"midpoints" : [  ]
				}

			}
, 			{
				"patchline" : 				{
					"source" : [ "obj-97", 0 ],
					"destination" : [ "obj-23", 0 ],
					"hidden" : 0,
					"midpoints" : [ 277.5, 86.0, 376.5, 86.0 ]
				}

			}
, 			{
				"patchline" : 				{
					"source" : [ "obj-97", 0 ],
					"destination" : [ "obj-17", 0 ],
					"hidden" : 0,
					"midpoints" : [ 277.5, 86.0, 324.5, 86.0 ]
				}

			}
, 			{
				"patchline" : 				{
					"source" : [ "obj-119", 0 ],
					"destination" : [ "obj-86", 2 ],
					"hidden" : 0,
					"midpoints" : [  ]
				}

			}
, 			{
				"patchline" : 				{
					"source" : [ "obj-111", 0 ],
					"destination" : [ "obj-86", 0 ],
					"hidden" : 0,
					"midpoints" : [ 26.5, 181.0, 99.5, 181.0 ]
				}

			}
, 			{
				"patchline" : 				{
					"source" : [ "obj-4", 0 ],
					"destination" : [ "obj-111", 0 ],
					"hidden" : 0,
					"midpoints" : [  ]
				}

			}
, 			{
				"patchline" : 				{
					"source" : [ "obj-97", 0 ],
					"destination" : [ "obj-85", 0 ],
					"hidden" : 0,
					"midpoints" : [ 277.5, 85.0, 288.5, 85.0 ]
				}

			}
, 			{
				"patchline" : 				{
					"source" : [ "obj-30", 0 ],
					"destination" : [ "obj-33", 0 ],
					"hidden" : 0,
					"midpoints" : [  ]
				}

			}
, 			{
				"patchline" : 				{
					"source" : [ "obj-29", 0 ],
					"destination" : [ "obj-32", 0 ],
					"hidden" : 0,
					"midpoints" : [  ]
				}

			}
, 			{
				"patchline" : 				{
					"source" : [ "obj-23", 0 ],
					"destination" : [ "obj-35", 0 ],
					"hidden" : 0,
					"midpoints" : [  ]
				}

			}
, 			{
				"patchline" : 				{
					"source" : [ "obj-17", 0 ],
					"destination" : [ "obj-37", 0 ],
					"hidden" : 0,
					"midpoints" : [  ]
				}

			}
, 			{
				"patchline" : 				{
					"source" : [ "obj-37", 0 ],
					"destination" : [ "obj-15", 0 ],
					"hidden" : 0,
					"midpoints" : [  ]
				}

			}
, 			{
				"patchline" : 				{
					"source" : [ "obj-35", 0 ],
					"destination" : [ "obj-38", 0 ],
					"hidden" : 0,
					"midpoints" : [  ]
				}

			}
, 			{
				"patchline" : 				{
					"source" : [ "obj-79", 0 ],
					"destination" : [ "obj-12", 0 ],
					"hidden" : 0,
					"midpoints" : [  ]
				}

			}
, 			{
				"patchline" : 				{
					"source" : [ "obj-5", 0 ],
					"destination" : [ "obj-4", 0 ],
					"hidden" : 0,
					"midpoints" : [  ]
				}

			}
, 			{
				"patchline" : 				{
					"source" : [ "obj-85", 0 ],
					"destination" : [ "obj-86", 3 ],
					"hidden" : 0,
					"midpoints" : [  ]
				}

			}
, 			{
				"patchline" : 				{
					"source" : [ "obj-86", 0 ],
					"destination" : [ "obj-79", 0 ],
					"hidden" : 0,
					"midpoints" : [  ]
				}

			}
, 			{
				"patchline" : 				{
					"source" : [ "obj-13", 0 ],
					"destination" : [ "obj-14", 0 ],
					"hidden" : 0,
					"midpoints" : [  ]
				}

			}
, 			{
				"patchline" : 				{
					"source" : [ "obj-2", 0 ],
					"destination" : [ "obj-3", 0 ],
					"hidden" : 0,
					"midpoints" : [  ]
				}

			}
, 			{
				"patchline" : 				{
					"source" : [ "obj-7", 0 ],
					"destination" : [ "obj-8", 0 ],
					"hidden" : 0,
					"midpoints" : [  ]
				}

			}
, 			{
				"patchline" : 				{
					"source" : [ "obj-97", 0 ],
					"destination" : [ "obj-5", 0 ],
					"hidden" : 0,
					"midpoints" : [ 277.5, 73.0, 253.0, 73.0, 253.0, 42.0, 26.5, 42.0 ]
				}

			}
, 			{
				"patchline" : 				{
					"source" : [ "obj-265", 0 ],
					"destination" : [ "obj-217", 0 ],
					"hidden" : 0,
					"midpoints" : [ 623.5, 585.0, 1089.5, 585.0 ]
				}

			}
, 			{
				"patchline" : 				{
					"source" : [ "obj-217", 0 ],
					"destination" : [ "obj-216", 0 ],
					"hidden" : 0,
					"midpoints" : [ 1089.5, 621.0, 1131.0, 621.0, 1131.0, 597.0, 1143.5, 597.0 ]
				}

			}
, 			{
				"patchline" : 				{
					"source" : [ "obj-18", 0 ],
					"destination" : [ "obj-16", 0 ],
					"hidden" : 0,
					"midpoints" : [  ]
				}

			}
, 			{
				"patchline" : 				{
					"source" : [ "obj-3", 0 ],
					"destination" : [ "obj-18", 0 ],
					"hidden" : 0,
					"midpoints" : [ 102.5, 166.0, 146.0, 166.0, 146.0, 120.0, 257.0, 120.0, 257.0, 42.0, 449.5, 42.0 ]
				}

			}
, 			{
				"patchline" : 				{
					"source" : [ "obj-18", 1 ],
					"destination" : [ "obj-19", 0 ],
					"hidden" : 0,
					"midpoints" : [ 478.5, 71.0, 556.5, 71.0 ]
				}

			}
, 			{
				"patchline" : 				{
					"source" : [ "obj-25", 0 ],
					"destination" : [ "obj-22", 0 ],
					"hidden" : 0,
					"midpoints" : [  ]
				}

			}
, 			{
				"patchline" : 				{
					"source" : [ "obj-24", 0 ],
					"destination" : [ "obj-25", 0 ],
					"hidden" : 0,
					"midpoints" : [  ]
				}

			}
, 			{
				"patchline" : 				{
					"source" : [ "obj-26", 0 ],
					"destination" : [ "obj-31", 0 ],
					"hidden" : 0,
					"midpoints" : [  ]
				}

			}
, 			{
				"patchline" : 				{
					"source" : [ "obj-28", 0 ],
					"destination" : [ "obj-27", 0 ],
					"hidden" : 0,
					"midpoints" : [  ]
				}

			}
, 			{
				"patchline" : 				{
					"source" : [ "obj-27", 0 ],
					"destination" : [ "obj-22", 0 ],
					"hidden" : 0,
					"midpoints" : [ 531.5, 292.0, 456.5, 292.0 ]
				}

			}
, 			{
				"patchline" : 				{
					"source" : [ "obj-31", 0 ],
					"destination" : [ "obj-22", 0 ],
					"hidden" : 0,
					"midpoints" : [ 584.5, 291.0, 456.5, 291.0 ]
				}

			}
, 			{
				"patchline" : 				{
					"source" : [ "obj-22", 0 ],
					"destination" : [ "obj-34", 0 ],
					"hidden" : 0,
					"midpoints" : [  ]
				}

			}
, 			{
				"patchline" : 				{
					"source" : [ "obj-40", 0 ],
					"destination" : [ "obj-39", 0 ],
					"hidden" : 0,
					"midpoints" : [  ]
				}

			}
, 			{
				"patchline" : 				{
					"source" : [ "obj-22", 2 ],
					"destination" : [ "obj-40", 0 ],
					"hidden" : 0,
					"midpoints" : [  ]
				}

			}
, 			{
				"patchline" : 				{
					"source" : [ "obj-42", 0 ],
					"destination" : [ "obj-24", 0 ],
					"hidden" : 0,
					"midpoints" : [  ]
				}

			}
, 			{
				"patchline" : 				{
					"source" : [ "obj-43", 0 ],
					"destination" : [ "obj-28", 0 ],
					"hidden" : 0,
					"midpoints" : [  ]
				}

			}
, 			{
				"patchline" : 				{
					"source" : [ "obj-44", 0 ],
					"destination" : [ "obj-26", 0 ],
					"hidden" : 0,
					"midpoints" : [  ]
				}

			}
, 			{
				"patchline" : 				{
					"source" : [ "obj-97", 0 ],
					"destination" : [ "obj-43", 0 ],
					"hidden" : 0,
					"midpoints" : [ 277.5, 76.0, 430.0, 76.0, 430.0, 213.0, 531.5, 213.0 ]
				}

			}
, 			{
				"patchline" : 				{
					"source" : [ "obj-97", 0 ],
					"destination" : [ "obj-44", 0 ],
					"hidden" : 0,
					"midpoints" : [ 277.5, 75.0, 431.0, 75.0, 431.0, 217.0, 583.5, 217.0 ]
				}

			}
, 			{
				"patchline" : 				{
					"source" : [ "obj-39", 0 ],
					"destination" : [ "obj-42", 0 ],
					"hidden" : 0,
					"midpoints" : [ 492.5, 369.0, 419.0, 369.0, 419.0, 222.0, 456.5, 222.0 ]
				}

			}
, 			{
				"patchline" : 				{
					"source" : [ "obj-45", 0 ],
					"destination" : [ "obj-22", 3 ],
					"hidden" : 0,
					"midpoints" : [  ]
				}

			}
, 			{
				"patchline" : 				{
					"source" : [ "obj-39", 0 ],
					"destination" : [ "obj-45", 0 ],
					"hidden" : 0,
					"midpoints" : [ 492.5, 369.0, 424.0, 369.0, 424.0, 268.0, 497.5, 268.0 ]
				}

			}
, 			{
				"patchline" : 				{
					"source" : [ "obj-79", 0 ],
					"destination" : [ "obj-54", 1 ],
					"hidden" : 0,
					"midpoints" : [ 99.5, 319.0, 293.0, 319.0, 293.0, 205.0, 317.5, 205.0 ]
				}

			}
, 			{
				"patchline" : 				{
					"source" : [ "obj-54", 0 ],
					"destination" : [ "obj-56", 0 ],
					"hidden" : 0,
					"midpoints" : [  ]
				}

			}
, 			{
				"patchline" : 				{
					"source" : [ "obj-56", 0 ],
					"destination" : [ "obj-57", 0 ],
					"hidden" : 0,
					"midpoints" : [  ]
				}

			}
, 			{
				"patchline" : 				{
					"source" : [ "obj-57", 0 ],
					"destination" : [ "obj-58", 0 ],
					"hidden" : 0,
					"midpoints" : [  ]
				}

			}
, 			{
				"patchline" : 				{
					"source" : [ "obj-60", 0 ],
					"destination" : [ "obj-59", 0 ],
					"hidden" : 0,
					"midpoints" : [  ]
				}

			}
, 			{
				"patchline" : 				{
					"source" : [ "obj-61", 0 ],
					"destination" : [ "obj-60", 0 ],
					"hidden" : 0,
					"midpoints" : [  ]
				}

			}
, 			{
				"patchline" : 				{
					"source" : [ "obj-54", 0 ],
					"destination" : [ "obj-61", 0 ],
					"hidden" : 0,
					"midpoints" : [ 306.5, 255.0, 362.5, 255.0 ]
				}

			}
, 			{
				"patchline" : 				{
					"source" : [ "obj-37", 0 ],
					"destination" : [ "obj-56", 1 ],
					"hidden" : 0,
					"midpoints" : [ 324.5, 156.0, 416.0, 156.0, 416.0, 260.0, 320.0, 260.0 ]
				}

			}
, 			{
				"patchline" : 				{
					"source" : [ "obj-35", 0 ],
					"destination" : [ "obj-61", 1 ],
					"hidden" : 0,
					"midpoints" : [ 376.5, 156.0, 416.0, 156.0, 416.0, 260.0, 376.0, 260.0 ]
				}

			}
, 			{
				"patchline" : 				{
					"source" : [ "obj-62", 0 ],
					"destination" : [ "obj-54", 0 ],
					"hidden" : 0,
					"midpoints" : [ 328.5, 212.0, 306.5, 212.0 ]
				}

			}
, 			{
				"patchline" : 				{
					"source" : [ "obj-63", 1 ],
					"destination" : [ "obj-62", 0 ],
					"hidden" : 0,
					"midpoints" : [ 368.5, 215.0, 342.0, 215.0, 342.0, 187.0, 328.5, 187.0 ]
				}

			}
, 			{
				"patchline" : 				{
					"source" : [ "obj-63", 0 ],
					"destination" : [ "obj-42", 0 ],
					"hidden" : 0,
					"midpoints" : [ 353.5, 220.0, 456.5, 220.0 ]
				}

			}
, 			{
				"patchline" : 				{
					"source" : [ "obj-58", 0 ],
					"destination" : [ "obj-63", 0 ],
					"hidden" : 0,
					"midpoints" : [ 306.5, 341.0, 291.0, 341.0, 291.0, 186.0, 353.5, 186.0 ]
				}

			}
, 			{
				"patchline" : 				{
					"source" : [ "obj-59", 0 ],
					"destination" : [ "obj-63", 0 ],
					"hidden" : 0,
					"midpoints" : [ 362.5, 343.0, 292.0, 343.0, 292.0, 186.0, 353.5, 186.0 ]
				}

			}
, 			{
				"patchline" : 				{
					"source" : [ "obj-39", 0 ],
					"destination" : [ "obj-62", 0 ],
					"hidden" : 0,
					"midpoints" : [ 492.5, 367.0, 418.0, 367.0, 418.0, 184.0, 328.5, 184.0 ]
				}

			}
, 			{
				"patchline" : 				{
					"source" : [ "obj-97", 0 ],
					"destination" : [ "obj-64", 0 ],
					"hidden" : 0,
					"midpoints" : [  ]
				}

			}
, 			{
				"patchline" : 				{
					"source" : [ "obj-64", 0 ],
					"destination" : [ "obj-54", 0 ],
					"hidden" : 0,
					"midpoints" : [ 277.5, 139.0, 306.5, 139.0 ]
				}

			}
, 			{
				"patchline" : 				{
					"source" : [ "obj-39", 0 ],
					"destination" : [ "obj-124", 0 ],
					"hidden" : 0,
					"midpoints" : [ 492.5, 367.0, 410.0, 367.0, 410.0, 264.0, 232.5, 264.0 ]
				}

			}
, 			{
				"patchline" : 				{
					"source" : [ "obj-67", 0 ],
					"destination" : [ "obj-80", 1 ],
					"hidden" : 0,
					"midpoints" : [ 880.5, 119.0, 926.0, 119.0, 926.0, 145.0, 875.0, 145.0 ]
				}

			}
, 			{
				"patchline" : 				{
					"source" : [ "obj-69", 0 ],
					"destination" : [ "obj-78", 1 ],
					"hidden" : 0,
					"midpoints" : [ 828.5, 119.0, 866.0, 119.0, 866.0, 144.0, 838.0, 144.0 ]
				}

			}
 ]
	}

}
